<svg xmlns="http://www.w3.org/2000/svg" xmlns:xlink="http://www.w3.org/1999/xlink" width="1080" zoomAndPan="magnify" viewBox="0 0 810 809.999993" height="1080" preserveAspectRatio="xMidYMid meet" version="1.0"><defs><clipPath id="4fdc4c220d"><path d="M 15.742188 550 L 794.242188 550 L 794.242188 784 L 15.742188 784 Z M 15.742188 550 " clip-rule="nonzero"/></clipPath></defs><g clip-path="url(#4fdc4c220d)"><path fill="#000000" d="M 104.390625 783.808594 L 705.59375 783.808594 C 753.945312 783.808594 794.242188 743.511719 794.242188 695.15625 L 794.242188 606.5 C 794.242188 575.875 768.453125 550.085938 737.828125 550.085938 C 707.203125 550.085938 681.417969 575.875 681.417969 606.5 L 681.417969 670.976562 L 128.566406 670.976562 L 128.566406 606.5 C 128.566406 575.875 102.78125 550.085938 72.15625 550.085938 C 41.53125 550.085938 15.742188 575.875 15.742188 606.5 L 15.742188 695.15625 C 15.742188 743.511719 54.425781 783.808594 104.390625 783.808594 Z M 104.390625 783.808594 " fill-opacity="1" fill-rule="nonzero"/></g><path fill="#000000" d="M 404.1875 26.21875 C 373.5625 26.21875 347.773438 52.007812 347.773438 82.632812 L 347.773438 382.449219 L 278.464844 313.136719 C 255.902344 290.570312 220.441406 290.570312 199.488281 313.136719 C 176.921875 335.703125 176.921875 371.164062 199.488281 392.117188 L 365.503906 558.144531 C 370.339844 562.980469 376.785156 567.816406 383.234375 569.429688 C 389.679688 572.652344 396.128906 574.261719 404.1875 574.261719 C 412.246094 574.261719 418.691406 572.652344 425.140625 569.429688 C 431.585938 566.203125 438.035156 562.980469 442.871094 558.144531 L 608.886719 392.117188 C 631.449219 369.550781 631.449219 334.089844 608.886719 311.523438 C 586.320312 288.957031 550.859375 288.957031 529.90625 311.523438 L 460.597656 380.835938 L 460.597656 82.632812 C 460.597656 52.007812 434.808594 26.21875 404.1875 26.21875 Z M 404.1875 26.21875 " fill-opacity="1" fill-rule="nonzero"/></svg>