<svg xmlns="http://www.w3.org/2000/svg" xmlns:xlink="http://www.w3.org/1999/xlink" width="1080" zoomAndPan="magnify" viewBox="0 0 810 809.999993" height="1080" preserveAspectRatio="xMidYMid meet" version="1.0"><defs><clipPath id="974862c844"><path d="M 47.230469 63 L 737 63 L 737 751 L 47.230469 751 Z M 47.230469 63 " clip-rule="nonzero"/></clipPath><clipPath id="54638a2587"><path d="M 66 57 L 762.730469 57 L 762.730469 753.835938 L 66 753.835938 Z M 66 57 " clip-rule="nonzero"/></clipPath></defs><g clip-path="url(#974862c844)"><path fill="#4a97d2" d="M 605.855469 135.867188 C 611.476562 138.097656 615.195312 142.832031 619.601562 146.597656 C 634.03125 158.929688 647.175781 172.519531 658.644531 187.695312 C 653.210938 194.363281 645.457031 197.839844 637.847656 200.328125 C 629.113281 203.203125 627.421875 209.46875 626.265625 216.808594 C 625.148438 223.890625 628.566406 229.167969 634.160156 232.488281 C 640.96875 236.523438 647.730469 240.3125 653.59375 245.835938 C 657.683594 249.683594 663.347656 250.425781 669.210938 249.226562 C 678.679688 247.292969 688.277344 247.507812 697.84375 248.695312 C 702.40625 253.617188 704.09375 260.082031 706.640625 265.992188 C 710.972656 276.007812 715.921875 285.847656 717.980469 296.71875 C 716.050781 297.765625 714.632812 296.636719 713.433594 295.417969 C 701.546875 283.445312 686.761719 279.695312 670.5 280.496094 C 665.050781 280.769531 660.246094 279.609375 655.625 276.792969 C 638.363281 266.234375 618.972656 262.042969 599.449219 258.640625 C 589.582031 256.921875 580.671875 260.15625 574.453125 268.324219 C 567.402344 277.578125 558.890625 285.0625 549.507812 291.800781 C 544.632812 295.304688 540.5 299.769531 540.84375 306.417969 C 541.316406 315.5625 553 322.542969 562.253906 317.421875 C 579.769531 307.722656 598.21875 312.085938 616.367188 311.355469 C 620.246094 311.199219 623.820312 312.859375 627.179688 314.816406 C 629.582031 316.21875 631.886719 318.308594 634.558594 318.609375 C 658.644531 321.296875 674.617188 338.378906 692.496094 351.710938 C 703.980469 360.28125 715.792969 368.019531 728.378906 374.699219 C 730.910156 376.046875 732.996094 377.734375 734.597656 380.09375 C 737.757812 397.519531 736.945312 414.957031 734.570312 432.382812 C 732.726562 433.398438 730.894531 432.769531 729.921875 431.378906 C 720.753906 418.347656 706.195312 416.015625 692.367188 413.441406 C 678.679688 410.894531 670.714844 403.898438 667.183594 390.636719 C 663.019531 375 648.316406 371.996094 636.105469 367.347656 C 626.621094 363.742188 618.699219 359.707031 612.734375 351.210938 C 604.441406 339.378906 592 338.394531 579.042969 340.710938 C 574.25 341.570312 569.632812 343.085938 564.65625 342.085938 C 544.546875 338.007812 528 345.859375 512.957031 358.050781 C 504.832031 364.628906 502.472656 373.027344 502.558594 383.8125 C 502.742188 404.140625 506.675781 422.855469 517.175781 440.363281 C 521.078125 446.886719 521.738281 454.914062 524.8125 461.980469 C 528.84375 471.25 535.4375 476.902344 545.105469 479.976562 C 555.144531 483.167969 565.511719 484.195312 575.738281 486.144531 C 586.105469 488.117188 587.964844 490.835938 586.878906 502.078125 C 585.21875 519.117188 579.269531 535.238281 576.28125 552.019531 C 574.453125 562.304688 572.292969 572.449219 572.550781 583.007812 C 572.792969 593.421875 576.3125 602.433594 584.363281 608.65625 C 591.84375 614.4375 592.84375 620.703125 589.3125 628.671875 C 588.609375 630.257812 588.179688 631.960938 587.609375 633.605469 C 581.816406 650.070312 582.203125 651.515625 595.1875 663.246094 C 599.335938 666.996094 603.828125 670.644531 601.679688 677.324219 C 599.949219 679 598.378906 680.902344 596.445312 682.316406 C 553.113281 713.976562 505.246094 735.089844 452.289062 744.460938 C 431.707031 748.109375 411 750.269531 390.148438 749.984375 C 358.441406 749.554688 327.265625 745.207031 296.675781 736.40625 C 256.117188 724.746094 219.089844 706.121094 185.296875 681.042969 C 149.699219 654.636719 120.625 622.175781 97.597656 584.28125 C 79.222656 554.039062 66.050781 521.605469 57.613281 487.289062 C 53.792969 471.765625 51.347656 456.015625 49.574219 440.09375 C 47.429688 421.394531 47.285156 402.625 48.402344 383.898438 C 49.890625 358.894531 54.195312 334.246094 61.246094 310.140625 C 70.570312 278.222656 84.183594 248.253906 102.191406 220.3125 C 107.46875 212.128906 112.773438 203.960938 119.421875 196.796875 C 130.894531 206.152344 136.382812 219.46875 140.589844 232.730469 C 145.007812 246.695312 148.054688 260.828125 158.023438 272.34375 C 161.8125 276.707031 161.597656 282.84375 161.226562 288.421875 C 160.453125 300.195312 164.371094 310.066406 171.59375 319.265625 C 186.566406 338.320312 205.945312 352.542969 224.09375 368.105469 C 228.042969 371.496094 232.417969 374.371094 235.964844 378.261719 C 242.230469 385.117188 242.730469 392.28125 240.128906 401.367188 C 233.777344 423.441406 232.003906 446.03125 244.273438 466.785156 C 255.988281 486.601562 255.542969 507.617188 251.609375 528.585938 C 245.617188 560.632812 243.816406 592.792969 244.875 625.238281 C 245.0625 631.074219 244.046875 639.34375 249.652344 641.289062 C 255.972656 643.476562 258.917969 635.152344 261.9375 630.6875 C 274.964844 611.402344 292.210938 596.570312 310.019531 582.105469 C 322.476562 571.992188 335.175781 562.335938 349.347656 554.722656 C 353.410156 552.535156 357.054688 549.660156 358.742188 545.269531 C 365.0625 528.746094 378.148438 518.574219 392.066406 509.144531 C 395.828125 506.601562 399.460938 504.011719 402.433594 500.492188 C 418.851562 481.050781 416.40625 467.230469 398.757812 449.019531 C 378.949219 428.578125 354.925781 415.128906 330.96875 401.167969 C 323.363281 396.730469 314.28125 396.589844 306.015625 393.957031 C 298.40625 391.523438 290.511719 390.007812 282.773438 387.992188 C 279.054688 387.019531 275.023438 386.246094 272.304688 383.527344 C 259.777344 371.023438 244.359375 359.824219 237.351562 343.957031 C 229.445312 326.03125 221.550781 306.964844 222.695312 286.191406 C 223.636719 269.011719 228.714844 263.472656 245.875 261.386719 C 254.328125 260.355469 262.480469 261.484375 270.503906 264.347656 C 279.027344 267.394531 287.621094 270.199219 296.246094 272.929688 C 310.445312 277.421875 321.972656 274.589844 326.636719 261.097656 C 333.871094 240.183594 351.035156 230.726562 367.039062 219.3125 C 370.226562 217.039062 373.671875 215.59375 377.5625 215.050781 C 392.679688 212.917969 405.894531 205.835938 419.308594 199.15625 C 425.972656 195.835938 427.875 191.445312 423.558594 184.949219 C 418.25 176.996094 415.75 167.953125 413.347656 158.828125 C 410.816406 149.1875 408.855469 148.328125 400.460938 153.105469 C 396.097656 155.59375 391.695312 156.839844 386.703125 157.253906 C 373.644531 158.371094 361.988281 163.734375 350.417969 169.585938 C 333.15625 178.3125 323.132812 173.605469 317.539062 154.820312 C 311.347656 134.050781 313.824219 114.894531 328.082031 97.914062 C 334.34375 90.445312 341.667969 87.34375 351.921875 88.488281 C 367.425781 90.203125 382.96875 92.175781 398.671875 91.792969 C 404.9375 91.632812 409.125 89.660156 411.34375 83.292969 C 414.574219 73.996094 421.296875 67.570312 430.007812 63.164062 C 441.90625 62.765625 453.304688 66.039062 464.800781 68.257812 C 471.894531 69.617188 479.074219 71.019531 485.796875 73.953125 C 490.714844 77.855469 488.371094 83.664062 489.585938 88.542969 C 495.792969 113.550781 496.765625 139.457031 502.730469 164.492188 C 503.902344 169.429688 502.585938 174.191406 501.972656 179 C 500.957031 186.996094 504.273438 191.585938 512.238281 193.046875 C 517.460938 194.003906 522.738281 194.636719 527.65625 192.503906 C 544.648438 185.164062 563.910156 181.402344 574.179688 163.277344 C 575.195312 161.488281 577.027344 160.058594 578.957031 159.328125 C 588.550781 155.679688 595.132812 148.8125 600.207031 140.171875 C 601.4375 138.042969 603.269531 136.382812 605.855469 135.867188 Z M 605.855469 135.867188 " fill-opacity="1" fill-rule="nonzero"/></g><path fill="#64bc46" d="M 429.976562 63.136719 C 426.71875 66.742188 423.484375 70.359375 420.210938 73.9375 C 416.863281 77.570312 414.390625 81.503906 413.402344 86.570312 C 412.144531 93.019531 409.871094 94.722656 403.304688 94.609375 C 394.28125 94.4375 385.242188 93.878906 376.234375 93.394531 C 366.878906 92.894531 357.484375 92.949219 348.21875 90.960938 C 343.210938 89.886719 338.664062 91.40625 334.886719 95.210938 C 330.699219 99.414062 326.75 103.738281 323.632812 108.859375 C 317.199219 119.457031 314.996094 130.816406 317.46875 142.933594 C 318.714844 149.058594 320.285156 155.164062 322.316406 161.058594 C 325.777344 171.085938 334.257812 174.40625 343.957031 169.898438 C 348.6875 167.710938 353.695312 165.878906 357.941406 162.949219 C 365.964844 157.398438 375.691406 157.269531 384.3125 153.75 C 385.445312 153.292969 387.273438 153.347656 388.289062 153.976562 C 391.636719 156.039062 394.039062 155.007812 396.613281 152.53125 C 399.359375 149.886719 402.320312 147.425781 406.066406 146.195312 C 409.054688 145.222656 411.816406 146.109375 413.089844 148.871094 C 414.105469 151.058594 414.777344 153.433594 415.449219 155.753906 C 416.90625 160.757812 418.164062 165.824219 419.738281 170.800781 C 421.097656 175.09375 422.441406 179.429688 425.6875 182.847656 C 426.847656 184.0625 427.734375 185.679688 428.332031 187.28125 C 431.550781 195.792969 428.804688 198.269531 422.929688 200.355469 C 420.324219 201.273438 417.835938 202.589844 415.433594 203.949219 C 403.234375 210.828125 390.5625 216.308594 376.449219 217.695312 C 374.332031 217.910156 372.402344 218.453125 370.628906 219.710938 C 362.703125 225.363281 354.796875 231.027344 346.789062 236.550781 C 340.25 241.058594 335.617188 246.808594 333.402344 254.5625 C 331.640625 260.699219 327.9375 265.675781 323.632812 270.382812 C 316.984375 277.664062 308.757812 279.195312 299.90625 276.835938 C 290.527344 274.347656 281.1875 271.386719 272.25 267.621094 C 260.035156 262.488281 247.921875 262.671875 235.535156 266.136719 C 230.84375 267.449219 227.828125 269.953125 227.085938 275.40625 C 226.382812 280.554688 225.082031 285.605469 224.980469 290.871094 C 224.839844 298.265625 225.484375 305.347656 229.875 311.785156 C 233.261719 316.761719 234.863281 322.714844 234.621094 328.652344 C 234.25 337.464844 238.296875 344.246094 243.886719 349.980469 C 252.15625 358.464844 260.390625 366.917969 267.800781 376.175781 C 271.648438 380.980469 276.511719 383.726562 282.601562 385.144531 C 294.085938 387.804688 305.398438 391.152344 316.8125 394.128906 C 318.8125 394.644531 320.914062 394.871094 322.988281 395.03125 C 326.566406 395.300781 329.941406 396.273438 332.644531 398.546875 C 341.28125 405.789062 351.636719 410.066406 361.476562 415.15625 C 369.96875 419.550781 377.347656 425.144531 383.828125 432.011719 C 388.847656 437.332031 394.023438 442.46875 399.859375 446.917969 C 405.179688 450.980469 409.253906 456.199219 413.058594 461.609375 C 417.523438 467.960938 418.695312 474.667969 415.90625 482.324219 C 411.359375 494.839844 404.679688 505.441406 392.566406 511.792969 C 387.5625 514.425781 383.484375 518.128906 379.609375 522.179688 C 375.53125 526.441406 371.328125 530.621094 366.894531 534.523438 C 364.679688 536.46875 363.132812 538.386719 362.863281 541.421875 C 362.132812 549.589844 357.027344 554.453125 350.0625 557.871094 C 338.792969 563.40625 328.722656 570.648438 319 578.628906 C 311.519531 584.765625 304.710938 591.863281 295.972656 596.453125 C 294.199219 597.382812 292.65625 598.984375 291.398438 600.589844 C 285.777344 607.726562 279.640625 614.308594 272.503906 619.972656 C 271.160156 621.03125 269.417969 622.261719 269.03125 623.734375 C 266.886719 631.847656 259.675781 636.539062 256.058594 643.632812 C 255.457031 644.820312 254.328125 645.78125 253.285156 646.667969 C 251.652344 648.070312 249.207031 647.8125 247.621094 646.28125 C 245.804688 644.550781 244.519531 642.460938 244.074219 640.03125 C 243.332031 635.921875 242.488281 631.804688 242.316406 627.65625 C 241.628906 611.304688 241.269531 594.953125 241.957031 578.585938 C 242.542969 564.636719 245.304688 550.976562 247.722656 537.269531 C 250.210938 523.179688 251.753906 509.0625 251.039062 494.726562 C 250.695312 487.972656 248.835938 481.738281 245.675781 475.828125 C 243.859375 472.464844 242.128906 469.03125 240.113281 465.800781 C 234.949219 457.546875 232.960938 448.617188 233.335938 438.917969 C 233.664062 430.25 234.777344 421.539062 232.863281 412.898438 C 232.390625 410.75 233.0625 408.734375 233.921875 406.832031 C 234.777344 404.929688 235.695312 402.996094 236.921875 401.351562 C 242.230469 394.269531 240.742188 387.777344 235.59375 381.394531 C 232.277344 377.289062 228.558594 373.65625 223.894531 371.152344 C 217.375 367.648438 211.808594 363.042969 206.917969 357.503906 C 202.757812 352.800781 198.023438 348.695312 192.6875 345.332031 C 191.515625 344.585938 190.015625 344.042969 189.269531 343 C 183.4375 334.773438 174.582031 329.25 169.277344 320.539062 C 168.191406 318.765625 167.160156 316.878906 165.746094 315.390625 C 160.324219 309.722656 158.679688 302.773438 158.59375 295.261719 C 158.550781 291.441406 158.710938 287.609375 158.796875 283.773438 C 158.894531 279.480469 158.367188 275.417969 155.019531 272.257812 C 154.519531 271.785156 154.203125 271.128906 153.730469 270.613281 C 146.050781 262.101562 141.40625 252.285156 140.316406 240.742188 C 139.429688 231.472656 134.453125 223.589844 129.992188 215.863281 C 126.359375 209.554688 123.15625 203.019531 119.453125 196.753906 C 127.847656 183.847656 138.488281 172.847656 149.355469 162.117188 C 181.175781 130.761719 217.730469 106.554688 259.277344 89.972656 C 262.453125 88.714844 265.855469 87.898438 268.1875 84.910156 C 269.960938 82.636719 272.921875 82.105469 275.464844 81.035156 C 293.828125 73.335938 313.050781 68.730469 332.558594 65.226562 C 360.714844 60.191406 389.148438 59.460938 417.679688 61.207031 C 421.839844 61.449219 426.015625 61.632812 429.976562 63.136719 Z M 429.976562 63.136719 " fill-opacity="1" fill-rule="nonzero"/><path fill="#64bc46" d="M 601.636719 677.382812 C 599.792969 671.945312 596.703125 667.46875 591.8125 664.292969 C 590.082031 663.160156 588.4375 661.789062 587.023438 660.273438 C 581.1875 653.976562 578.167969 647.269531 582.574219 638.597656 C 585.234375 633.363281 586.921875 627.613281 588.738281 621.988281 C 590.324219 617.070312 590.082031 616.097656 585.679688 613.335938 C 580.171875 609.886719 576.210938 605.394531 573.378906 599.558594 C 571.363281 595.410156 570.019531 591.246094 569.601562 586.65625 C 568.945312 579.316406 569.117188 572.046875 570.660156 564.839844 C 572.765625 554.980469 575.4375 545.269531 576.523438 535.183594 C 576.96875 531.121094 578.914062 527.214844 580.101562 523.222656 C 582.902344 513.839844 584.175781 504.210938 584.175781 494.425781 C 584.175781 490.464844 583.347656 489.675781 579.328125 489.132812 C 574.851562 488.515625 570.375 487.84375 565.886719 487.472656 C 554.988281 486.585938 544.960938 482.609375 534.835938 478.933594 C 530.703125 477.429688 527.828125 474.65625 525.898438 470.679688 C 522.707031 464.113281 519.277344 457.730469 517.890625 450.394531 C 516.472656 442.8125 512.785156 436.015625 509.078125 429.320312 C 507.734375 426.886719 506.261719 424.527344 504.847656 422.125 C 501.773438 416.902344 500.085938 411.394531 500.828125 405.199219 C 501.285156 401.410156 501.097656 397.546875 501.429688 393.726562 C 501.730469 390.207031 501.65625 386.789062 500.15625 383.511719 C 497.765625 378.320312 498.683594 373.242188 501.199219 368.449219 C 503.789062 363.527344 506.476562 358.648438 511.554688 355.644531 C 513.3125 354.601562 514.828125 353.070312 516.246094 351.554688 C 520.207031 347.320312 524.910156 344.5 530.730469 344.101562 C 534.363281 343.84375 537.339844 342.3125 540.34375 340.480469 C 545.289062 337.492188 550.410156 336.691406 556.304688 338.191406 C 563.683594 340.066406 571.105469 340.324219 578.84375 337.976562 C 588.867188 334.929688 598.835938 337.292969 608.117188 341.914062 C 609.890625 342.785156 611.277344 344.585938 612.59375 346.160156 C 614.367188 348.292969 615.984375 350.582031 617.5 352.898438 C 622.003906 359.78125 628.738281 362.8125 636.492188 364.214844 C 637.851562 364.457031 639.539062 364.214844 640.539062 364.929688 C 648.160156 370.339844 657.398438 372.898438 664.722656 378.878906 C 667.710938 381.324219 668.582031 384.644531 669.382812 387.960938 C 670.613281 393.097656 672.617188 397.863281 675.203125 402.425781 C 676.835938 405.300781 678.980469 407.261719 682.371094 407.90625 C 685.773438 408.535156 689.078125 409.722656 692.496094 410.28125 C 700.777344 411.636719 708.527344 414.8125 716.535156 417.058594 C 720.355469 418.132812 723.113281 420.824219 725.847656 423.539062 C 728.792969 426.460938 730.867188 430.222656 734.554688 432.425781 C 735.199219 445.414062 732.496094 458.0625 729.9375 470.59375 C 713.433594 551.492188 673.53125 618.527344 610.160156 671.488281 C 607.488281 673.707031 605.027344 676.238281 601.636719 677.382812 Z M 601.636719 677.382812 " fill-opacity="1" fill-rule="nonzero"/><path fill="#64bc46" d="M 734.570312 380.152344 C 727.691406 377.75 720.796875 375.445312 715.21875 370.367188 C 713.734375 369.007812 711.585938 368.390625 709.742188 367.417969 C 707.597656 366.273438 705.125 365.488281 703.40625 363.886719 C 696.5 357.476562 688.691406 352.253906 681.195312 346.617188 C 673.703125 340.984375 666.453125 335.046875 658.886719 329.507812 C 654.695312 326.449219 650.234375 323.84375 644.601562 323.945312 C 638.535156 324.058594 632.871094 321.957031 628.054688 318.378906 C 622.703125 314.402344 616.855469 313.1875 610.433594 313.300781 C 601.394531 313.472656 592.355469 313.617188 583.316406 313.53125 C 577.554688 313.488281 572.164062 314.617188 567.714844 318.320312 C 560.40625 324.417969 552.484375 320.882812 544.777344 320.054688 C 543.675781 319.9375 542.585938 318.464844 541.730469 317.433594 C 541.085938 316.664062 540.699219 315.617188 540.414062 314.632812 C 539.46875 311.328125 535.953125 308.453125 537.167969 304.988281 C 538.96875 299.8125 541.042969 294.503906 545.792969 291 C 550.824219 287.277344 555.789062 283.472656 560.894531 279.855469 C 563.78125 277.808594 566.085938 275.40625 567.914062 272.328125 C 575.539062 259.484375 584.21875 253.21875 604.070312 256.707031 C 609.875 257.722656 615.855469 258.136719 621.472656 259.785156 C 629.097656 262.015625 636.546875 264.933594 643.898438 267.980469 C 649.019531 270.097656 653.910156 272.800781 658.773438 275.492188 C 662.261719 277.421875 665.808594 278.136719 669.769531 277.679688 C 683.054688 276.148438 695.15625 279.554688 706.582031 286.304688 C 711.203125 289.039062 714.460938 292.988281 717.980469 296.777344 C 724.1875 310.882812 727.046875 325.933594 730.121094 340.898438 C 732.011719 350.066406 733.125 359.421875 734.3125 368.734375 C 734.785156 372.46875 734.5 376.332031 734.570312 380.152344 Z M 734.570312 380.152344 " fill-opacity="1" fill-rule="nonzero"/><path fill="#64bc46" d="M 605.855469 135.867188 C 603.496094 139.714844 601.09375 143.535156 598.792969 147.425781 C 595.304688 153.304688 590.683594 157.953125 583.976562 159.816406 C 577.699219 161.558594 573.90625 165.324219 572.164062 171.589844 C 571.078125 175.492188 568.144531 178.441406 564.453125 179.570312 C 553.429688 182.945312 544.003906 189.671875 533.292969 193.789062 C 523.910156 197.394531 515.15625 197.382812 505.875 194.648438 C 501.628906 193.390625 499.484375 190.742188 498.96875 186.550781 C 498.453125 182.359375 498.769531 178.199219 499.914062 174.148438 C 501.214844 169.585938 501.085938 165.28125 498.769531 161.046875 C 496.351562 156.667969 495.664062 151.761719 495.652344 146.910156 C 495.636719 136.78125 493.375 126.984375 492.003906 117.039062 C 490.015625 102.648438 484.824219 88.730469 485.753906 73.921875 C 496.378906 75.867188 506.363281 79.902344 516.359375 83.78125 C 545.320312 95.011719 572.335938 109.816406 597.261719 128.371094 C 600.324219 130.632812 603.710938 132.5625 605.855469 135.867188 Z M 605.855469 135.867188 " fill-opacity="1" fill-rule="nonzero"/><path fill="#64bc46" d="M 697.828125 248.738281 C 692.523438 250.628906 687.175781 251.613281 681.496094 250.542969 C 676.964844 249.683594 672.472656 250.683594 668.3125 252.386719 C 664.707031 253.859375 661.574219 253.445312 658.386719 251.6875 C 653.953125 249.253906 648.5625 248.308594 646.445312 242.5 C 645.488281 239.871094 642.195312 239.167969 639.539062 238.351562 C 635.503906 237.109375 631.898438 235.148438 628.796875 232.230469 C 623.835938 227.550781 621.660156 222.117188 623.804688 215.347656 C 624.121094 214.363281 624.449219 213.332031 624.507812 212.316406 C 624.964844 204.648438 627.222656 198.871094 636.519531 198.785156 C 638.636719 198.769531 640.738281 196.59375 642.828125 195.378906 C 647.917969 192.445312 652.75 189 658.644531 187.710938 C 673.933594 205.394531 686.160156 225.105469 696.972656 245.75 C 697.445312 246.636719 697.558594 247.738281 697.828125 248.738281 Z M 697.828125 248.738281 " fill-opacity="1" fill-rule="nonzero"/><g clip-path="url(#54638a2587)"><path fill="#0b301b" d="M 762.785156 405.457031 C 761.398438 599.617188 606.601562 753.472656 414.488281 753.332031 C 218.304688 753.1875 65.820312 595.109375 66.378906 404.457031 C 66.953125 211.171875 222.335938 56.726562 414.976562 57.085938 C 608.675781 57.457031 761.886719 213.0625 762.785156 405.457031 Z M 141.519531 207.324219 C 125.574219 222.445312 99.988281 273.589844 89.074219 312.226562 C 72.34375 371.511719 71.542969 431.078125 87.074219 490.664062 C 102.519531 549.875 131.992188 601.289062 175.296875 644.59375 C 218.847656 688.140625 270.617188 717.625 330.183594 733.015625 C 389.777344 748.425781 449.328125 747.324219 508.492188 730.339844 C 549.050781 718.695312 601.066406 691.972656 617.542969 674.433594 C 614.496094 671.289062 611.335938 668.15625 608.316406 664.894531 C 598.707031 654.476562 598.949219 642.316406 602.269531 629.65625 C 602.351562 629.328125 602.554688 629.027344 602.738281 628.726562 C 603.785156 627.097656 605.484375 626.109375 607.128906 626.925781 C 608.472656 627.582031 610.035156 629.214844 610.191406 630.558594 C 610.449219 632.90625 609.605469 635.335938 609.390625 637.753906 C 608.773438 644.492188 609.273438 651.128906 613.808594 656.523438 C 617.554688 660.988281 621.816406 665.007812 626.59375 668.226562 C 627.9375 667.394531 628.898438 666.9375 629.699219 666.292969 C 632.402344 664.089844 635.089844 661.886719 637.691406 659.570312 C 700.261719 603.492188 737.6875 533.953125 749.785156 450.707031 C 751.230469 440.808594 747.984375 433.484375 740.332031 428.117188 C 735.570312 424.769531 730.023438 422.4375 724.644531 420.09375 C 720.839844 418.433594 716.679688 417.632812 712.761719 416.230469 C 702.519531 412.597656 694.484375 406.230469 689.519531 396.429688 C 686.644531 390.765625 682.925781 385.832031 678.351562 381.453125 C 676.878906 380.035156 675.492188 378.335938 674.660156 376.503906 C 674.21875 375.503906 674.589844 373.472656 675.375 372.742188 C 676.492188 371.695312 678.394531 370.824219 679.824219 370.996094 C 681.367188 371.183594 682.914062 372.484375 684.171875 373.628906 C 689.605469 378.578125 694.367188 384.070312 697.574219 390.796875 C 701.71875 399.480469 708.726562 404.828125 717.765625 407.691406 C 719.753906 408.320312 721.726562 409.007812 723.730469 409.578125 C 732.539062 412.054688 740.632812 415.902344 747.671875 421.867188 C 748.601562 422.652344 749.886719 422.996094 752.316406 424.199219 C 752.777344 413.5 753.546875 404 752.148438 394.558594 C 750.960938 393.757812 750.203125 392.984375 749.273438 392.640625 C 740.578125 389.449219 733.226562 384.128906 727.046875 377.460938 C 717.59375 367.277344 708.628906 356.617188 699.503906 346.117188 C 698.386719 344.832031 697.171875 343.300781 696.886719 341.710938 C 696.613281 340.253906 697.027344 337.933594 698.03125 337.175781 C 699.074219 336.390625 701.648438 336.375 702.734375 337.164062 C 704.9375 338.75 706.582031 341.109375 708.46875 343.144531 C 716.980469 352.339844 725.316406 361.683594 734.054688 370.636719 C 737.660156 374.328125 742.078125 377.261719 746.296875 380.324219 C 747.46875 381.179688 749.242188 381.195312 751.644531 381.855469 C 751.273438 376.089844 751.203125 371.238281 750.617188 366.445312 C 748.371094 348.121094 744.636719 330.097656 739.992188 312.214844 C 737.988281 304.515625 733.96875 298.996094 727.046875 295.574219 C 721.457031 292.816406 715.835938 289.882812 709.914062 288.09375 C 703.308594 286.089844 696.386719 284.890625 689.519531 284.015625 C 673.660156 281.984375 659.085938 277.007812 646.558594 266.765625 C 644.414062 265.003906 642.070312 263.460938 639.75 261.929688 C 632.242188 256.992188 624.277344 256.148438 615.867188 259.382812 C 607.542969 262.585938 600.664062 267.707031 595.289062 274.847656 C 589.640625 282.359375 583.960938 289.839844 578.328125 297.363281 C 572.863281 304.660156 566.757812 311.242188 558.835938 316.003906 C 556.917969 317.164062 555.472656 319.109375 552.941406 321.527344 C 555.929688 322.429688 557.890625 323.6875 559.605469 323.414062 C 563.683594 322.785156 567.785156 321.785156 571.632812 320.3125 C 576.8125 318.320312 581.671875 315.503906 586.820312 313.445312 C 593.257812 310.867188 599.679688 307.863281 606.402344 306.578125 C 613.480469 305.21875 620.902344 305.488281 628.183594 305.417969 C 631.570312 305.390625 633.84375 307.949219 633.601562 310.484375 C 633.359375 313.070312 631.15625 314.761719 627.507812 314.976562 C 625.4375 315.089844 623.332031 315.015625 621.246094 314.945312 C 610.921875 314.558594 601.265625 316.992188 592.070312 321.613281 C 587.09375 324.101562 582.132812 326.691406 576.953125 328.679688 C 572.121094 330.539062 567.058594 331.882812 562.007812 333.058594 C 557.417969 334.128906 552.96875 332.898438 548.953125 330.652344 C 543.246094 327.464844 541.5 320.796875 545.261719 315.476562 C 547.222656 312.714844 549.894531 310.195312 552.785156 308.410156 C 560.363281 303.730469 566.171875 297.378906 571.390625 290.355469 C 576.582031 283.375 581.789062 276.40625 587.066406 269.484375 C 592.644531 262.1875 599.394531 256.351562 607.746094 252.316406 C 621.472656 245.675781 634.574219 246.191406 647.132812 255.164062 C 648.832031 256.378906 650.578125 257.539062 652.195312 258.851562 C 663.335938 267.910156 676.148438 272.542969 690.335938 274.203125 C 702.777344 275.664062 715.105469 277.9375 726.304688 284.144531 C 727.078125 284.574219 728.132812 284.476562 729.148438 284.648438 C 727.792969 275.492188 721.511719 261.398438 715.578125 254.390625 C 711.402344 254.71875 706.910156 255.207031 702.40625 255.390625 C 699.660156 255.503906 696.855469 255.390625 694.140625 254.976562 C 691.953125 254.648438 690.335938 253.300781 690.394531 250.757812 C 690.4375 248.582031 691.921875 247.050781 694.425781 246.878906 C 698.246094 246.609375 702.089844 246.695312 705.867188 246.207031 C 707.667969 245.964844 709.355469 244.746094 711.085938 243.976562 C 704.878906 229.914062 690.050781 207.367188 679.980469 196.523438 C 676.390625 195.421875 673.1875 196.738281 669.957031 198.109375 C 663.878906 200.699219 657.886719 203.503906 651.695312 205.792969 C 642.15625 209.328125 643.269531 214.75 647.445312 221.230469 C 649.21875 223.992188 652.421875 226.007812 655.324219 227.796875 C 657.941406 229.425781 661.175781 230.042969 663.878906 231.574219 C 666.539062 233.074219 669.511719 234.71875 671.214844 237.109375 C 673.804688 240.742188 675.5625 244.992188 677.363281 249.125 C 678.238281 251.140625 677.738281 253.300781 675.578125 254.53125 C 673.515625 255.707031 671.371094 255.277344 669.84375 253.71875 C 668.410156 252.257812 667.082031 250.457031 666.382812 248.566406 C 664.40625 243.230469 660.773438 240.128906 655.367188 238.425781 C 652.109375 237.410156 649.035156 235.578125 646.117188 233.71875 C 641.910156 231.042969 638.851562 227.222656 636.890625 222.632812 C 631.027344 208.867188 636.503906 201.359375 646.859375 197.496094 C 649.460938 196.523438 652.066406 195.535156 654.640625 194.492188 C 660.402344 192.160156 666.167969 189.800781 672.386719 187.265625 C 669.855469 182.488281 666.195312 179.242188 662.976562 175.679688 C 659.714844 172.058594 656.296875 168.570312 652.835938 165.152344 C 649.117188 161.472656 645.402344 157.8125 641.453125 154.40625 C 637.890625 151.332031 634.933594 147.3125 629.957031 145.625 C 628.253906 147.441406 626.921875 149.027344 625.4375 150.445312 C 620.644531 154.980469 615.824219 159.5 610.933594 163.933594 C 609.660156 165.078125 608.132812 165.996094 606.617188 166.796875 C 604.742188 167.78125 601.507812 167.152344 601.109375 165.507812 C 600.738281 164.007812 600.851562 161.960938 601.636719 160.714844 C 602.695312 159.011719 604.65625 157.898438 606.144531 156.4375 C 610.132812 152.5625 614.167969 148.726562 617.96875 144.679688 C 619.542969 143.003906 620.574219 140.832031 622.445312 137.96875 C 620.988281 136.996094 619.773438 136.296875 618.671875 135.453125 C 588.507812 112.476562 555.34375 95.222656 519.320312 83.464844 C 517.472656 82.863281 515.445312 82.863281 512.941406 82.492188 C 512.167969 90.746094 511.941406 98.371094 513.640625 105.882812 C 515.488281 114.007812 517.875 122.019531 519.847656 130.117188 C 521.492188 136.867188 522.964844 143.648438 524.3125 150.457031 C 524.855469 153.207031 524.566406 155.996094 522.75 158.425781 C 520.976562 160.800781 516.875 160.617188 515.703125 157.984375 C 515.285156 157.054688 514.914062 156.023438 514.871094 155.007812 C 514.441406 145.152344 511.425781 135.894531 508.578125 126.566406 C 504.175781 112.121094 501.699219 97.46875 503.832031 82.304688 C 503.960938 81.375 503.429688 80.347656 503.101562 78.914062 C 487.597656 73.835938 471.511719 71.492188 455.808594 69.273438 C 450.144531 71.804688 445.839844 75.253906 442.390625 79.746094 C 439.433594 83.609375 436.214844 87.355469 433.78125 91.546875 C 426.402344 104.324219 415.363281 108.585938 401.160156 106.925781 C 392.179688 105.867188 383.140625 105.222656 374.101562 104.851562 C 356.625 104.136719 350.621094 107.855469 343.914062 127.039062 C 342.910156 129.902344 343.167969 133.21875 342.898438 136.339844 C 342.753906 138.070312 343.082031 139.914062 342.566406 141.488281 C 342.195312 142.589844 340.75 144.050781 339.765625 144.078125 C 338.292969 144.105469 335.859375 143.363281 335.476562 142.332031 C 334.402344 139.488281 333.574219 136.28125 333.746094 133.292969 C 334.417969 121.402344 339.050781 111.074219 347.203125 102.378906 C 350.40625 98.957031 354.410156 96.769531 359.042969 96.339844 C 364.90625 95.78125 370.828125 95.28125 376.707031 95.496094 C 385.746094 95.824219 394.753906 96.742188 403.765625 97.527344 C 412.417969 98.285156 419.382812 95.925781 424.273438 88.128906 C 427.777344 82.550781 432.050781 77.441406 435.898438 72.078125 C 436.601562 71.105469 436.902344 69.847656 437.757812 67.871094 C 434.527344 67.484375 432.210938 67.042969 429.878906 66.941406 C 401.933594 65.753906 374.1875 67.800781 346.859375 73.566406 C 273.019531 89.144531 210.824219 125.066406 160.582031 181.515625 C 157.578125 184.894531 154.804688 188.484375 151.789062 191.84375 C 149.425781 194.464844 149.15625 197.238281 150.058594 200.542969 C 152.429688 209.328125 155.847656 217.667969 160.152344 225.664062 C 164.957031 234.589844 168.949219 243.816406 171.109375 253.761719 C 172.066406 258.179688 173.167969 262.558594 174.039062 266.992188 C 175.714844 275.476562 179.859375 282.558594 185.851562 288.667969 C 188.285156 291.15625 190.773438 293.585938 193.160156 296.121094 C 197.667969 300.898438 199.96875 306.546875 199.8125 313.15625 C 199.710938 316.992188 199.796875 320.824219 199.539062 324.644531 C 199.152344 330.253906 201.699219 334.058594 206.546875 336.320312 C 211.582031 338.664062 216.773438 340.667969 221.863281 342.871094 C 227.914062 345.488281 234.191406 347.691406 239.914062 350.925781 C 250.582031 356.933594 256.386719 366.390625 258.175781 378.59375 C 259.5625 388.0625 258.675781 397.417969 257.203125 406.660156 C 254.671875 422.523438 256.632812 437.917969 260.9375 453.097656 C 263.410156 461.78125 266.855469 470.191406 269.417969 478.847656 C 271.777344 486.828125 273.808594 494.941406 275.480469 503.09375 C 277.609375 513.523438 275.566406 523.894531 274.105469 534.222656 C 273.734375 536.871094 271.191406 538.671875 268.972656 538.445312 C 266.65625 538.203125 264.753906 536.054688 264.738281 533.324219 C 264.738281 531.25 264.910156 529.144531 265.285156 527.101562 C 267.785156 513.039062 266.054688 499.375 261.550781 485.957031 C 258.675781 477.386719 255.5 468.90625 252.8125 460.277344 C 247.363281 442.824219 244.632812 425.058594 247.378906 406.746094 C 247.949219 402.96875 248.222656 399.136719 248.765625 395.34375 C 249.550781 389.765625 249.136719 384.285156 248.222656 378.734375 C 246.75 369.851562 242.1875 363.199219 234.390625 358.964844 C 229.84375 356.488281 224.894531 354.714844 220.121094 352.671875 C 214.054688 350.066406 207.878906 347.71875 201.929688 344.886719 C 193.148438 340.710938 189.058594 333.570312 189.644531 323.816406 C 189.699219 322.769531 189.601562 321.710938 189.785156 320.683594 C 191.546875 311.199219 188.554688 303.558594 180.976562 297.664062 C 180.433594 297.234375 179.988281 296.675781 179.503906 296.191406 C 171.378906 288.121094 166.015625 278.582031 163.988281 267.222656 C 163.441406 264.148438 162.898438 261.027344 161.96875 258.050781 C 159.796875 251.101562 157.765625 244.0625 154.992188 237.335938 C 150.914062 227.410156 146.222656 217.710938 141.519531 207.324219 Z M 141.519531 207.324219 " fill-opacity="1" fill-rule="nonzero"/></g><path fill="#0b301b" d="M 278.839844 641.933594 C 279.855469 640.257812 281.144531 638.699219 281.828125 636.910156 C 290.625 614.007812 305.972656 596.613281 326.0625 582.890625 C 346.515625 568.929688 365.050781 552.578125 382.769531 535.3125 C 386.773438 531.40625 390.605469 527.429688 393.167969 522.363281 C 397.484375 513.808594 403.863281 506.984375 411.402344 501.191406 C 415.261719 498.230469 419.195312 495.339844 422.957031 492.25 C 427.847656 488.21875 431.765625 483.46875 433.96875 477.34375 C 436.714844 469.75 435.484375 462.925781 430.394531 456.859375 C 428.175781 454.210938 425.574219 451.808594 422.855469 449.675781 C 414.917969 443.453125 406.824219 437.433594 398.828125 431.28125 C 396.085938 429.164062 393.308594 427.03125 390.808594 424.640625 C 389.164062 423.082031 389.046875 420.894531 390.207031 418.878906 C 391.179688 417.1875 393.722656 416.574219 395.753906 417.445312 C 396.714844 417.863281 397.699219 418.277344 398.515625 418.890625 C 410.097656 427.789062 421.726562 436.628906 433.183594 445.699219 C 437.871094 449.417969 441.347656 454.199219 443.464844 459.90625 C 446.726562 468.675781 445.296875 477.042969 441.289062 485.140625 C 438.316406 491.164062 433.882812 496.054688 428.648438 500.21875 C 425.117188 503.039062 421.46875 505.714844 417.863281 508.460938 C 411.144531 513.59375 405.453125 519.605469 401.617188 527.242188 C 398.929688 532.609375 395.027344 537 390.75 541.148438 C 373.246094 558.128906 355.066406 574.292969 335.132812 588.414062 C 330.3125 591.832031 325.707031 595.554688 320.988281 599.128906 C 309.945312 607.484375 301.566406 618 295.660156 630.488281 C 293.128906 635.835938 290.78125 641.257812 288.207031 646.582031 C 286.851562 649.386719 285.417969 652.21875 283.5625 654.707031 C 279.699219 659.886719 273.964844 659.386719 271.03125 653.792969 C 270.230469 652.261719 269.515625 650.628906 269.085938 648.957031 C 266.339844 638.511719 264.296875 627.925781 263.652344 617.125 C 263.566406 615.765625 263.722656 614.351562 263.996094 613.007812 C 264.382812 611.132812 265.65625 609.660156 267.585938 610.128906 C 269.042969 610.488281 270.71875 611.605469 271.476562 612.863281 C 272.292969 614.25 272.148438 616.210938 272.460938 617.914062 C 273.894531 625.753906 275.324219 633.59375 276.765625 641.429688 C 277.46875 641.601562 278.15625 641.773438 278.839844 641.933594 Z M 278.839844 641.933594 " fill-opacity="1" fill-rule="nonzero"/><path fill="#0b301b" d="M 560.351562 347.335938 C 570.546875 348.308594 580.386719 346.90625 589.925781 343.027344 C 594.730469 341.066406 599.765625 339.667969 604.714844 338.078125 C 616.539062 334.300781 627.296875 335.589844 636.449219 344.789062 C 638.652344 347.003906 641.125 348.9375 643.527344 350.9375 C 648.863281 355.402344 654.167969 359.9375 661.445312 360.96875 C 662.105469 361.066406 662.976562 361.296875 663.320312 361.78125 C 664.078125 362.828125 665.078125 364.101562 665.023438 365.230469 C 664.964844 366.390625 663.992188 368.148438 663.019531 368.476562 C 661.148438 369.121094 658.914062 369.378906 656.96875 369.035156 C 652.109375 368.191406 647.773438 365.902344 643.871094 362.925781 C 639.164062 359.351562 634.304688 355.933594 630.027344 351.882812 C 623.433594 345.644531 615.941406 344.960938 607.773438 347.21875 C 603.769531 348.335938 599.738281 349.523438 595.933594 351.167969 C 583.875 356.375 571.363281 358.394531 558.304688 357.304688 C 556.574219 357.164062 554.828125 357.320312 553.097656 357.191406 C 541.816406 356.359375 534.777344 362.382812 530.058594 371.769531 C 526.542969 378.777344 525.582031 386.445312 526.328125 394.113281 C 527.128906 402.382812 528.601562 410.609375 529.988281 418.820312 C 530.746094 423.269531 532.035156 427.617188 532.878906 432.039062 C 533.261719 434.054688 533.5625 436.289062 533.078125 438.203125 C 532.71875 439.621094 531.21875 441.410156 529.902344 441.753906 C 528.617188 442.082031 526.800781 440.964844 525.441406 440.105469 C 524.683594 439.621094 524.109375 438.417969 523.9375 437.460938 C 521.308594 422.796875 516.515625 408.476562 516.53125 393.371094 C 516.53125 386.417969 516.417969 379.40625 519.132812 372.828125 C 520.722656 369.007812 522.394531 365.101562 524.695312 361.695312 C 531.175781 352.125 540.242188 347.078125 552 347.320312 C 554.785156 347.378906 557.5625 347.335938 560.351562 347.335938 Z M 560.351562 347.335938 " fill-opacity="1" fill-rule="nonzero"/><path fill="#0b301b" d="M 428.175781 154.320312 C 423.644531 155.894531 419.710938 157.183594 415.847656 158.640625 C 408.027344 161.589844 399.972656 163.503906 391.765625 165.121094 C 385.027344 166.4375 378.523438 169.128906 372.085938 171.644531 C 366.539062 173.820312 361.101562 175.765625 354.996094 175.59375 C 348.890625 175.40625 344.140625 173.132812 341.265625 167.753906 C 339.148438 163.792969 337.25 159.671875 335.730469 155.453125 C 335.03125 153.507812 335.746094 151.304688 338.121094 150.289062 C 340.367188 149.328125 342.441406 149.902344 343.640625 151.761719 C 345.515625 154.664062 347.03125 157.796875 348.519531 160.917969 C 350.25 164.535156 353.121094 166.195312 356.925781 165.652344 C 360.316406 165.164062 363.804688 164.464844 366.9375 163.105469 C 376.535156 158.914062 386.257812 155.566406 396.757812 154.164062 C 402.519531 153.390625 408.027344 150.773438 413.644531 148.984375 C 417.609375 147.726562 421.511719 146.152344 425.558594 145.25 C 431.609375 143.890625 436.644531 146.882812 438.816406 152.605469 C 439.058594 153.25 439.332031 153.933594 439.375 154.609375 C 439.945312 163.71875 444.867188 170.917969 449.558594 178.269531 C 451.601562 181.472656 453.574219 184.820312 455.019531 188.324219 C 457.324219 193.875 456.222656 198.613281 451.417969 202.289062 C 447.582031 205.222656 443.222656 207.523438 438.886719 209.671875 C 437.628906 210.300781 435.5 209.800781 433.996094 209.210938 C 431.09375 208.054688 430.792969 204.25 433.339844 202.503906 C 434.46875 201.730469 435.785156 201.246094 437 200.585938 C 439.132812 199.425781 441.332031 198.355469 443.351562 197.023438 C 446.339844 195.0625 446.882812 192.945312 445.4375 189.941406 C 444.980469 189 444.421875 188.113281 443.863281 187.238281 C 440.71875 182.230469 437.085938 177.46875 434.539062 172.1875 C 431.996094 166.9375 430.550781 161.175781 428.175781 154.320312 Z M 428.175781 154.320312 " fill-opacity="1" fill-rule="nonzero"/><path fill="#0b301b" d="M 307.285156 281.257812 C 299.347656 281.042969 292.226562 278.679688 285.433594 274.789062 C 280 271.671875 274.277344 268.96875 267.929688 268.464844 C 264.898438 268.222656 261.636719 268.4375 258.734375 269.296875 C 252.199219 271.214844 248.492188 276.992188 249.652344 283.746094 C 250.351562 287.792969 251.910156 291.757812 253.554688 295.5625 C 257.675781 305.175781 261.492188 314.890625 263.167969 325.246094 C 264.726562 334.875 269.257812 342.871094 275.28125 350.253906 C 276.796875 352.113281 278.441406 353.972656 279.484375 356.105469 C 279.914062 356.976562 279.226562 358.9375 278.410156 359.738281 C 277.597656 360.539062 275.722656 361.097656 274.75 360.695312 C 272.90625 359.9375 271.117188 358.636719 269.730469 357.164062 C 262.464844 349.480469 256.558594 340.855469 254.414062 330.339844 C 252.039062 318.679688 248.164062 307.59375 243.402344 296.734375 C 242.015625 293.574219 240.84375 290.238281 240.097656 286.863281 C 237.222656 273.832031 245.660156 261.386719 258.804688 259.082031 C 265.082031 257.980469 271.277344 258.46875 277.3125 260.554688 C 279.929688 261.472656 282.632812 262.316406 285.019531 263.675781 C 293.613281 268.582031 302.566406 272.015625 312.664062 271.613281 C 313.664062 271.570312 315.023438 271.699219 315.636719 272.316406 C 316.78125 273.460938 318.214844 275.03125 318.171875 276.40625 C 318.140625 277.75 316.683594 279.796875 315.425781 280.199219 C 312.863281 281.011719 310.019531 280.941406 307.285156 281.257812 Z M 307.285156 281.257812 " fill-opacity="1" fill-rule="nonzero"/><path fill="#0b301b" d="M 605.527344 515.011719 C 604.597656 519.703125 603.238281 527.929688 601.324219 536.027344 C 599.566406 543.453125 597.132812 550.71875 595.132812 558.101562 C 592.585938 567.457031 589.269531 576.65625 589.839844 586.640625 C 590.011719 589.703125 588.023438 591.53125 585.605469 591.546875 C 583.191406 591.5625 580.773438 589.875 580.628906 587.15625 C 580.402344 582.691406 580.113281 578.042969 581.085938 573.75 C 583.375 563.59375 586.507812 553.636719 589.054688 543.539062 C 591.339844 534.453125 593.414062 525.3125 595.359375 516.15625 C 595.933594 513.464844 596.046875 510.621094 595.859375 507.875 C 595.460938 501.851562 592.65625 497.1875 586.835938 494.996094 C 582.304688 493.296875 577.597656 492.078125 572.964844 490.648438 C 568.332031 489.21875 563.640625 487.945312 559.078125 486.300781 C 557.191406 485.613281 555.359375 484.339844 553.941406 482.894531 C 553.15625 482.09375 552.871094 480.320312 553.113281 479.132812 C 553.5 477.214844 555.203125 476.472656 557.089844 476.558594 C 558.105469 476.601562 559.121094 476.914062 560.105469 477.1875 C 566.441406 478.976562 572.765625 480.804688 579.085938 482.59375 C 582.089844 483.4375 585.191406 484.011719 588.109375 485.070312 C 600.707031 489.632812 606.199219 497.988281 605.527344 515.011719 Z M 605.527344 515.011719 " fill-opacity="1" fill-rule="nonzero"/><path fill="#0b301b" d="M 416.050781 209.140625 C 417.019531 209.929688 418.910156 210.902344 419.925781 212.429688 C 421.097656 214.207031 419.394531 217.253906 416.777344 218.140625 C 413.175781 219.355469 409.425781 220.128906 405.792969 221.230469 C 399.503906 223.132812 393.109375 224.804688 387.03125 227.222656 C 378.007812 230.8125 371.171875 237.109375 367.023438 246.019531 C 363.191406 254.261719 358.199219 261.757812 352.40625 268.710938 C 350.890625 270.527344 349.046875 272.300781 346.957031 273.300781 C 345.816406 273.859375 343.597656 273.160156 342.398438 272.285156 C 341.667969 271.757812 341.46875 269.597656 341.910156 268.550781 C 342.695312 266.691406 344.226562 265.148438 345.3125 263.402344 C 349.53125 256.648438 354.410156 250.199219 357.714844 243.015625 C 363.449219 230.585938 372.585938 222.085938 385.101562 217.453125 C 394.167969 214.105469 403.691406 212.003906 413.015625 209.371094 C 413.703125 209.15625 414.433594 209.242188 416.050781 209.140625 Z M 416.050781 209.140625 " fill-opacity="1" fill-rule="nonzero"/><path fill="#0b301b" d="M 518.832031 180.972656 C 519.121094 179.429688 519.035156 177.46875 519.878906 176.125 C 520.664062 174.863281 522.367188 173.761719 523.851562 173.449219 C 525.742188 173.046875 527.257812 174.519531 527.386719 176.394531 C 527.671875 180.574219 528 184.691406 529.945312 188.484375 C 532.820312 194.132812 536.867188 196.09375 542.773438 193.777344 C 546.921875 192.160156 550.8125 189.742188 554.53125 187.253906 C 560.007812 183.589844 565.371094 179.8125 571.664062 177.554688 C 576.296875 175.878906 581 174.894531 585.90625 175.265625 C 588.59375 175.464844 590.496094 178.011719 589.652344 180.359375 C 589.226562 181.546875 588.28125 182.820312 587.207031 183.417969 C 585.734375 184.25 583.976562 184.707031 582.273438 184.949219 C 574.480469 186.039062 567.929688 189.785156 561.609375 194.207031 C 557.648438 196.980469 553.585938 199.785156 549.195312 201.746094 C 535.050781 208.054688 523.636719 202.359375 519.734375 187.351562 C 519.234375 185.320312 519.148438 183.21875 518.832031 180.972656 Z M 518.832031 180.972656 " fill-opacity="1" fill-rule="nonzero"/><path fill="#0b301b" d="M 374.933594 415.53125 C 374.660156 415.429688 373.289062 415.113281 372.144531 414.441406 C 369.167969 412.667969 366.335938 410.652344 363.363281 408.878906 C 355.839844 404.386719 347.902344 401.238281 338.980469 400.679688 C 327.265625 399.949219 316.984375 394.800781 306.84375 389.421875 C 305.683594 388.804688 304.699219 387.675781 303.925781 386.589844 C 302.308594 384.300781 304.339844 380.292969 307.101562 380.367188 C 308.789062 380.410156 310.5625 380.738281 312.121094 381.382812 C 315.636719 382.855469 318.914062 384.972656 322.503906 386.175781 C 328.050781 388.035156 333.703125 390.09375 339.464844 390.722656 C 353.835938 392.3125 365.835938 398.792969 376.976562 407.359375 C 378.019531 408.164062 378.824219 409.390625 379.464844 410.578125 C 380.636719 412.753906 378.523438 415.773438 374.933594 415.53125 Z M 374.933594 415.53125 " fill-opacity="1" fill-rule="nonzero"/><path fill="#0b301b" d="M 272.25 555.824219 C 269.675781 565.140625 270.230469 573.867188 269.929688 582.535156 C 269.875 584.222656 269.746094 586.183594 268.859375 587.5 C 268.027344 588.742188 266.128906 590.03125 264.78125 589.945312 C 263.425781 589.859375 261.851562 588.328125 260.964844 587.011719 C 260.277344 585.980469 260.261719 584.324219 260.363281 582.976562 C 261.023438 574.679688 261.765625 566.398438 262.59375 558.113281 C 262.722656 556.785156 263.367188 555.453125 263.96875 554.222656 C 264.996094 552.136719 266.972656 550.804688 269.015625 551.820312 C 270.546875 552.578125 271.390625 554.679688 272.25 555.824219 Z M 272.25 555.824219 " fill-opacity="1" fill-rule="nonzero"/><path fill="#0b301b" d="M 655.699219 312.214844 C 656.984375 312.34375 657.714844 312.285156 658.359375 312.5 C 665.921875 315.046875 673.488281 317.605469 681.027344 320.253906 C 681.96875 320.582031 682.984375 321.269531 683.484375 322.085938 C 684.15625 323.1875 685 324.84375 684.601562 325.761719 C 683.984375 327.148438 682.511719 328.320312 681.140625 329.152344 C 680.4375 329.582031 679.082031 329.265625 678.152344 328.921875 C 670.65625 326.175781 663.175781 323.34375 655.710938 320.511719 C 655.082031 320.269531 654.28125 319.894531 654.011719 319.367188 C 653.421875 318.195312 652.523438 316.664062 652.867188 315.660156 C 653.367188 314.257812 654.867188 313.1875 655.699219 312.214844 Z M 655.699219 312.214844 " fill-opacity="1" fill-rule="nonzero"/><path fill="#0b301b" d="M 547.808594 469.949219 C 546.421875 470.734375 544.890625 472.066406 543.132812 472.453125 C 542.085938 472.679688 540.472656 471.707031 539.542969 470.820312 C 534.722656 466.1875 531.847656 460.320312 529.988281 454.027344 C 529.628906 452.808594 530.660156 450.75 531.691406 449.664062 C 532.992188 448.277344 536.09375 448.890625 537.167969 450.5625 C 540.65625 456.058594 544.03125 461.609375 547.394531 467.171875 C 547.722656 467.71875 547.609375 468.519531 547.808594 469.949219 Z M 547.808594 469.949219 " fill-opacity="1" fill-rule="nonzero"/><path fill="#0b301b" d="M 591.457031 600.546875 C 592.027344 600.703125 593.273438 600.660156 593.929688 601.261719 C 597.71875 604.695312 601.480469 608.183594 605.011719 611.875 C 606.285156 613.207031 606.199219 615.351562 604.613281 616.4375 C 603.382812 617.285156 600.867188 618.15625 600.136719 617.554688 C 595.976562 614.066406 592.027344 610.273438 588.324219 606.28125 C 586.863281 604.707031 588.980469 600.746094 591.457031 600.546875 Z M 591.457031 600.546875 " fill-opacity="1" fill-rule="nonzero"/><path fill="#0b301b" d="M 290.167969 376.230469 C 287.835938 376.289062 285.949219 374.785156 285.847656 372.8125 C 285.75 370.839844 287.507812 368.894531 289.597656 368.664062 C 291.527344 368.449219 293.5 370.152344 293.785156 372.269531 C 294.058594 374.386719 292.441406 376.175781 290.167969 376.230469 Z M 290.167969 376.230469 " fill-opacity="1" fill-rule="nonzero"/></svg>