<svg xmlns="http://www.w3.org/2000/svg" xmlns:xlink="http://www.w3.org/1999/xlink" width="1080" zoomAndPan="magnify" viewBox="0 0 810 809.999993" height="1080" preserveAspectRatio="xMidYMid meet" version="1.0"><defs><g/></defs><g fill="#000000" fill-opacity="1"><g transform="translate(5.427358, 449.787109)"><g><path d="M 70 -74.609375 L 70 -120.640625 L 96.515625 -120.640625 L 96.515625 -1.59375 L 70 -1.59375 L 70 -50.796875 L 57.296875 -50.796875 L 57.296875 -74.609375 Z M 101.265625 -120.640625 L 127.9375 -120.640625 L 127.9375 0 L 101.265625 0 Z M 50.3125 -90.640625 C 50.3125 -76.140625 50.8125 -64.757812 51.8125 -56.5 C 52.820312 -48.25 54.675781 -41.796875 57.375 -37.140625 C 60.082031 -32.484375 64.078125 -29.097656 69.359375 -26.984375 L 61.4375 -4.765625 C 56.988281 -5.503906 52.753906 -7.488281 48.734375 -10.71875 C 44.710938 -13.945312 41.113281 -18.414062 37.9375 -24.125 C 34.757812 -18.414062 31.132812 -13.945312 27.0625 -10.71875 C 22.988281 -7.488281 18.726562 -5.503906 14.28125 -4.765625 L 6.34375 -26.984375 C 11.632812 -29.097656 15.628906 -32.484375 18.328125 -37.140625 C 21.023438 -41.796875 22.875 -48.25 23.875 -56.5 C 24.882812 -64.757812 25.390625 -76.140625 25.390625 -90.640625 L 25.390625 -95.078125 L 10.46875 -95.078125 L 10.46875 -119.046875 L 65.234375 -119.046875 L 65.234375 -95.078125 L 50.3125 -95.078125 Z M 50.3125 -90.640625 "/></g></g></g><g fill="#000000" fill-opacity="1"><g transform="translate(134.958609, 449.787109)"><g/></g></g><g fill="#000000" fill-opacity="1"><g transform="translate(174.64343, 449.787109)"><g><path d="M 89.84375 -25.390625 L 72.0625 -25.390625 L 72.0625 -99.203125 L 46.984375 -99.203125 L 10.46875 -90.953125 L 10.46875 -65.5625 L 38.734375 -67.46875 L 38.734375 -25.390625 L 10.46875 -25.390625 L 10.46875 0 L 89.84375 0 Z M 89.84375 -25.390625 "/></g></g></g><g fill="#000000" fill-opacity="1"><g transform="translate(261.950028, 449.787109)"><g><path d="M 91.109375 -120.640625 L 91.109375 0 L 120.953125 0 L 120.953125 -120.640625 Z M 45.71875 -119.375 C 22.644531 -119.375 11.109375 -107.304688 11.109375 -83.171875 L 11.109375 -72.703125 C 11.109375 -48.578125 22.644531 -36.515625 45.71875 -36.515625 C 57.351562 -36.515625 66.082031 -39.554688 71.90625 -45.640625 C 77.726562 -51.722656 80.640625 -60.742188 80.640625 -72.703125 L 80.640625 -83.171875 C 80.640625 -95.128906 77.726562 -104.148438 71.90625 -110.234375 C 66.082031 -116.328125 57.351562 -119.375 45.71875 -119.375 Z M 45.71875 -95.5625 C 49.632812 -95.5625 51.59375 -93.550781 51.59375 -89.53125 L 51.59375 -66.34375 C 51.59375 -62.320312 49.632812 -60.3125 45.71875 -60.3125 C 41.800781 -60.3125 39.84375 -62.320312 39.84375 -66.34375 L 39.84375 -89.53125 C 39.84375 -93.550781 41.800781 -95.5625 45.71875 -95.5625 Z M 9.53125 -28.578125 L 9.53125 -4.765625 L 86.34375 -4.765625 L 86.34375 -28.578125 Z M 9.53125 -28.578125 "/></g></g></g><g fill="#000000" fill-opacity="1"><g transform="translate(384.496752, 449.787109)"><g/></g></g><g fill="#000000" fill-opacity="1"><g transform="translate(424.181573, 449.787109)"><g><path d="M 123.8125 -28.578125 L 81.59375 -28.578125 L 81.59375 -35.71875 L 122.21875 -35.71875 L 122.21875 -59.53125 L 40.796875 -59.53125 L 40.796875 -65.40625 L 120.640625 -65.40625 L 120.640625 -119.046875 L 12.703125 -119.046875 L 12.703125 -95.234375 L 92.390625 -95.234375 L 92.390625 -89.203125 L 12.703125 -89.203125 L 12.703125 -35.71875 L 51.75 -35.71875 L 51.75 -28.578125 L 9.53125 -28.578125 L 9.53125 -4.765625 L 123.8125 -4.765625 Z M 123.8125 -28.578125 "/></g></g></g><g fill="#000000" fill-opacity="1"><g transform="translate(549.585607, 449.787109)"><g><path d="M 90.796875 -95.078125 L 90.796875 -47.625 L 118.890625 -47.625 L 120.484375 -118.890625 L 12.703125 -118.890625 L 12.703125 -95.078125 Z M 123.8125 -28.578125 L 9.53125 -28.578125 L 9.53125 -4.765625 L 123.8125 -4.765625 Z M 123.8125 -28.578125 "/></g></g></g><g fill="#000000" fill-opacity="1"><g transform="translate(674.989641, 449.787109)"><g><path d="M 91.109375 -120.640625 L 91.109375 -35.875 L 120.953125 -35.875 L 120.953125 -120.640625 Z M 45.078125 -119.046875 C 33.335938 -119.046875 24.476562 -115.953125 18.5 -109.765625 C 12.519531 -103.578125 9.53125 -94.394531 9.53125 -82.21875 C 9.53125 -70.050781 12.519531 -60.867188 18.5 -54.671875 C 24.476562 -48.484375 33.335938 -45.390625 45.078125 -45.390625 C 56.828125 -45.390625 65.691406 -48.484375 71.671875 -54.671875 C 77.648438 -60.867188 80.640625 -70.050781 80.640625 -82.21875 C 80.640625 -94.394531 77.648438 -103.578125 71.671875 -109.765625 C 65.691406 -115.953125 56.828125 -119.046875 45.078125 -119.046875 Z M 45.078125 -95.234375 C 48.992188 -95.234375 50.953125 -93.222656 50.953125 -89.203125 L 50.953125 -75.234375 C 50.953125 -71.210938 48.992188 -69.203125 45.078125 -69.203125 C 41.160156 -69.203125 39.203125 -71.210938 39.203125 -75.234375 L 39.203125 -89.203125 C 39.203125 -93.222656 41.160156 -95.234375 45.078125 -95.234375 Z M 12.703125 -39.046875 L 12.703125 0 L 121.109375 0 L 121.109375 -23.96875 L 42.546875 -23.96875 L 42.546875 -39.046875 Z M 12.703125 -39.046875 "/></g></g></g></svg>