<svg xmlns="http://www.w3.org/2000/svg" xmlns:xlink="http://www.w3.org/1999/xlink" width="1080" zoomAndPan="magnify" viewBox="0 0 810 809.999993" height="1080" preserveAspectRatio="xMidYMid meet" version="1.0"><defs><g/></defs><g fill="#ffffff" fill-opacity="1"><g transform="translate(162.471571, 447.749997)"><g><path d="M 65.53125 -69.84375 L 65.53125 -112.9375 L 90.34375 -112.9375 L 90.34375 -1.484375 L 65.53125 -1.484375 L 65.53125 -47.546875 L 53.640625 -47.546875 L 53.640625 -69.84375 Z M 94.796875 -112.9375 L 119.765625 -112.9375 L 119.765625 0 L 94.796875 0 Z M 47.109375 -84.84375 C 47.109375 -71.269531 47.578125 -60.617188 48.515625 -52.890625 C 49.453125 -45.171875 51.179688 -39.128906 53.703125 -34.765625 C 56.234375 -30.410156 59.976562 -27.242188 64.9375 -25.265625 L 57.5 -4.453125 C 53.34375 -5.148438 49.378906 -7.007812 45.609375 -10.03125 C 41.847656 -13.050781 38.484375 -17.238281 35.515625 -22.59375 C 32.546875 -17.238281 29.148438 -13.050781 25.328125 -10.03125 C 21.515625 -7.007812 17.53125 -5.148438 13.375 -4.453125 L 5.9375 -25.265625 C 10.894531 -27.242188 14.632812 -30.410156 17.15625 -34.765625 C 19.6875 -39.128906 21.421875 -45.171875 22.359375 -52.890625 C 23.304688 -60.617188 23.78125 -71.269531 23.78125 -84.84375 L 23.78125 -89 L 9.8125 -89 L 9.8125 -111.4375 L 61.078125 -111.4375 L 61.078125 -89 L 47.109375 -89 Z M 47.109375 -84.84375 "/></g></g></g><g fill="#ffffff" fill-opacity="1"><g transform="translate(283.723583, 447.749997)"><g><path d="M 48.296875 -113.234375 L 36.84375 -113.234375 L 36.84375 -113.078125 C 28.03125 -113.078125 21.171875 -110.847656 16.265625 -106.390625 C 11.367188 -101.929688 8.921875 -95.738281 8.921875 -87.8125 C 8.921875 -79.894531 11.367188 -73.707031 16.265625 -69.25 C 21.171875 -64.789062 28.03125 -62.5625 36.84375 -62.5625 L 48.296875 -62.5625 C 57.109375 -62.5625 63.96875 -64.789062 68.875 -69.25 C 73.78125 -73.707031 76.234375 -79.894531 76.234375 -87.8125 C 76.234375 -95.738281 73.78125 -101.929688 68.875 -106.390625 C 63.96875 -110.847656 57.109375 -113.078125 48.296875 -113.078125 Z M 112.9375 -112.9375 L 85.140625 -112.9375 L 85.140625 -62.109375 L 112.9375 -62.109375 Z M 40.265625 -82.765625 C 38.679688 -82.765625 37.414062 -83.234375 36.46875 -84.171875 C 35.53125 -85.117188 35.0625 -86.382812 35.0625 -87.96875 C 35.0625 -89.65625 35.53125 -90.941406 36.46875 -91.828125 C 37.414062 -92.722656 38.679688 -93.171875 40.265625 -93.171875 L 44.875 -93.171875 C 46.5625 -93.171875 47.847656 -92.722656 48.734375 -91.828125 C 49.628906 -90.941406 50.078125 -89.65625 50.078125 -87.96875 C 50.078125 -86.382812 49.628906 -85.117188 48.734375 -84.171875 C 47.847656 -83.234375 46.5625 -82.765625 44.875 -82.765625 Z M 112.9375 -20.796875 L 112.9375 -57.953125 L 11.890625 -57.953125 L 11.890625 -41.609375 L 85.140625 -41.609375 L 85.140625 -37.140625 L 11.890625 -37.140625 L 11.890625 0 L 114.421875 0 L 114.421875 -16.34375 L 39.828125 -16.34375 L 39.828125 -20.796875 Z M 112.9375 -20.796875 "/></g></g></g><g fill="#ffffff" fill-opacity="1"><g transform="translate(399.626215, 447.749997)"><g><path d="M 112.9375 -113.234375 L 112.9375 0 L 85 0 L 85 -23.78125 L 74.59375 -23.78125 C 71.125 -8.914062 60.375 -1.484375 42.34375 -1.484375 C 31.351562 -1.484375 23.035156 -4.304688 17.390625 -9.953125 C 11.742188 -15.597656 8.921875 -23.921875 8.921875 -34.921875 L 8.921875 -79.5 C 8.921875 -90.488281 11.742188 -98.804688 17.390625 -104.453125 C 23.035156 -110.109375 31.351562 -112.9375 42.34375 -112.9375 C 60.28125 -112.9375 71.03125 -105.601562 74.59375 -90.9375 L 85 -90.9375 L 85 -113.234375 Z M 47.546875 -85.4375 C 47.546875 -88.90625 45.8125 -90.640625 42.34375 -90.640625 C 38.875 -90.640625 37.140625 -88.90625 37.140625 -85.4375 L 37.140625 -28.96875 C 37.140625 -25.507812 38.875 -23.78125 42.34375 -23.78125 C 45.8125 -23.78125 47.546875 -25.507812 47.546875 -28.96875 Z M 85 -46.21875 L 85 -68.5 L 75.78125 -68.5 L 75.78125 -46.21875 Z M 85 -46.21875 "/></g></g></g><g fill="#ffffff" fill-opacity="1"><g transform="translate(514.042911, 447.749997)"><g><path d="M 60.78125 -108.46875 L 60.78125 -90.34375 L 8.921875 -90.34375 L 8.921875 -108.46875 L 22.734375 -108.46875 L 22.734375 -114.421875 L 47.703125 -114.421875 L 47.703125 -108.46875 Z M 89.453125 -70.578125 L 89.453125 -49.78125 L 64.484375 -49.78125 L 64.484375 -112.9375 L 89.453125 -112.9375 L 89.453125 -92.875 L 93.90625 -92.875 L 93.90625 -112.9375 L 118.875 -112.9375 L 118.875 -49.78125 L 93.90625 -49.78125 L 93.90625 -70.578125 Z M 60.03125 -68.203125 C 60.03125 -61.859375 57.898438 -56.878906 53.640625 -53.265625 C 49.378906 -49.648438 43.238281 -47.84375 35.21875 -47.84375 C 27.195312 -47.84375 21.054688 -49.648438 16.796875 -53.265625 C 12.535156 -56.878906 10.40625 -61.859375 10.40625 -68.203125 C 10.40625 -74.441406 12.554688 -79.441406 16.859375 -83.203125 C 21.171875 -86.972656 27.289062 -88.859375 35.21875 -88.859375 C 43.144531 -88.859375 49.257812 -86.972656 53.5625 -83.203125 C 57.875 -79.441406 60.03125 -74.441406 60.03125 -68.203125 Z M 31.5 -68.203125 C 31.5 -67.109375 31.84375 -66.210938 32.53125 -65.515625 C 33.226562 -64.828125 34.125 -64.484375 35.21875 -64.484375 C 36.300781 -64.484375 37.191406 -64.828125 37.890625 -65.515625 C 38.585938 -66.210938 38.9375 -67.109375 38.9375 -68.203125 C 38.9375 -69.296875 38.585938 -70.1875 37.890625 -70.875 C 37.191406 -71.570312 36.300781 -71.921875 35.21875 -71.921875 C 34.125 -71.921875 33.226562 -71.570312 32.53125 -70.875 C 31.84375 -70.1875 31.5 -69.296875 31.5 -68.203125 Z M 95.84375 -44.875 C 102.875 -44.875 108.519531 -42.816406 112.78125 -38.703125 C 117.039062 -34.597656 119.171875 -29.175781 119.171875 -22.4375 C 119.171875 -15.695312 117.039062 -10.269531 112.78125 -6.15625 C 108.519531 -2.050781 102.875 0 95.84375 0 L 41.453125 0 C 34.421875 0 28.773438 -2.050781 24.515625 -6.15625 C 20.253906 -10.269531 18.125 -15.695312 18.125 -22.4375 C 18.125 -29.175781 20.253906 -34.597656 24.515625 -38.703125 C 28.773438 -42.816406 34.421875 -44.875 41.453125 -44.875 Z M 88.40625 -19.609375 C 89.207031 -19.609375 89.878906 -19.878906 90.421875 -20.421875 C 90.960938 -20.972656 91.234375 -21.644531 91.234375 -22.4375 C 91.234375 -23.226562 90.960938 -23.894531 90.421875 -24.4375 C 89.878906 -24.988281 89.207031 -25.265625 88.40625 -25.265625 L 48.890625 -25.265625 C 48.097656 -25.265625 47.425781 -24.988281 46.875 -24.4375 C 46.332031 -23.894531 46.0625 -23.226562 46.0625 -22.4375 C 46.0625 -21.644531 46.332031 -20.972656 46.875 -20.421875 C 47.425781 -19.878906 48.097656 -19.609375 48.890625 -19.609375 Z M 88.40625 -19.609375 "/></g></g></g></svg>