<svg xmlns="http://www.w3.org/2000/svg" xmlns:xlink="http://www.w3.org/1999/xlink" width="1080" zoomAndPan="magnify" viewBox="0 0 810 809.999993" height="1080" preserveAspectRatio="xMidYMid meet" version="1.0"><defs><g/></defs><g fill="#000000" fill-opacity="1"><g transform="translate(20.334733, 442.874998)"><g><path d="M 100.3125 -100.578125 L 100.3125 0 L 75.5 0 L 75.5 -21.125 L 66.265625 -21.125 C 63.179688 -7.914062 53.632812 -1.3125 37.625 -1.3125 C 27.851562 -1.3125 20.457031 -3.820312 15.4375 -8.84375 C 10.425781 -13.863281 7.921875 -21.253906 7.921875 -31.015625 L 7.921875 -70.625 C 7.921875 -80.382812 10.425781 -87.769531 15.4375 -92.78125 C 20.457031 -97.800781 27.851562 -100.3125 37.625 -100.3125 C 53.550781 -100.3125 63.097656 -93.800781 66.265625 -80.78125 L 75.5 -80.78125 L 75.5 -100.578125 Z M 42.234375 -75.90625 C 42.234375 -78.976562 40.695312 -80.515625 37.625 -80.515625 C 34.539062 -80.515625 33 -78.976562 33 -75.90625 L 33 -25.734375 C 33 -22.660156 34.539062 -21.125 37.625 -21.125 C 40.695312 -21.125 42.234375 -22.660156 42.234375 -25.734375 Z M 75.5 -41.046875 L 75.5 -60.859375 L 67.3125 -60.859375 L 67.3125 -41.046875 Z M 75.5 -41.046875 "/></g></g></g><g fill="#000000" fill-opacity="1"><g transform="translate(121.9748, 442.874998)"><g><path d="M 53.984375 -96.359375 L 53.984375 -80.25 L 7.921875 -80.25 L 7.921875 -96.359375 L 20.203125 -96.359375 L 20.203125 -101.640625 L 42.375 -101.640625 L 42.375 -96.359375 Z M 79.46875 -62.703125 L 79.46875 -44.21875 L 57.28125 -44.21875 L 57.28125 -100.3125 L 79.46875 -100.3125 L 79.46875 -82.5 L 83.421875 -82.5 L 83.421875 -100.3125 L 105.59375 -100.3125 L 105.59375 -44.21875 L 83.421875 -44.21875 L 83.421875 -62.703125 Z M 53.328125 -60.59375 C 53.328125 -54.957031 51.429688 -50.53125 47.640625 -47.3125 C 43.859375 -44.101562 38.40625 -42.5 31.28125 -42.5 C 24.15625 -42.5 18.695312 -44.101562 14.90625 -47.3125 C 11.125 -50.53125 9.234375 -54.957031 9.234375 -60.59375 C 9.234375 -66.132812 11.144531 -70.578125 14.96875 -73.921875 C 18.800781 -77.265625 24.238281 -78.9375 31.28125 -78.9375 C 38.320312 -78.9375 43.753906 -77.265625 47.578125 -73.921875 C 51.410156 -70.578125 53.328125 -66.132812 53.328125 -60.59375 Z M 27.984375 -60.59375 C 27.984375 -59.625 28.289062 -58.828125 28.90625 -58.203125 C 29.519531 -57.585938 30.3125 -57.28125 31.28125 -57.28125 C 32.25 -57.28125 33.039062 -57.585938 33.65625 -58.203125 C 34.269531 -58.828125 34.578125 -59.625 34.578125 -60.59375 C 34.578125 -61.5625 34.269531 -62.351562 33.65625 -62.96875 C 33.039062 -63.582031 32.25 -63.890625 31.28125 -63.890625 C 30.3125 -63.890625 29.519531 -63.582031 28.90625 -62.96875 C 28.289062 -62.351562 27.984375 -61.5625 27.984375 -60.59375 Z M 85.140625 -39.859375 C 91.390625 -39.859375 96.40625 -38.03125 100.1875 -34.375 C 103.96875 -30.726562 105.859375 -25.914062 105.859375 -19.9375 C 105.859375 -13.945312 103.96875 -9.125 100.1875 -5.46875 C 96.40625 -1.820312 91.390625 0 85.140625 0 L 36.828125 0 C 30.578125 0 25.5625 -1.820312 21.78125 -5.46875 C 18 -9.125 16.109375 -13.945312 16.109375 -19.9375 C 16.109375 -25.914062 18 -30.726562 21.78125 -34.375 C 25.5625 -38.03125 30.578125 -39.859375 36.828125 -39.859375 Z M 78.546875 -17.421875 C 79.242188 -17.421875 79.832031 -17.660156 80.3125 -18.140625 C 80.800781 -18.628906 81.046875 -19.226562 81.046875 -19.9375 C 81.046875 -20.632812 80.800781 -21.222656 80.3125 -21.703125 C 79.832031 -22.191406 79.242188 -22.4375 78.546875 -22.4375 L 43.421875 -22.4375 C 42.722656 -22.4375 42.128906 -22.191406 41.640625 -21.703125 C 41.160156 -21.222656 40.921875 -20.632812 40.921875 -19.9375 C 40.921875 -19.226562 41.160156 -18.628906 41.640625 -18.140625 C 42.128906 -17.660156 42.722656 -17.421875 43.421875 -17.421875 Z M 78.546875 -17.421875 "/></g></g></g><g fill="#000000" fill-opacity="1"><g transform="translate(229.158865, 442.874998)"><g><path d="M 100.3125 -62.171875 L 110.21875 -62.171875 L 110.21875 -42.375 L 100.3125 -42.375 L 100.3125 0 L 75.5 0 L 75.5 -100.3125 L 100.3125 -100.3125 Z M 7.921875 -99.265625 L 64.28125 -99.265625 L 64.28125 -79.46875 C 64.28125 -64.238281 61.96875 -50.925781 57.34375 -39.53125 C 52.726562 -28.132812 46.257812 -19.351562 37.9375 -13.1875 C 29.625 -7.03125 20.054688 -3.953125 9.234375 -3.953125 L 6.59375 -23.765625 C 11.351562 -23.765625 16.21875 -25.4375 21.1875 -28.78125 C 26.15625 -32.125 30.269531 -37.488281 33.53125 -44.875 L 9.234375 -44.875 L 9.234375 -64.6875 L 38.546875 -64.6875 C 39.160156 -68.90625 39.46875 -73.832031 39.46875 -79.46875 L 7.921875 -79.46875 Z M 7.921875 -99.265625 "/></g></g></g><g fill="#000000" fill-opacity="1"><g transform="translate(332.778931, 442.874998)"><g><path d="M 35.375 -60.859375 L 35.375 -79.46875 L 100.71875 -79.46875 L 100.71875 -99.265625 L 10.5625 -99.265625 L 10.5625 -41.046875 L 100.71875 -41.046875 L 100.71875 -60.859375 Z M 7.921875 -23.765625 L 7.921875 -3.953125 L 103.359375 -3.953125 L 103.359375 -23.765625 Z M 7.921875 -23.765625 "/></g></g></g><g fill="#000000" fill-opacity="1"><g transform="translate(437.455012, 442.874998)"><g/></g></g><g fill="#000000" fill-opacity="1"><g transform="translate(470.455056, 442.874998)"><g><path d="M 100.578125 -100.3125 L 75.765625 -100.3125 L 75.765625 -32.46875 L 100.578125 -32.46875 L 100.578125 -58.21875 L 110.484375 -58.21875 L 110.484375 -78.015625 L 100.578125 -78.015625 Z M 7.921875 -39.734375 L 66.796875 -39.734375 L 66.796875 -99.265625 L 7.921875 -99.265625 Z M 32.734375 -59.53125 L 32.734375 -79.328125 L 41.96875 -79.328125 L 41.96875 -59.53125 Z M 10.5625 -33.796875 L 10.5625 0 L 100.578125 -0.125 L 100.578125 -19.9375 L 35.375 -19.9375 L 35.375 -33.796875 Z M 10.5625 -33.796875 "/></g></g></g><g fill="#000000" fill-opacity="1"><g transform="translate(574.339114, 442.874998)"><g><path d="M 10.5625 -68.765625 L 100.3125 -68.765625 L 100.3125 -81.578125 L 35.25 -81.578125 L 35.25 -85.9375 L 100.3125 -85.9375 L 100.3125 -99 L 10.5625 -99 Z M 7.921875 -50.296875 L 102.953125 -50.296875 L 102.953125 -64.6875 L 7.921875 -64.6875 Z M 100.3125 -16.765625 L 100.3125 -46.59375 L 10.5625 -46.59375 L 10.5625 -33.53125 L 75.5 -33.53125 L 75.5 -29.828125 L 10.5625 -29.828125 L 10.5625 0 L 101.640625 0 L 101.640625 -13.0625 L 35.25 -13.0625 L 35.25 -16.765625 Z M 100.3125 -16.765625 "/></g></g></g><g fill="#000000" fill-opacity="1"><g transform="translate(678.619184, 442.874998)"><g><path d="M 75.5 -100.3125 L 75.5 0 L 100.3125 0 L 100.3125 -100.3125 Z M 9.234375 -3.953125 C 20.054688 -3.953125 29.625 -7.03125 37.9375 -13.1875 C 46.257812 -19.351562 52.726562 -28.132812 57.34375 -39.53125 C 61.96875 -50.925781 64.28125 -64.238281 64.28125 -79.46875 L 64.28125 -99.265625 L 7.921875 -99.265625 L 7.921875 -79.46875 L 39.46875 -79.46875 C 39.46875 -65.820312 37.707031 -54.84375 34.1875 -46.53125 C 30.664062 -38.21875 26.394531 -32.34375 21.375 -28.90625 C 16.363281 -25.476562 11.4375 -23.765625 6.59375 -23.765625 Z M 9.234375 -3.953125 "/></g></g></g></svg>