<svg xmlns="http://www.w3.org/2000/svg" xmlns:xlink="http://www.w3.org/1999/xlink" width="1080" zoomAndPan="magnify" viewBox="0 0 810 809.999993" height="1080" preserveAspectRatio="xMidYMid meet" version="1.0"><defs><clipPath id="560971f08f"><path d="M 9.984375 9.984375 L 799.734375 9.984375 L 799.734375 799.734375 L 9.984375 799.734375 Z M 9.984375 9.984375 " clip-rule="nonzero"/></clipPath></defs><g clip-path="url(#560971f08f)"><path fill="#e51258" d="M 404.996094 800.003906 C 411.460938 800.003906 417.921875 799.847656 424.378906 799.53125 C 430.835938 799.210938 437.28125 798.738281 443.714844 798.105469 C 450.148438 797.46875 456.5625 796.679688 462.957031 795.730469 C 469.351562 794.78125 475.71875 793.675781 482.058594 792.414062 C 488.398438 791.15625 494.703125 789.738281 500.976562 788.167969 C 507.246094 786.597656 513.476562 784.875 519.660156 782.996094 C 525.847656 781.121094 531.984375 779.09375 538.070312 776.914062 C 544.15625 774.738281 550.1875 772.410156 556.160156 769.9375 C 562.132812 767.464844 568.039062 764.84375 573.882812 762.082031 C 579.726562 759.316406 585.5 756.410156 591.203125 753.363281 C 596.902344 750.316406 602.527344 747.128906 608.070312 743.808594 C 613.617188 740.484375 619.078125 737.027344 624.453125 733.433594 C 629.828125 729.84375 635.109375 726.121094 640.304688 722.269531 C 645.496094 718.417969 650.589844 714.445312 655.585938 710.34375 C 660.585938 706.242188 665.476562 702.019531 670.269531 697.679688 C 675.058594 693.335938 679.738281 688.882812 684.308594 684.308594 C 688.882812 679.738281 693.335938 675.058594 697.679688 670.269531 C 702.019531 665.476562 706.242188 660.585938 710.34375 655.585938 C 714.445312 650.589844 718.417969 645.496094 722.269531 640.304688 C 726.121094 635.109375 729.84375 629.828125 733.433594 624.453125 C 737.027344 619.078125 740.484375 613.617188 743.808594 608.070312 C 747.128906 602.527344 750.316406 596.902344 753.363281 591.203125 C 756.410156 585.5 759.316406 579.726562 762.082031 573.882812 C 764.84375 568.039062 767.464844 562.132812 769.9375 556.160156 C 772.410156 550.1875 774.738281 544.15625 776.914062 538.070312 C 779.09375 531.984375 781.121094 525.847656 782.996094 519.660156 C 784.875 513.476562 786.597656 507.246094 788.167969 500.976562 C 789.738281 494.703125 791.15625 488.398438 792.414062 482.058594 C 793.675781 475.71875 794.78125 469.351562 795.730469 462.957031 C 796.679688 456.5625 797.46875 450.148438 798.105469 443.714844 C 798.738281 437.28125 799.210938 430.835938 799.53125 424.378906 C 799.847656 417.921875 800.003906 411.460938 800.003906 404.996094 C 800.003906 398.53125 799.847656 392.070312 799.53125 385.613281 C 799.210938 379.15625 798.738281 372.710938 798.105469 366.277344 C 797.46875 359.84375 796.679688 353.429688 795.730469 347.035156 C 794.78125 340.640625 793.675781 334.273438 792.414062 327.933594 C 791.15625 321.59375 789.738281 315.289062 788.167969 309.015625 C 786.597656 302.746094 784.875 296.515625 782.996094 290.332031 C 781.121094 284.144531 779.09375 278.007812 776.914062 271.921875 C 774.738281 265.835938 772.410156 259.804688 769.9375 253.832031 C 767.464844 247.859375 764.84375 241.953125 762.082031 236.109375 C 759.316406 230.261719 756.410156 224.492188 753.363281 218.789062 C 750.316406 213.089844 747.128906 207.464844 743.808594 201.921875 C 740.484375 196.375 737.027344 190.914062 733.433594 185.539062 C 729.84375 180.164062 726.121094 174.882812 722.269531 169.6875 C 718.417969 164.496094 714.445312 159.402344 710.34375 154.40625 C 706.242188 149.40625 702.019531 144.515625 697.679688 139.722656 C 693.335938 134.933594 688.882812 130.253906 684.308594 125.683594 C 679.738281 121.109375 675.058594 116.65625 670.269531 112.3125 C 665.476562 107.972656 660.585938 103.75 655.585938 99.648438 C 650.589844 95.546875 645.496094 91.570312 640.304688 87.722656 C 635.109375 83.871094 629.828125 80.148438 624.453125 76.558594 C 619.078125 72.964844 613.617188 69.507812 608.070312 66.183594 C 602.527344 62.863281 596.902344 59.675781 591.203125 56.628906 C 585.5 53.582031 579.726562 50.675781 573.882812 47.910156 C 568.039062 45.148438 562.132812 42.527344 556.160156 40.054688 C 550.1875 37.582031 544.15625 35.253906 538.070312 33.078125 C 531.984375 30.898438 525.847656 28.871094 519.660156 26.996094 C 513.476562 25.117188 507.246094 23.394531 500.976562 21.824219 C 494.703125 20.253906 488.398438 18.835938 482.058594 17.578125 C 475.71875 16.316406 469.351562 15.210938 462.957031 14.261719 C 456.5625 13.3125 450.148438 12.523438 443.714844 11.886719 C 437.28125 11.253906 430.835938 10.78125 424.378906 10.460938 C 417.921875 10.144531 411.460938 9.984375 404.996094 9.984375 C 398.53125 9.984375 392.070312 10.144531 385.613281 10.460938 C 379.15625 10.78125 372.710938 11.253906 366.277344 11.886719 C 359.84375 12.523438 353.429688 13.3125 347.035156 14.261719 C 340.640625 15.210938 334.273438 16.316406 327.933594 17.578125 C 321.59375 18.835938 315.289062 20.253906 309.015625 21.824219 C 302.746094 23.394531 296.515625 25.117188 290.332031 26.996094 C 284.144531 28.871094 278.007812 30.898438 271.921875 33.078125 C 265.835938 35.253906 259.804688 37.582031 253.832031 40.054688 C 247.859375 42.527344 241.953125 45.148438 236.109375 47.910156 C 230.261719 50.675781 224.492188 53.582031 218.789062 56.628906 C 213.089844 59.675781 207.464844 62.863281 201.921875 66.183594 C 196.375 69.507812 190.914062 72.964844 185.539062 76.558594 C 180.164062 80.148438 174.882812 83.871094 169.6875 87.722656 C 164.496094 91.570312 159.402344 95.546875 154.40625 99.648438 C 149.40625 103.75 144.511719 107.972656 139.722656 112.3125 C 134.933594 116.65625 130.253906 121.109375 125.683594 125.683594 C 121.109375 130.253906 116.65625 134.933594 112.3125 139.722656 C 107.972656 144.515625 103.75 149.40625 99.648438 154.40625 C 95.546875 159.402344 91.570312 164.496094 87.722656 169.6875 C 83.871094 174.882812 80.148438 180.164062 76.558594 185.539062 C 72.964844 190.914062 69.507812 196.375 66.183594 201.921875 C 62.863281 207.464844 59.675781 213.089844 56.628906 218.789062 C 53.582031 224.492188 50.675781 230.261719 47.910156 236.109375 C 45.148438 241.953125 42.527344 247.859375 40.054688 253.832031 C 37.582031 259.804688 35.253906 265.835938 33.078125 271.921875 C 30.898438 278.007812 28.871094 284.144531 26.996094 290.332031 C 25.117188 296.515625 23.394531 302.746094 21.824219 309.015625 C 20.253906 315.289062 18.835938 321.59375 17.578125 327.933594 C 16.316406 334.273438 15.210938 340.640625 14.261719 347.035156 C 13.3125 353.429688 12.523438 359.84375 11.886719 366.277344 C 11.253906 372.710938 10.78125 379.15625 10.460938 385.613281 C 10.144531 392.070312 9.984375 398.53125 9.984375 404.996094 C 9.984375 411.460938 10.144531 417.921875 10.460938 424.378906 C 10.78125 430.835938 11.253906 437.28125 11.886719 443.714844 C 12.523438 450.148438 13.3125 456.5625 14.261719 462.957031 C 15.210938 469.351562 16.316406 475.71875 17.578125 482.058594 C 18.835938 488.398438 20.253906 494.703125 21.824219 500.976562 C 23.394531 507.246094 25.117188 513.476562 26.996094 519.660156 C 28.871094 525.847656 30.898438 531.984375 33.078125 538.070312 C 35.253906 544.15625 37.582031 550.1875 40.054688 556.160156 C 42.527344 562.132812 45.148438 568.039062 47.910156 573.882812 C 50.675781 579.726562 53.582031 585.5 56.628906 591.203125 C 59.675781 596.902344 62.863281 602.527344 66.183594 608.070312 C 69.507812 613.617188 72.964844 619.078125 76.558594 624.453125 C 80.148438 629.828125 83.871094 635.109375 87.722656 640.304688 C 91.570312 645.496094 95.546875 650.589844 99.648438 655.585938 C 103.75 660.585938 107.972656 665.476562 112.3125 670.269531 C 116.65625 675.058594 121.109375 679.738281 125.683594 684.308594 C 130.253906 688.882812 134.933594 693.335938 139.722656 697.679688 C 144.511719 702.019531 149.40625 706.242188 154.40625 710.34375 C 159.402344 714.445312 164.496094 718.417969 169.6875 722.269531 C 174.882812 726.121094 180.164062 729.84375 185.539062 733.433594 C 190.914062 737.027344 196.375 740.484375 201.921875 743.808594 C 207.464844 747.128906 213.089844 750.316406 218.789062 753.363281 C 224.492188 756.410156 230.261719 759.316406 236.109375 762.082031 C 241.953125 764.84375 247.859375 767.464844 253.832031 769.9375 C 259.804688 772.410156 265.835938 774.738281 271.921875 776.914062 C 278.007812 779.09375 284.144531 781.121094 290.332031 782.996094 C 296.515625 784.875 302.746094 786.597656 309.015625 788.167969 C 315.289062 789.738281 321.59375 791.15625 327.933594 792.414062 C 334.273438 793.675781 340.640625 794.78125 347.035156 795.730469 C 353.429688 796.679688 359.84375 797.46875 366.277344 798.105469 C 372.710938 798.738281 379.15625 799.210938 385.613281 799.53125 C 392.070312 799.847656 398.53125 800.003906 404.996094 800.003906 Z M 286.492188 365.496094 L 523.5 365.496094 C 524.792969 365.496094 526.082031 365.558594 527.371094 365.683594 C 528.660156 365.8125 529.9375 366 531.207031 366.253906 C 532.472656 366.507812 533.726562 366.820312 534.964844 367.195312 C 536.203125 367.570312 537.421875 368.007812 538.617188 368.5 C 539.808594 368.996094 540.980469 369.550781 542.121094 370.160156 C 543.261719 370.769531 544.367188 371.433594 545.445312 372.152344 C 546.519531 372.871094 547.558594 373.640625 548.558594 374.460938 C 549.558594 375.28125 550.515625 376.148438 551.429688 377.066406 C 552.34375 377.980469 553.214844 378.9375 554.035156 379.9375 C 554.855469 380.9375 555.625 381.976562 556.34375 383.050781 C 557.0625 384.125 557.726562 385.234375 558.335938 386.375 C 558.945312 387.515625 559.496094 388.683594 559.992188 389.878906 C 560.488281 391.074219 560.921875 392.292969 561.300781 393.53125 C 561.675781 394.765625 561.988281 396.019531 562.242188 397.289062 C 562.492188 398.558594 562.683594 399.835938 562.808594 401.125 C 562.9375 402.410156 563 403.703125 563 404.996094 C 563 406.289062 562.9375 407.582031 562.808594 408.867188 C 562.683594 410.15625 562.492188 411.433594 562.242188 412.703125 C 561.988281 413.972656 561.675781 415.222656 561.300781 416.460938 C 560.921875 417.699219 560.488281 418.917969 559.992188 420.113281 C 559.496094 421.308594 558.945312 422.476562 558.335938 423.617188 C 557.726562 424.757812 557.0625 425.867188 556.34375 426.941406 C 555.625 428.015625 554.855469 429.054688 554.035156 430.054688 C 553.214844 431.054688 552.34375 432.011719 551.429688 432.925781 C 550.515625 433.84375 549.558594 434.710938 548.558594 435.53125 C 547.558594 436.351562 546.519531 437.121094 545.445312 437.839844 C 544.367188 438.558594 543.261719 439.222656 542.121094 439.832031 C 540.980469 440.441406 539.808594 440.996094 538.617188 441.488281 C 537.421875 441.984375 536.203125 442.421875 534.964844 442.796875 C 533.726562 443.171875 532.472656 443.484375 531.207031 443.738281 C 529.9375 443.992188 528.660156 444.179688 527.371094 444.308594 C 526.082031 444.433594 524.792969 444.496094 523.5 444.496094 L 286.492188 444.496094 C 285.199219 444.496094 283.910156 444.433594 282.621094 444.308594 C 281.332031 444.179688 280.054688 443.992188 278.785156 443.738281 C 277.519531 443.484375 276.265625 443.171875 275.027344 442.796875 C 273.789062 442.421875 272.570312 441.984375 271.375 441.488281 C 270.179688 440.996094 269.011719 440.441406 267.871094 439.832031 C 266.730469 439.222656 265.625 438.558594 264.546875 437.839844 C 263.472656 437.121094 262.433594 436.351562 261.433594 435.53125 C 260.433594 434.710938 259.476562 433.84375 258.5625 432.925781 C 257.648438 432.011719 256.777344 431.054688 255.957031 430.054688 C 255.136719 429.054688 254.367188 428.015625 253.648438 426.941406 C 252.929688 425.867188 252.265625 424.757812 251.65625 423.617188 C 251.046875 422.476562 250.492188 421.308594 250 420.113281 C 249.503906 418.917969 249.070312 417.699219 248.691406 416.460938 C 248.316406 415.222656 248.003906 413.972656 247.75 412.703125 C 247.5 411.433594 247.308594 410.15625 247.183594 408.867188 C 247.054688 407.582031 246.992188 406.289062 246.992188 404.996094 C 246.992188 403.703125 247.054688 402.410156 247.183594 401.125 C 247.308594 399.835938 247.5 398.558594 247.75 397.289062 C 248.003906 396.019531 248.316406 394.765625 248.691406 393.53125 C 249.070312 392.292969 249.503906 391.074219 250 389.878906 C 250.492188 388.683594 251.046875 387.515625 251.65625 386.375 C 252.265625 385.234375 252.929688 384.125 253.648438 383.050781 C 254.367188 381.976562 255.136719 380.9375 255.957031 379.9375 C 256.777344 378.9375 257.648438 377.980469 258.5625 377.066406 C 259.476562 376.148438 260.433594 375.28125 261.433594 374.460938 C 262.433594 373.640625 263.472656 372.871094 264.546875 372.152344 C 265.625 371.433594 266.730469 370.769531 267.871094 370.160156 C 269.011719 369.550781 270.179688 368.996094 271.375 368.5 C 272.570312 368.007812 273.789062 367.570312 275.027344 367.195312 C 276.265625 366.820312 277.519531 366.507812 278.785156 366.253906 C 280.054688 366 281.332031 365.8125 282.621094 365.683594 C 283.910156 365.558594 285.199219 365.496094 286.492188 365.496094 Z M 286.492188 365.496094 " fill-opacity="1" fill-rule="nonzero"/></g></svg>