<svg xmlns="http://www.w3.org/2000/svg" xmlns:xlink="http://www.w3.org/1999/xlink" width="1080" zoomAndPan="magnify" viewBox="0 0 810 809.999993" height="1080" preserveAspectRatio="xMidYMid meet" version="1.0"><defs><clipPath id="d6759331dc"><path d="M 17.691406 193.433594 L 792.441406 193.433594 L 792.441406 616.433594 L 17.691406 616.433594 Z M 17.691406 193.433594 " clip-rule="nonzero"/></clipPath></defs><g clip-path="url(#d6759331dc)"><path fill="#ffffff" d="M 21.789062 226.257812 C 38.304688 239.097656 55.171875 252.078125 71.472656 264.609375 C 92.960938 281.125 115.167969 298.203125 136.851562 315.222656 C 153.8125 328.550781 169.902344 342.675781 187.660156 358.453125 C 191.292969 361.679688 194.324219 366.984375 195.78125 372.65625 C 199.140625 385.734375 201.628906 397.664062 203.398438 409.144531 C 208.429688 441.667969 213.304688 474.777344 218.027344 506.796875 C 219.328125 515.675781 220.648438 524.574219 221.972656 533.453125 C 222.863281 539.554688 223.71875 545.753906 224.554688 551.738281 C 226.148438 563.316406 227.800781 575.304688 229.859375 586.980469 C 231.609375 596.910156 236.195312 601.941406 243.5 601.941406 C 246.414062 601.941406 249.773438 601.164062 253.484375 599.667969 C 256.304688 598.523438 259.101562 597.125 261.800781 595.492188 C 280.84375 584.125 299.863281 572.738281 318.886719 561.335938 C 331.570312 553.738281 344.277344 546.121094 356.984375 538.523438 C 358.910156 537.378906 360.871094 536.308594 362.949219 535.203125 C 363.941406 534.660156 364.992188 534.113281 366.078125 533.511719 L 368.058594 532.425781 L 369.925781 533.6875 C 393.511719 549.5625 414.980469 568.640625 435.753906 587.078125 C 446.710938 596.8125 458.019531 606.859375 469.65625 616.457031 C 480.554688 610.121094 488.871094 599.941406 496.253906 590.867188 C 526.625 553.621094 559.421875 514.609375 602.59375 464.324219 C 634.164062 427.542969 665.425781 389.40625 695.660156 352.507812 C 711.511719 333.136719 727.929688 313.125 744.191406 293.539062 C 748.371094 288.507812 752.976562 283.765625 757.425781 279.203125 C 760.882812 275.644531 764.476562 271.953125 767.78125 268.203125 C 780.351562 253.925781 789.386719 240.925781 792.300781 224.800781 C 780.972656 223.089844 769.625 221.300781 758.628906 219.59375 C 731.078125 215.277344 705.0625 211.199219 678.367188 207.855469 C 602.574219 198.355469 526.527344 193.539062 452.324219 193.539062 C 436.003906 193.539062 419.488281 193.769531 403.265625 194.238281 C 293.414062 197.34375 197.488281 200.6875 109.980469 204.4375 C 89.40625 205.3125 68.480469 208.535156 48.234375 211.664062 C 42.191406 212.597656 35.933594 213.570312 29.777344 214.445312 C 26.9375 214.851562 23.929688 216.464844 20.449219 218.328125 C 19.574219 218.796875 18.664062 219.28125 17.691406 219.785156 C 17.925781 220.214844 18.136719 220.640625 18.351562 221.03125 C 19.59375 223.417969 20.585938 225.304688 21.789062 226.257812 Z M 235.066406 521.679688 C 232.539062 500.949219 229.605469 481.035156 226.75 461.757812 C 221.972656 429.410156 217.445312 398.867188 215.25 367.175781 L 215.035156 364.128906 L 233.164062 359.289062 C 358.636719 325.734375 488.367188 291.054688 619.960938 274.226562 L 662.046875 265.949219 L 615.203125 283.824219 C 610.753906 285.515625 606.285156 287.1875 601.835938 288.878906 C 581.277344 296.667969 560.371094 304.519531 540.144531 312.09375 C 490.796875 330.59375 439.753906 349.730469 390.035156 369.644531 C 368.214844 378.386719 346.726562 389.171875 325.9375 399.625 C 314.960938 405.140625 303.632812 410.835938 292.34375 416.179688 C 272.332031 425.660156 261.644531 439.570312 258.691406 459.953125 C 256.925781 472.171875 254.050781 484.335938 251.269531 496.128906 C 250.492188 499.433594 249.714844 502.734375 248.957031 506.058594 C 248.355469 508.679688 247.289062 511.070312 245.65625 514.683594 C 244.722656 516.765625 243.558594 519.328125 242.160156 522.671875 L 236.757812 535.589844 Z M 341.773438 531.878906 C 335.089844 535.550781 329.335938 538.71875 323.566406 541.964844 L 319.738281 544.101562 C 312.589844 548.105469 305.1875 552.242188 298.074219 556.515625 C 293.664062 559.160156 289.234375 562.015625 284.941406 564.753906 C 281.09375 567.222656 277.132812 569.765625 273.148438 572.175781 C 271.011719 573.476562 268.953125 574.972656 266.753906 576.566406 C 261.0625 580.707031 254.613281 585.371094 245.1875 587.585938 L 239.011719 589.042969 L 280.085938 448.722656 L 356.207031 523.933594 C 356.226562 523.914062 344.921875 530.152344 341.773438 531.878906 Z M 722.550781 284.699219 C 717.710938 290.703125 712.699219 296.902344 707.277344 302.710938 C 670.476562 342.074219 635.679688 384.371094 602.027344 425.289062 C 581.355469 450.433594 559.964844 476.449219 538.300781 501.53125 C 533.230469 507.398438 528.566406 513.925781 524.078125 520.242188 L 522.195312 522.882812 C 510.515625 539.1875 498.703125 555.816406 487.296875 571.90625 C 482.789062 578.257812 471.851562 593.644531 471.851562 593.644531 L 468.957031 592.054688 C 468.511719 591.820312 468.0625 591.605469 467.636719 591.410156 C 466.351562 590.828125 464.914062 590.167969 463.710938 588.925781 C 455.550781 580.589844 447.332031 572.058594 439.367188 563.820312 C 422.113281 545.964844 404.296875 527.507812 386.246094 509.90625 C 377.621094 501.492188 367.535156 494.089844 357.78125 486.921875 C 354.578125 484.570312 351.253906 482.140625 348.027344 479.691406 C 340.507812 474 332.777344 468.328125 325.296875 462.847656 C 317.816406 457.347656 310.0625 451.675781 302.523438 445.964844 C 300.195312 444.195312 298.445312 442.019531 296.40625 439.492188 C 295.414062 438.269531 294.402344 437.007812 293.21875 435.648438 L 290.148438 432.148438 L 294.269531 429.953125 C 295.957031 429.058594 297.433594 428.207031 298.8125 427.429688 C 301.59375 425.835938 304 424.476562 306.644531 423.425781 C 316.535156 419.558594 326.597656 415.710938 336.351562 412 C 346.941406 407.960938 357.878906 403.78125 368.585938 399.585938 C 381.503906 394.515625 394.679688 389.445312 407.425781 384.546875 C 439.113281 372.363281 471.871094 359.753906 503.523438 346.097656 C 555.125 323.8125 608.925781 305.121094 660.957031 287.03125 C 678.328125 280.988281 696.28125 274.753906 713.882812 268.476562 C 714.253906 268.339844 748.796875 255.128906 748.796875 255.128906 C 748.796875 255.128906 724.707031 282.039062 722.550781 284.699219 Z M 55.382812 223.1875 C 84.179688 219.496094 108.171875 216.679688 132.90625 216.679688 L 133.878906 216.679688 C 170.386719 216.792969 207.515625 216.8125 243.421875 216.832031 C 325.585938 216.871094 410.550781 216.929688 494.117188 218.078125 C 537.019531 218.660156 580.558594 221.496094 622.664062 224.253906 C 637.894531 225.246094 653.652344 226.277344 669.15625 227.1875 C 676.015625 227.597656 737.316406 236.496094 737.316406 236.496094 L 698.222656 242.675781 C 689.285156 243.742188 680.210938 244.792969 671.429688 245.78125 C 651.359375 248.054688 630.628906 250.425781 610.363281 253.457031 C 596.316406 255.554688 582.09375 258.277344 568.320312 260.898438 C 555.085938 263.425781 541.429688 266.027344 527.867188 268.105469 L 522.816406 268.882812 C 472.707031 276.539062 420.910156 284.449219 371.847656 300.769531 C 357.277344 305.625 342.042969 309.027344 327.316406 312.308594 L 326.152344 312.5625 C 301.164062 318.136719 276.101562 326.046875 251.621094 336.070312 C 242.179688 339.9375 232.40625 343.355469 222.941406 346.679688 C 218.609375 348.195312 214.257812 349.730469 209.925781 351.304688 L 207.925781 352.023438 L 206.292969 350.664062 C 204.40625 349.089844 202.582031 347.613281 200.8125 346.195312 C 197.082031 343.183594 193.566406 340.34375 190.300781 337.179688 C 173.785156 321.109375 154.550781 305.46875 131.507812 289.402344 C 113.75 277.007812 96.128906 263.832031 79.085938 251.085938 C 73.355469 246.792969 67.605469 242.5 61.855469 238.226562 C 60.046875 236.882812 58.589844 235.273438 56.726562 233.25 C 55.753906 232.183594 54.625 230.9375 53.226562 229.5 L 48.078125 224.195312 Z M 55.382812 223.1875 " fill-opacity="1" fill-rule="nonzero"/></g></svg>