<svg xmlns="http://www.w3.org/2000/svg" xmlns:xlink="http://www.w3.org/1999/xlink" width="1080" zoomAndPan="magnify" viewBox="0 0 810 809.999993" height="1080" preserveAspectRatio="xMidYMid meet" version="1.0"><defs><g/></defs><g fill="#000000" fill-opacity="1"><g transform="translate(20.334733, 437.624998)"><g><path d="M 85.875 -86.109375 L 85.875 0 L 64.640625 0 L 64.640625 -18.078125 L 56.71875 -18.078125 C 54.082031 -6.773438 45.910156 -1.125 32.203125 -1.125 C 23.835938 -1.125 17.507812 -3.269531 13.21875 -7.5625 C 8.925781 -11.863281 6.78125 -18.195312 6.78125 -26.5625 L 6.78125 -60.453125 C 6.78125 -68.816406 8.925781 -75.144531 13.21875 -79.4375 C 17.507812 -83.726562 23.835938 -85.875 32.203125 -85.875 C 45.835938 -85.875 54.007812 -80.300781 56.71875 -69.15625 L 64.640625 -69.15625 L 64.640625 -86.109375 Z M 36.15625 -64.96875 C 36.15625 -67.613281 34.835938 -68.9375 32.203125 -68.9375 C 29.566406 -68.9375 28.25 -67.613281 28.25 -64.96875 L 28.25 -22.03125 C 28.25 -19.394531 29.566406 -18.078125 32.203125 -18.078125 C 34.835938 -18.078125 36.15625 -19.394531 36.15625 -22.03125 Z M 64.640625 -35.140625 L 64.640625 -52.09375 L 57.625 -52.09375 L 57.625 -35.140625 Z M 64.640625 -35.140625 "/></g></g></g><g fill="#000000" fill-opacity="1"><g transform="translate(107.338064, 437.624998)"><g><path d="M 46.21875 -82.484375 L 46.21875 -68.703125 L 6.78125 -68.703125 L 6.78125 -82.484375 L 17.28125 -82.484375 L 17.28125 -87.015625 L 36.265625 -87.015625 L 36.265625 -82.484375 Z M 68.03125 -53.671875 L 68.03125 -37.859375 L 49.046875 -37.859375 L 49.046875 -85.875 L 68.03125 -85.875 L 68.03125 -70.625 L 71.421875 -70.625 L 71.421875 -85.875 L 90.40625 -85.875 L 90.40625 -37.859375 L 71.421875 -37.859375 L 71.421875 -53.671875 Z M 45.65625 -51.859375 C 45.65625 -47.046875 44.035156 -43.265625 40.796875 -40.515625 C 37.554688 -37.765625 32.882812 -36.390625 26.78125 -36.390625 C 20.675781 -36.390625 16.003906 -37.765625 12.765625 -40.515625 C 9.523438 -43.265625 7.90625 -47.046875 7.90625 -51.859375 C 7.90625 -56.609375 9.539062 -60.414062 12.8125 -63.28125 C 16.09375 -66.144531 20.75 -67.578125 26.78125 -67.578125 C 32.8125 -67.578125 37.460938 -66.144531 40.734375 -63.28125 C 44.015625 -60.414062 45.65625 -56.609375 45.65625 -51.859375 Z M 23.953125 -51.859375 C 23.953125 -51.035156 24.210938 -50.359375 24.734375 -49.828125 C 25.265625 -49.304688 25.945312 -49.046875 26.78125 -49.046875 C 27.613281 -49.046875 28.289062 -49.304688 28.8125 -49.828125 C 29.34375 -50.359375 29.609375 -51.035156 29.609375 -51.859375 C 29.609375 -52.691406 29.34375 -53.367188 28.8125 -53.890625 C 28.289062 -54.421875 27.613281 -54.6875 26.78125 -54.6875 C 25.945312 -54.6875 25.265625 -54.421875 24.734375 -53.890625 C 24.210938 -53.367188 23.953125 -52.691406 23.953125 -51.859375 Z M 72.890625 -34.125 C 78.234375 -34.125 82.523438 -32.5625 85.765625 -29.4375 C 89.003906 -26.3125 90.625 -22.1875 90.625 -17.0625 C 90.625 -11.9375 89.003906 -7.8125 85.765625 -4.6875 C 82.523438 -1.5625 78.234375 0 72.890625 0 L 31.53125 0 C 26.175781 0 21.878906 -1.5625 18.640625 -4.6875 C 15.398438 -7.8125 13.78125 -11.9375 13.78125 -17.0625 C 13.78125 -22.1875 15.398438 -26.3125 18.640625 -29.4375 C 21.878906 -32.5625 26.175781 -34.125 31.53125 -34.125 Z M 67.234375 -14.921875 C 67.835938 -14.921875 68.34375 -15.125 68.75 -15.53125 C 69.164062 -15.945312 69.375 -16.457031 69.375 -17.0625 C 69.375 -17.664062 69.164062 -18.171875 68.75 -18.578125 C 68.34375 -18.992188 67.835938 -19.203125 67.234375 -19.203125 L 37.171875 -19.203125 C 36.566406 -19.203125 36.054688 -18.992188 35.640625 -18.578125 C 35.234375 -18.171875 35.03125 -17.664062 35.03125 -17.0625 C 35.03125 -16.457031 35.234375 -15.945312 35.640625 -15.53125 C 36.054688 -15.125 36.566406 -14.921875 37.171875 -14.921875 Z M 67.234375 -14.921875 "/></g></g></g><g fill="#000000" fill-opacity="1"><g transform="translate(199.087066, 437.624998)"><g/></g></g><g fill="#000000" fill-opacity="1"><g transform="translate(227.33447, 437.624998)"><g><path d="M 87.015625 -85.875 L 87.015625 -38.421875 L 65.875 -38.421875 L 65.875 -44.96875 L 55.140625 -44.96875 L 55.140625 -59.65625 L 65.875 -59.65625 L 65.875 -64.515625 L 55.140625 -64.515625 L 55.140625 -70.40625 C 53.785156 -61.664062 51.015625 -54.863281 46.828125 -50 C 42.648438 -45.144531 37.394531 -41.8125 31.0625 -40 C 24.738281 -38.195312 17.019531 -37.296875 7.90625 -37.296875 L 5.65625 -54.234375 C 13.332031 -54.234375 19.804688 -55.457031 25.078125 -57.90625 C 30.359375 -60.351562 33 -63.726562 33 -68.03125 L 7.90625 -68.03125 L 7.90625 -84.75 L 56.15625 -84.75 C 56.15625 -82.257812 56.117188 -80.414062 56.046875 -79.21875 L 65.875 -79.21875 L 65.875 -85.875 Z M 69.265625 -34.796875 C 74.390625 -34.796875 78.628906 -33.15625 81.984375 -29.875 C 85.335938 -26.601562 87.015625 -22.445312 87.015625 -17.40625 C 87.015625 -12.351562 85.335938 -8.1875 81.984375 -4.90625 C 78.628906 -1.632812 74.390625 0 69.265625 0 L 27.90625 0 C 22.789062 0 18.554688 -1.632812 15.203125 -4.90625 C 11.847656 -8.1875 10.171875 -12.351562 10.171875 -17.40625 C 10.171875 -22.445312 11.847656 -26.601562 15.203125 -29.875 C 18.554688 -33.15625 22.789062 -34.796875 27.90625 -34.796875 Z M 63.625 -15.25 C 64.21875 -15.25 64.722656 -15.457031 65.140625 -15.875 C 65.554688 -16.289062 65.765625 -16.800781 65.765625 -17.40625 C 65.765625 -18.007812 65.554688 -18.515625 65.140625 -18.921875 C 64.722656 -19.335938 64.21875 -19.546875 63.625 -19.546875 L 33.5625 -19.546875 C 32.957031 -19.546875 32.445312 -19.335938 32.03125 -18.921875 C 31.613281 -18.515625 31.40625 -18.007812 31.40625 -17.40625 C 31.40625 -16.800781 31.613281 -16.289062 32.03125 -15.875 C 32.445312 -15.457031 32.957031 -15.25 33.5625 -15.25 Z M 63.625 -15.25 "/></g></g></g><g fill="#000000" fill-opacity="1"><g transform="translate(315.467729, 437.624998)"><g><path d="M 88.140625 -20.34375 L 58.078125 -20.34375 L 58.078125 -25.421875 L 87.015625 -25.421875 L 87.015625 -42.375 L 29.046875 -42.375 L 29.046875 -46.5625 L 85.875 -46.5625 L 85.875 -84.75 L 9.046875 -84.75 L 9.046875 -67.796875 L 65.765625 -67.796875 L 65.765625 -63.5 L 9.046875 -63.5 L 9.046875 -25.421875 L 36.84375 -25.421875 L 36.84375 -20.34375 L 6.78125 -20.34375 L 6.78125 -3.390625 L 88.140625 -3.390625 Z M 88.140625 -20.34375 "/></g></g></g><g fill="#000000" fill-opacity="1"><g transform="translate(404.730908, 437.624998)"><g/></g></g><g fill="#000000" fill-opacity="1"><g transform="translate(432.978312, 437.624998)"><g><path d="M 64.640625 -85.875 L 85.875 -85.875 L 85.875 0 L 64.640625 0 L 64.640625 -35.140625 L 51.859375 -35.140625 L 51.859375 -52.09375 L 64.640625 -52.09375 Z M 42.03125 -64.515625 C 42.03125 -55.554688 42.785156 -47.851562 44.296875 -41.40625 C 45.804688 -34.96875 47.878906 -30.035156 50.515625 -26.609375 C 53.148438 -23.179688 56.160156 -21.28125 59.546875 -20.90625 L 55.03125 -3.390625 C 50.957031 -3.691406 46.882812 -5.160156 42.8125 -7.796875 C 38.75 -10.429688 35.175781 -14.3125 32.09375 -19.4375 C 28.925781 -14.3125 25.304688 -10.429688 21.234375 -7.796875 C 17.171875 -5.160156 13.109375 -3.691406 9.046875 -3.390625 L 4.515625 -20.90625 C 10.546875 -21.4375 14.972656 -25.316406 17.796875 -32.546875 C 20.617188 -39.773438 22.03125 -50.429688 22.03125 -64.515625 L 22.03125 -67.796875 L 6.78125 -67.796875 L 6.78125 -84.75 L 57.171875 -84.75 L 57.171875 -67.796875 L 42.03125 -67.796875 Z M 42.03125 -64.515625 "/></g></g></g><g fill="#000000" fill-opacity="1"><g transform="translate(519.98165, 437.624998)"><g><path d="M 85.203125 -71.1875 L 93.671875 -71.1875 L 93.671875 -54.234375 L 85.203125 -54.234375 L 85.203125 -38.1875 L 64.078125 -38.1875 L 64.078125 -85.875 L 85.203125 -85.875 Z M 31.53125 -48.140625 C 28.363281 -44.972656 24.742188 -42.5625 20.671875 -40.90625 C 16.609375 -39.25 12.351562 -38.421875 7.90625 -38.421875 L 4.515625 -54.234375 C 8.128906 -54.234375 11.347656 -55.34375 14.171875 -57.5625 C 17.003906 -59.789062 18.945312 -63.28125 20 -68.03125 L 6.21875 -68.03125 L 6.21875 -84.96875 L 56.609375 -84.96875 L 56.609375 -68.03125 L 42.9375 -68.03125 C 43.988281 -63.28125 45.925781 -59.789062 48.75 -57.5625 C 51.582031 -55.34375 54.804688 -54.234375 58.421875 -54.234375 L 55.03125 -38.421875 C 50.582031 -38.421875 46.320312 -39.25 42.25 -40.90625 C 38.1875 -42.5625 34.613281 -44.972656 31.53125 -48.140625 Z M 67.578125 -34.796875 C 72.703125 -34.796875 76.9375 -33.15625 80.28125 -29.875 C 83.632812 -26.601562 85.3125 -22.445312 85.3125 -17.40625 C 85.3125 -12.351562 83.632812 -8.1875 80.28125 -4.90625 C 76.9375 -1.632812 72.703125 0 67.578125 0 L 26.21875 0 C 21.09375 0 16.851562 -1.632812 13.5 -4.90625 C 10.144531 -8.1875 8.46875 -12.351562 8.46875 -17.40625 C 8.46875 -22.445312 10.144531 -26.601562 13.5 -29.875 C 16.851562 -33.15625 21.09375 -34.796875 26.21875 -34.796875 Z M 61.921875 -15.25 C 62.523438 -15.25 63.035156 -15.457031 63.453125 -15.875 C 63.867188 -16.289062 64.078125 -16.800781 64.078125 -17.40625 C 64.078125 -18.007812 63.867188 -18.515625 63.453125 -18.921875 C 63.035156 -19.335938 62.523438 -19.546875 61.921875 -19.546875 L 31.859375 -19.546875 C 31.265625 -19.546875 30.757812 -19.335938 30.34375 -18.921875 C 29.925781 -18.515625 29.71875 -18.007812 29.71875 -17.40625 C 29.71875 -16.800781 29.925781 -16.289062 30.34375 -15.875 C 30.757812 -15.457031 31.265625 -15.25 31.859375 -15.25 Z M 61.921875 -15.25 "/></g></g></g><g fill="#000000" fill-opacity="1"><g transform="translate(608.001909, 437.624998)"><g><path d="M 42.59375 -79.09375 L 42.59375 -88.140625 L 21.359375 -88.140625 L 21.359375 -79.09375 L 6.78125 -79.09375 L 6.78125 -61.921875 L 57.171875 -61.921875 L 57.171875 -79.09375 Z M 85.875 -85.875 L 64.640625 -85.875 L 64.640625 0 L 85.875 0 L 85.875 -35.140625 L 94.359375 -35.140625 L 94.359375 -52.09375 L 85.875 -52.09375 Z M 7.90625 -34.46875 C 7.90625 -39.289062 8.921875 -43.523438 10.953125 -47.171875 C 12.992188 -50.828125 15.835938 -53.671875 19.484375 -55.703125 C 23.140625 -57.742188 27.378906 -58.765625 32.203125 -58.765625 C 37.023438 -58.765625 41.257812 -57.742188 44.90625 -55.703125 C 48.5625 -53.671875 51.40625 -50.828125 53.4375 -47.171875 C 55.476562 -43.523438 56.5 -39.289062 56.5 -34.46875 L 56.5 -26.5625 C 56.5 -21.738281 55.476562 -17.5 53.4375 -13.84375 C 51.40625 -10.1875 48.5625 -7.34375 44.90625 -5.3125 C 41.257812 -3.28125 37.023438 -2.265625 32.203125 -2.265625 C 27.378906 -2.265625 23.140625 -3.28125 19.484375 -5.3125 C 15.835938 -7.34375 12.992188 -10.1875 10.953125 -13.84375 C 8.921875 -17.5 7.90625 -21.738281 7.90625 -26.5625 Z M 28.25 -23.171875 C 28.25 -21.960938 28.601562 -21 29.3125 -20.28125 C 30.03125 -19.5625 30.992188 -19.203125 32.203125 -19.203125 C 33.410156 -19.203125 34.367188 -19.5625 35.078125 -20.28125 C 35.796875 -21 36.15625 -21.960938 36.15625 -23.171875 L 36.15625 -37.859375 C 36.15625 -39.054688 35.796875 -40.015625 35.078125 -40.734375 C 34.367188 -41.453125 33.410156 -41.8125 32.203125 -41.8125 C 30.992188 -41.8125 30.03125 -41.453125 29.3125 -40.734375 C 28.601562 -40.015625 28.25 -39.054688 28.25 -37.859375 Z M 28.25 -23.171875 "/></g></g></g><g fill="#000000" fill-opacity="1"><g transform="translate(696.700117, 437.624998)"><g><path d="M 64.640625 -85.875 L 64.640625 0 L 85.875 0 L 85.875 -85.875 Z M 7.90625 -3.390625 C 17.175781 -3.390625 25.367188 -6.023438 32.484375 -11.296875 C 39.609375 -16.566406 45.144531 -24.082031 49.09375 -33.84375 C 53.050781 -43.601562 55.03125 -55 55.03125 -68.03125 L 55.03125 -84.96875 L 6.78125 -84.96875 L 6.78125 -68.03125 L 33.78125 -68.03125 C 33.78125 -56.351562 32.273438 -46.953125 29.265625 -39.828125 C 26.253906 -32.710938 22.597656 -27.6875 18.296875 -24.75 C 14.003906 -21.8125 9.789062 -20.34375 5.65625 -20.34375 Z M 7.90625 -3.390625 "/></g></g></g></svg>