<svg xmlns="http://www.w3.org/2000/svg" xmlns:xlink="http://www.w3.org/1999/xlink" width="1080" zoomAndPan="magnify" viewBox="0 0 810 809.999993" height="1080" preserveAspectRatio="xMidYMid meet" version="1.0"><defs><g/></defs><g fill="#000000" fill-opacity="1"><g transform="translate(26.751986, 468.749996)"><g><path d="M 167.203125 -167.640625 L 167.203125 0 L 125.84375 0 L 125.84375 -35.203125 L 110.4375 -35.203125 C 105.300781 -13.203125 89.390625 -2.203125 62.703125 -2.203125 C 46.421875 -2.203125 34.097656 -6.378906 25.734375 -14.734375 C 17.378906 -23.097656 13.203125 -35.421875 13.203125 -51.703125 L 13.203125 -117.703125 C 13.203125 -133.984375 17.378906 -146.300781 25.734375 -154.65625 C 34.097656 -163.019531 46.421875 -167.203125 62.703125 -167.203125 C 89.242188 -167.203125 105.15625 -156.347656 110.4375 -134.640625 L 125.84375 -134.640625 L 125.84375 -167.640625 Z M 70.40625 -126.5 C 70.40625 -131.632812 67.835938 -134.203125 62.703125 -134.203125 C 57.566406 -134.203125 55 -131.632812 55 -126.5 L 55 -42.90625 C 55 -37.769531 57.566406 -35.203125 62.703125 -35.203125 C 67.835938 -35.203125 70.40625 -37.769531 70.40625 -42.90625 Z M 125.84375 -68.421875 L 125.84375 -101.421875 L 112.203125 -101.421875 L 112.203125 -68.421875 Z M 125.84375 -68.421875 "/></g></g></g><g fill="#000000" fill-opacity="1"><g transform="translate(196.149595, 468.749996)"><g><path d="M 89.984375 -160.59375 L 89.984375 -133.765625 L 13.203125 -133.765625 L 13.203125 -160.59375 L 33.65625 -160.59375 L 33.65625 -169.40625 L 70.625 -169.40625 L 70.625 -160.59375 Z M 132.4375 -104.5 L 132.4375 -73.703125 L 95.484375 -73.703125 L 95.484375 -167.203125 L 132.4375 -167.203125 L 132.4375 -137.5 L 139.046875 -137.5 L 139.046875 -167.203125 L 176 -167.203125 L 176 -73.703125 L 139.046875 -73.703125 L 139.046875 -104.5 Z M 88.875 -100.984375 C 88.875 -91.597656 85.71875 -84.226562 79.40625 -78.875 C 73.101562 -73.519531 64.015625 -70.84375 52.140625 -70.84375 C 40.253906 -70.84375 31.160156 -73.519531 24.859375 -78.875 C 18.554688 -84.226562 15.40625 -91.597656 15.40625 -100.984375 C 15.40625 -110.222656 18.59375 -117.628906 24.96875 -123.203125 C 31.351562 -128.773438 40.410156 -131.5625 52.140625 -131.5625 C 63.867188 -131.5625 72.921875 -128.773438 79.296875 -123.203125 C 85.679688 -117.628906 88.875 -110.222656 88.875 -100.984375 Z M 46.640625 -100.984375 C 46.640625 -99.367188 47.148438 -98.046875 48.171875 -97.015625 C 49.203125 -95.992188 50.523438 -95.484375 52.140625 -95.484375 C 53.753906 -95.484375 55.070312 -95.992188 56.09375 -97.015625 C 57.125 -98.046875 57.640625 -99.367188 57.640625 -100.984375 C 57.640625 -102.597656 57.125 -103.914062 56.09375 -104.9375 C 55.070312 -105.96875 53.753906 -106.484375 52.140625 -106.484375 C 50.523438 -106.484375 49.203125 -105.96875 48.171875 -104.9375 C 47.148438 -103.914062 46.640625 -102.597656 46.640625 -100.984375 Z M 141.90625 -66.4375 C 152.3125 -66.4375 160.664062 -63.394531 166.96875 -57.3125 C 173.28125 -51.226562 176.4375 -43.195312 176.4375 -33.21875 C 176.4375 -23.25 173.28125 -15.21875 166.96875 -9.125 C 160.664062 -3.039062 152.3125 0 141.90625 0 L 61.375 0 C 50.96875 0 42.609375 -3.039062 36.296875 -9.125 C 29.992188 -15.21875 26.84375 -23.25 26.84375 -33.21875 C 26.84375 -43.195312 29.992188 -51.226562 36.296875 -57.3125 C 42.609375 -63.394531 50.96875 -66.4375 61.375 -66.4375 Z M 130.90625 -29.046875 C 132.070312 -29.046875 133.054688 -29.445312 133.859375 -30.25 C 134.671875 -31.050781 135.078125 -32.039062 135.078125 -33.21875 C 135.078125 -34.394531 134.671875 -35.382812 133.859375 -36.1875 C 133.054688 -37 132.070312 -37.40625 130.90625 -37.40625 L 72.375 -37.40625 C 71.207031 -37.40625 70.21875 -37 69.40625 -36.1875 C 68.601562 -35.382812 68.203125 -34.394531 68.203125 -33.21875 C 68.203125 -32.039062 68.601562 -31.050781 69.40625 -30.25 C 70.21875 -29.445312 71.207031 -29.046875 72.375 -29.046875 Z M 130.90625 -29.046875 "/></g></g></g><g fill="#000000" fill-opacity="1"><g transform="translate(374.787121, 468.749996)"><g/></g></g><g fill="#000000" fill-opacity="1"><g transform="translate(429.786279, 468.749996)"><g><path d="M 169.40625 -167.203125 L 169.40625 -74.796875 L 128.265625 -74.796875 L 128.265625 -87.5625 L 107.359375 -87.5625 L 107.359375 -116.15625 L 128.265625 -116.15625 L 128.265625 -125.625 L 107.359375 -125.625 L 107.359375 -137.0625 C 104.722656 -120.050781 99.332031 -106.8125 91.1875 -97.34375 C 83.050781 -87.882812 72.820312 -81.394531 60.5 -77.875 C 48.175781 -74.351562 33.144531 -72.59375 15.40625 -72.59375 L 11 -105.59375 C 25.957031 -105.59375 38.566406 -107.976562 48.828125 -112.75 C 59.097656 -117.519531 64.234375 -124.082031 64.234375 -132.4375 L 15.40625 -132.4375 L 15.40625 -165 L 109.34375 -165 C 109.34375 -160.15625 109.269531 -156.5625 109.125 -154.21875 L 128.265625 -154.21875 L 128.265625 -167.203125 Z M 134.859375 -67.765625 C 144.828125 -67.765625 153.078125 -64.570312 159.609375 -58.1875 C 166.140625 -51.8125 169.40625 -43.707031 169.40625 -33.875 C 169.40625 -24.050781 166.140625 -15.945312 159.609375 -9.5625 C 153.078125 -3.1875 144.828125 0 134.859375 0 L 54.34375 0 C 44.363281 0 36.109375 -3.1875 29.578125 -9.5625 C 23.054688 -15.945312 19.796875 -24.050781 19.796875 -33.875 C 19.796875 -43.707031 23.054688 -51.8125 29.578125 -58.1875 C 36.109375 -64.570312 44.363281 -67.765625 54.34375 -67.765625 Z M 123.859375 -29.703125 C 125.035156 -29.703125 126.023438 -30.101562 126.828125 -30.90625 C 127.640625 -31.71875 128.046875 -32.707031 128.046875 -33.875 C 128.046875 -35.050781 127.640625 -36.039062 126.828125 -36.84375 C 126.023438 -37.65625 125.035156 -38.0625 123.859375 -38.0625 L 65.34375 -38.0625 C 64.164062 -38.0625 63.171875 -37.65625 62.359375 -36.84375 C 61.554688 -36.039062 61.15625 -35.050781 61.15625 -33.875 C 61.15625 -32.707031 61.554688 -31.71875 62.359375 -30.90625 C 63.171875 -30.101562 64.164062 -29.703125 65.34375 -29.703125 Z M 123.859375 -29.703125 "/></g></g></g><g fill="#000000" fill-opacity="1"><g transform="translate(601.383878, 468.749996)"><g><path d="M 171.59375 -39.59375 L 113.078125 -39.59375 L 113.078125 -49.5 L 169.40625 -49.5 L 169.40625 -82.5 L 56.546875 -82.5 L 56.546875 -90.640625 L 167.203125 -90.640625 L 167.203125 -165 L 17.59375 -165 L 17.59375 -132 L 128.046875 -132 L 128.046875 -123.640625 L 17.59375 -123.640625 L 17.59375 -49.5 L 71.71875 -49.5 L 71.71875 -39.59375 L 13.203125 -39.59375 L 13.203125 -6.59375 L 171.59375 -6.59375 Z M 171.59375 -39.59375 "/></g></g></g></svg>