<svg xmlns="http://www.w3.org/2000/svg" xmlns:xlink="http://www.w3.org/1999/xlink" width="1080" zoomAndPan="magnify" viewBox="0 0 810 809.999993" height="1080" preserveAspectRatio="xMidYMid meet" version="1.0"><defs><clipPath id="8f4f9f165d"><path d="M 15.28125 15.28125 L 794.53125 15.28125 L 794.53125 794.53125 L 15.28125 794.53125 Z M 15.28125 15.28125 " clip-rule="nonzero"/></clipPath></defs><g clip-path="url(#8f4f9f165d)"><path fill="#19c9ff" d="M 404.996094 15.28125 C 190.652344 15.28125 15.28125 190.652344 15.28125 404.996094 C 15.28125 619.335938 190.652344 794.707031 404.996094 794.707031 C 619.335938 794.707031 794.707031 619.335938 794.707031 404.996094 C 794.707031 190.652344 619.335938 15.28125 404.996094 15.28125 Z M 560.878906 443.964844 L 443.964844 443.964844 L 443.964844 560.878906 C 443.964844 584.261719 428.378906 599.851562 404.996094 599.851562 C 381.613281 599.851562 366.023438 584.261719 366.023438 560.878906 L 366.023438 443.964844 L 249.109375 443.964844 C 225.726562 443.964844 210.136719 428.378906 210.136719 404.996094 C 210.136719 381.613281 225.726562 366.023438 249.109375 366.023438 L 366.023438 366.023438 L 366.023438 249.109375 C 366.023438 225.726562 381.613281 210.136719 404.996094 210.136719 C 428.378906 210.136719 443.964844 225.726562 443.964844 249.109375 L 443.964844 366.023438 L 560.878906 366.023438 C 584.261719 366.023438 599.851562 381.613281 599.851562 404.996094 C 599.851562 428.378906 584.261719 443.964844 560.878906 443.964844 Z M 560.878906 443.964844 " fill-opacity="1" fill-rule="nonzero"/></g></svg>