<svg xmlns="http://www.w3.org/2000/svg" xmlns:xlink="http://www.w3.org/1999/xlink" width="1080" zoomAndPan="magnify" viewBox="0 0 810 809.999993" height="1080" preserveAspectRatio="xMidYMid meet" version="1.0"><defs><clipPath id="0faa9fe697"><path d="M 45 84 L 765 84 L 765 726.277344 L 45 726.277344 Z M 45 84 " clip-rule="nonzero"/></clipPath></defs><g clip-path="url(#0faa9fe697)"><path fill="#ffffff" d="M 377.535156 688.234375 C 379.152344 694.15625 375.921875 700.078125 369.996094 701.695312 C 361.382812 703.847656 352.765625 706.542969 343.613281 708.695312 C 343.613281 708.695312 343.613281 708.695312 343.074219 708.695312 L 338.226562 709.773438 C 337.148438 709.773438 336.613281 710.3125 335.535156 710.3125 C 330.6875 710.3125 326.378906 707.078125 325.304688 702.234375 C 323.6875 696.308594 327.457031 690.386719 332.84375 689.308594 L 338.226562 688.234375 C 338.226562 688.234375 338.226562 688.234375 338.765625 688.234375 C 347.382812 686.078125 355.996094 683.925781 364.074219 681.234375 C 369.996094 679.617188 375.921875 682.847656 377.535156 688.234375 Z M 291.917969 699.003906 C 283.304688 701.15625 274.6875 702.773438 265.535156 704.925781 C 259.609375 706.003906 255.839844 711.925781 257.457031 717.847656 C 258.53125 722.695312 262.839844 726.464844 268.226562 726.464844 C 268.765625 726.464844 269.839844 726.464844 270.378906 726.464844 C 279.535156 724.3125 288.148438 722.695312 296.765625 720.542969 C 302.6875 719.464844 305.917969 713.542969 304.84375 707.617188 C 303.765625 701.695312 297.839844 697.925781 291.917969 699.003906 Z M 479.847656 437.84375 C 482 439.457031 484.152344 439.996094 486.308594 439.996094 C 489.539062 439.996094 492.769531 438.382812 494.921875 435.6875 C 496 434.613281 497.078125 433.535156 498.152344 431.917969 C 503 426.535156 508.921875 421.148438 516.460938 415.765625 C 521.308594 411.996094 522.386719 405.535156 518.617188 400.6875 C 514.847656 395.84375 508.386719 394.765625 503.539062 398.535156 C 494.921875 404.996094 487.382812 411.457031 482 417.917969 C 480.382812 419.535156 479.308594 421.148438 478.230469 422.765625 C 474.460938 427.613281 475 434.613281 479.847656 437.84375 Z M 435.691406 658.617188 C 427.613281 661.308594 419 664.539062 410.382812 667.234375 L 405.535156 668.847656 C 399.613281 670.464844 396.921875 676.925781 398.535156 682.308594 C 400.152344 687.15625 404.460938 689.847656 408.765625 689.847656 C 409.84375 689.847656 410.921875 689.847656 412 689.308594 L 417.382812 687.695312 C 426.535156 685.003906 435.152344 681.773438 443.230469 679.078125 C 448.613281 676.925781 451.84375 671.003906 449.691406 665.078125 C 447.539062 659.695312 441.074219 657 435.691406 658.617188 Z M 515.921875 534.230469 C 523.460938 540.691406 529.386719 545.539062 534.769531 550.921875 C 534.769531 550.921875 534.769531 550.921875 535.308594 551.460938 C 536.386719 552.539062 537.460938 553.613281 538.539062 555.230469 C 540.691406 557.382812 543.386719 559 546.617188 559 C 549.308594 559 551.460938 557.921875 553.617188 556.308594 C 557.925781 552.539062 558.464844 545.539062 554.695312 541.230469 C 553.617188 539.613281 552 538.539062 550.925781 537.460938 C 550.925781 537.460938 550.925781 537.460938 550.386719 536.921875 C 544.460938 531 537.460938 525.074219 529.386719 518.074219 C 524.539062 514.304688 518.078125 514.84375 514.308594 519.691406 C 510.539062 524.539062 511.617188 530.460938 515.921875 534.230469 Z M 571.925781 361.917969 C 563.308594 365.6875 554.695312 369.457031 546.617188 373.226562 C 545 374.304688 543.386719 374.839844 541.769531 375.917969 C 536.386719 378.609375 534.230469 385.074219 536.925781 390.457031 C 539.078125 394.226562 542.847656 396.378906 546.617188 396.378906 C 548.230469 396.378906 549.847656 395.84375 551.460938 395.304688 C 553.078125 394.765625 554.695312 393.6875 556.308594 393.148438 C 563.847656 389.378906 571.925781 385.609375 580 382.378906 C 585.386719 380.226562 588.078125 373.765625 585.925781 368.378906 C 583.769531 361.917969 577.308594 359.765625 571.925781 361.917969 Z M 644.082031 335.53125 C 635.464844 338.226562 626.847656 340.917969 618.234375 344.148438 L 612.847656 345.765625 C 607.464844 347.917969 604.234375 353.839844 606.386719 359.765625 C 608.003906 364.070312 612.308594 366.765625 616.617188 366.765625 C 617.695312 366.765625 618.773438 366.765625 620.386719 366.226562 L 625.234375 364.609375 C 633.847656 361.917969 641.925781 358.6875 650.542969 355.996094 C 656.464844 354.378906 659.15625 347.917969 657.542969 342.53125 C 655.386719 337.148438 649.464844 333.917969 644.082031 335.53125 Z M 478.769531 500.304688 C 479.847656 501.921875 481.460938 503.535156 482.539062 504.613281 C 484.691406 506.769531 487.382812 508.382812 490.617188 508.382812 C 493.308594 508.382812 496 507.304688 497.617188 505.691406 C 501.921875 501.921875 502.460938 494.921875 498.152344 490.613281 C 497.078125 489.535156 496 487.921875 494.921875 486.84375 C 489.539062 480.382812 486.308594 473.921875 484.691406 467.996094 C 483.613281 462.074219 477.691406 458.304688 471.769531 459.921875 C 465.84375 460.996094 462.074219 466.921875 463.691406 472.84375 C 466.382812 481.460938 471.230469 490.613281 478.769531 500.304688 Z M 562.230469 576.230469 C 556.308594 575.152344 550.925781 578.382812 549.308594 584.308594 C 548.230469 590.230469 544.460938 596.152344 539.078125 602.617188 C 538 603.691406 536.925781 604.769531 535.847656 605.847656 C 531.539062 610.15625 531.539062 616.617188 535.847656 620.925781 C 538 623.078125 540.691406 624.15625 543.386719 624.15625 C 546.078125 624.15625 548.769531 623.078125 550.925781 620.925781 C 552.539062 619.308594 553.617188 618.230469 554.695312 616.617188 C 562.769531 607.460938 568.15625 598.308594 570.308594 588.617188 C 571.925781 583.769531 568.15625 577.847656 562.230469 576.230469 Z M 503 629.539062 C 496 633.308594 487.921875 637.617188 479.847656 641.386719 C 479.847656 641.386719 479.847656 641.386719 479.308594 641.386719 L 475 643.539062 C 469.613281 645.695312 466.921875 652.15625 469.613281 657.539062 C 471.230469 661.308594 475.539062 664 479.308594 664 C 480.921875 664 482 663.464844 483.613281 662.925781 L 488.460938 660.769531 C 488.460938 660.769531 489 660.769531 489 660.769531 C 497.617188 656.464844 506.230469 652.695312 513.230469 648.386719 C 518.617188 645.695312 520.230469 638.695312 517.539062 633.847656 C 514.847656 628.460938 508.386719 626.308594 503 629.539062 Z M 297.839844 414.6875 C 297.839844 467.460938 254.765625 510.535156 201.992188 510.535156 C 149.222656 510.535156 106.144531 467.460938 106.144531 414.6875 C 106.144531 361.917969 149.222656 318.839844 201.992188 318.839844 C 254.765625 318.839844 297.839844 361.917969 297.839844 414.6875 Z M 276.304688 414.6875 C 276.304688 373.765625 242.917969 340.378906 201.992188 340.378906 C 161.070312 340.378906 127.683594 373.765625 127.683594 414.6875 C 127.683594 455.613281 161.070312 488.996094 201.992188 488.996094 C 242.917969 488.996094 276.304688 455.613281 276.304688 414.6875 Z M 283.839844 601.539062 C 261.226562 636 236.457031 669.386719 210.609375 701.695312 C 208.457031 704.386719 205.222656 705.464844 201.992188 705.464844 C 198.761719 705.464844 195.53125 703.847656 193.378906 701.695312 C 167.53125 669.386719 142.761719 635.460938 120.144531 601.539062 C 65.222656 519.152344 45.296875 471.226562 45.296875 418.996094 C 45.296875 353.300781 105.066406 261.761719 201.992188 261.761719 C 298.917969 261.761719 358.152344 352.765625 358.6875 418.457031 C 358.152344 471.226562 338.765625 519.152344 283.839844 601.539062 Z M 266.070312 589.691406 C 325.304688 500.304688 337.148438 459.382812 337.148438 418.996094 C 337.148438 362.457031 285.457031 283.300781 201.992188 283.300781 C 118.53125 283.300781 67.375 361.917969 66.835938 418.457031 C 66.835938 459.382812 78.683594 500.304688 137.914062 589.691406 C 157.839844 619.847656 179.378906 649.464844 201.992188 678.003906 C 224.609375 649.464844 246.148438 619.847656 266.070312 589.691406 Z M 732.390625 170.222656 C 732.390625 201.453125 707.082031 226.222656 676.386719 226.222656 C 645.695312 226.222656 620.386719 200.914062 620.386719 170.222656 C 620.386719 139.527344 645.695312 114.21875 676.386719 114.21875 C 707.082031 114.21875 732.390625 138.988281 732.390625 170.222656 Z M 710.851562 170.222656 C 710.851562 151.375 695.234375 135.757812 676.386719 135.757812 C 657.542969 135.757812 641.925781 151.375 641.925781 170.222656 C 641.925781 189.066406 657.542969 204.683594 676.386719 204.683594 C 695.234375 204.683594 710.851562 189.066406 710.851562 170.222656 Z M 764.699219 172.375 C 764.699219 201.453125 753.929688 227.839844 723.773438 273.070312 C 711.390625 291.378906 698.464844 309.6875 684.464844 326.917969 C 682.3125 329.609375 679.082031 330.6875 675.851562 330.6875 C 672.621094 330.6875 669.386719 329.070312 667.234375 326.917969 C 653.234375 309.6875 639.773438 291.378906 627.925781 273.070312 C 597.773438 227.839844 587.539062 201.992188 587.003906 172.914062 C 587.003906 135.757812 620.925781 84.066406 675.3125 84.066406 C 730.773438 83.527344 764.699219 135.222656 764.699219 172.375 Z M 743.160156 172.375 C 743.160156 148.144531 720.542969 105.066406 676.386719 105.066406 C 631.695312 105.066406 609.617188 148.144531 609.617188 172.375 C 609.617188 193.375 615.542969 214.375 646.773438 261.222656 C 655.925781 275.222656 666.15625 289.222656 676.925781 303.222656 C 687.695312 289.761719 697.390625 275.761719 707.082031 261.222656 C 736.699219 214.375 743.160156 193.375 743.160156 172.375 Z M 743.160156 172.375 " fill-opacity="1" fill-rule="nonzero"/></g></svg>