<svg xmlns="http://www.w3.org/2000/svg" xmlns:xlink="http://www.w3.org/1999/xlink" width="1080" zoomAndPan="magnify" viewBox="0 0 810 809.999993" height="1080" preserveAspectRatio="xMidYMid meet" version="1.0"><defs><g/></defs><g fill="#000000" fill-opacity="1"><g transform="translate(8.230126, 444.749998)"><g><path d="M 60.734375 -64.734375 L 60.734375 -104.671875 L 83.75 -104.671875 L 83.75 -1.375 L 60.734375 -1.375 L 60.734375 -44.078125 L 49.71875 -44.078125 L 49.71875 -64.734375 Z M 87.875 -104.671875 L 111.015625 -104.671875 L 111.015625 0 L 87.875 0 Z M 43.65625 -78.640625 C 43.65625 -66.066406 44.09375 -56.195312 44.96875 -49.03125 C 45.84375 -41.875 47.445312 -36.273438 49.78125 -32.234375 C 52.125 -28.191406 55.59375 -25.253906 60.1875 -23.421875 L 53.296875 -4.125 C 49.441406 -4.769531 45.769531 -6.492188 42.28125 -9.296875 C 38.789062 -12.097656 35.671875 -15.976562 32.921875 -20.9375 C 30.160156 -15.976562 27.015625 -12.097656 23.484375 -9.296875 C 19.953125 -6.492188 16.253906 -4.769531 12.390625 -4.125 L 5.515625 -23.421875 C 10.097656 -25.253906 13.5625 -28.191406 15.90625 -32.234375 C 18.25 -36.273438 19.851562 -41.875 20.71875 -49.03125 C 21.59375 -56.195312 22.03125 -66.066406 22.03125 -78.640625 L 22.03125 -82.5 L 9.09375 -82.5 L 9.09375 -103.296875 L 56.609375 -103.296875 L 56.609375 -82.5 L 43.65625 -82.5 Z M 43.65625 -78.640625 "/></g></g></g><g fill="#000000" fill-opacity="1"><g transform="translate(120.617557, 444.749998)"><g/></g></g><g fill="#000000" fill-opacity="1"><g transform="translate(155.049497, 444.749998)"><g><path d="M 77.953125 -22.03125 L 62.53125 -22.03125 L 62.53125 -86.078125 L 40.765625 -86.078125 L 9.09375 -78.921875 L 9.09375 -56.890625 L 33.609375 -58.53125 L 33.609375 -22.03125 L 9.09375 -22.03125 L 9.09375 0 L 77.953125 0 Z M 77.953125 -22.03125 "/></g></g></g><g fill="#000000" fill-opacity="1"><g transform="translate(230.800603, 444.749998)"><g><path d="M 79.0625 -104.671875 L 79.0625 0 L 104.953125 0 L 104.953125 -104.671875 Z M 39.671875 -103.578125 C 19.648438 -103.578125 9.640625 -93.109375 9.640625 -72.171875 L 9.640625 -63.078125 C 9.640625 -42.140625 19.648438 -31.671875 39.671875 -31.671875 C 49.765625 -31.671875 57.335938 -34.3125 62.390625 -39.59375 C 67.441406 -44.875 69.96875 -52.703125 69.96875 -63.078125 L 69.96875 -72.171875 C 69.96875 -82.546875 67.441406 -90.375 62.390625 -95.65625 C 57.335938 -100.9375 49.765625 -103.578125 39.671875 -103.578125 Z M 39.671875 -82.921875 C 43.066406 -82.921875 44.765625 -81.175781 44.765625 -77.6875 L 44.765625 -57.578125 C 44.765625 -54.085938 43.066406 -52.34375 39.671875 -52.34375 C 36.273438 -52.34375 34.578125 -54.085938 34.578125 -57.578125 L 34.578125 -77.6875 C 34.578125 -81.175781 36.273438 -82.921875 39.671875 -82.921875 Z M 8.265625 -24.796875 L 8.265625 -4.125 L 74.921875 -4.125 L 74.921875 -24.796875 Z M 8.265625 -24.796875 "/></g></g></g><g fill="#000000" fill-opacity="1"><g transform="translate(337.127883, 444.749998)"><g/></g></g><g fill="#000000" fill-opacity="1"><g transform="translate(371.559835, 444.749998)"><g><path d="M 74.375 -99.859375 L 74.375 -81.953125 L 9.640625 -81.953125 L 9.640625 -99.859375 L 29.0625 -99.859375 L 29.0625 -107.4375 L 54.953125 -107.4375 L 54.953125 -99.859375 Z M 78.78125 -104.671875 L 104.671875 -104.671875 L 104.671875 0 L 78.78125 0 Z M 50 -78.515625 C 56.882812 -78.515625 62.4375 -76.5625 66.65625 -72.65625 C 70.882812 -68.75 73 -63.582031 73 -57.15625 C 73 -50.726562 70.882812 -45.5625 66.65625 -41.65625 C 62.4375 -37.757812 56.882812 -35.8125 50 -35.8125 L 34.015625 -35.8125 C 27.128906 -35.8125 21.570312 -37.757812 17.34375 -41.65625 C 13.125 -45.5625 11.015625 -50.726562 11.015625 -57.15625 C 11.015625 -63.582031 13.125 -68.75 17.34375 -72.65625 C 21.570312 -76.5625 27.128906 -78.515625 34.015625 -78.515625 Z M 45.859375 -55.09375 C 46.597656 -55.09375 47.21875 -55.273438 47.71875 -55.640625 C 48.226562 -56.015625 48.484375 -56.519531 48.484375 -57.15625 C 48.484375 -57.800781 48.226562 -58.304688 47.71875 -58.671875 C 47.21875 -59.035156 46.597656 -59.21875 45.859375 -59.21875 L 38.15625 -59.21875 C 37.414062 -59.21875 36.789062 -59.035156 36.28125 -58.671875 C 35.78125 -58.304688 35.53125 -57.800781 35.53125 -57.15625 C 35.53125 -56.519531 35.78125 -56.015625 36.28125 -55.640625 C 36.789062 -55.273438 37.414062 -55.09375 38.15625 -55.09375 Z M 54.953125 -32.375 L 54.953125 -23.421875 L 74.65625 -23.421875 L 74.65625 -4.125 L 8.265625 -4.125 L 8.265625 -23.421875 L 29.0625 -23.421875 L 29.0625 -32.375 Z M 54.953125 -32.375 "/></g></g></g><g fill="#000000" fill-opacity="1"><g transform="translate(477.611633, 444.749998)"><g><path d="M 105.09375 -104.671875 L 105.09375 -28.65625 L 79.203125 -28.65625 L 79.203125 -64.59375 L 69.5625 -64.59375 L 69.5625 -71.078125 C 67.8125 -67.210938 65.125 -64.175781 61.5 -61.96875 C 57.875 -59.769531 53.582031 -58.671875 48.625 -58.671875 L 34.015625 -58.671875 C 27.128906 -58.671875 21.570312 -60.738281 17.34375 -64.875 C 13.125 -69.007812 11.015625 -74.472656 11.015625 -81.265625 C 11.015625 -88.054688 13.125 -93.519531 17.34375 -97.65625 C 21.570312 -101.789062 27.128906 -103.859375 34.015625 -103.859375 L 48.625 -103.859375 C 54.769531 -103.859375 59.882812 -102.179688 63.96875 -98.828125 C 68.0625 -95.472656 70.519531 -90.945312 71.34375 -85.25 L 79.203125 -85.25 L 79.203125 -104.671875 Z M 43.796875 -78.09375 C 44.804688 -78.09375 45.609375 -78.414062 46.203125 -79.0625 C 46.804688 -79.707031 47.109375 -80.488281 47.109375 -81.40625 C 47.109375 -82.320312 46.804688 -83.078125 46.203125 -83.671875 C 45.609375 -84.265625 44.804688 -84.5625 43.796875 -84.5625 L 38.84375 -84.5625 C 37.832031 -84.5625 37.023438 -84.265625 36.421875 -83.671875 C 35.828125 -83.078125 35.53125 -82.320312 35.53125 -81.40625 C 35.53125 -80.488281 35.851562 -79.707031 36.5 -79.0625 C 37.144531 -78.414062 37.925781 -78.09375 38.84375 -78.09375 Z M 36.90625 -26.171875 L 36.90625 -20.65625 L 104.671875 -20.65625 L 104.671875 0 L 11.015625 0 L 11.015625 -28.65625 L 28.78125 -28.65625 L 28.78125 -34.15625 L 8.265625 -34.15625 L 8.265625 -53.578125 L 75.0625 -53.578125 L 75.0625 -34.15625 L 54.6875 -34.15625 L 54.6875 -26.171875 Z M 36.90625 -26.171875 "/></g></g></g><g fill="#000000" fill-opacity="1"><g transform="translate(584.076655, 444.749998)"><g><path d="M 104.671875 -104.671875 L 78.78125 -104.671875 L 78.78125 0 L 104.671875 0 L 104.671875 -44.21875 L 115.015625 -44.21875 L 115.015625 -64.875 L 104.671875 -64.875 Z M 9.640625 -4.125 C 20.929688 -4.125 30.914062 -7.335938 39.59375 -13.765625 C 48.269531 -20.203125 55.019531 -29.363281 59.84375 -41.25 C 64.664062 -53.144531 67.078125 -67.035156 67.078125 -82.921875 L 67.078125 -103.578125 L 8.265625 -103.578125 L 8.265625 -82.921875 L 41.1875 -82.921875 C 41.1875 -68.679688 39.347656 -57.222656 35.671875 -48.546875 C 31.992188 -39.867188 27.539062 -33.738281 22.3125 -30.15625 C 17.082031 -26.582031 11.941406 -24.796875 6.890625 -24.796875 Z M 9.640625 -4.125 "/></g></g></g><g fill="#000000" fill-opacity="1"><g transform="translate(692.194431, 444.749998)"><g><path d="M 104.953125 -104.953125 L 79.0625 -104.953125 L 79.0625 -47.65625 L 104.953125 -47.65625 Z M 8.265625 -77.8125 C 8.265625 -86.257812 10.992188 -92.847656 16.453125 -97.578125 C 21.921875 -102.304688 29.519531 -104.671875 39.25 -104.671875 C 48.988281 -104.671875 56.585938 -102.304688 62.046875 -97.578125 C 67.515625 -92.847656 70.25 -86.257812 70.25 -77.8125 L 70.25 -73.6875 C 70.25 -65.238281 67.515625 -58.648438 62.046875 -53.921875 C 56.585938 -49.191406 48.988281 -46.828125 39.25 -46.828125 C 29.519531 -46.828125 21.921875 -49.191406 16.453125 -53.921875 C 10.992188 -58.648438 8.265625 -65.238281 8.265625 -73.6875 Z M 34.4375 -72.3125 C 34.4375 -70.84375 34.867188 -69.671875 35.734375 -68.796875 C 36.609375 -67.921875 37.78125 -67.484375 39.25 -67.484375 C 40.8125 -67.484375 42.003906 -67.921875 42.828125 -68.796875 C 43.660156 -69.671875 44.078125 -70.84375 44.078125 -72.3125 L 44.078125 -79.203125 C 44.078125 -80.753906 43.660156 -81.941406 42.828125 -82.765625 C 42.003906 -83.597656 40.8125 -84.015625 39.25 -84.015625 C 37.78125 -84.015625 36.609375 -83.597656 35.734375 -82.765625 C 34.867188 -81.941406 34.4375 -80.753906 34.4375 -79.203125 Z M 104.953125 0 L 104.953125 -43.390625 L 79.203125 -43.390625 L 79.203125 -38.296875 L 37.1875 -38.296875 L 37.1875 -43.390625 L 11.296875 -43.390625 L 11.296875 0 Z M 79.203125 -21.765625 L 79.203125 -16.53125 L 37.1875 -16.53125 L 37.1875 -21.765625 Z M 79.203125 -21.765625 "/></g></g></g></svg>