<svg xmlns="http://www.w3.org/2000/svg" xmlns:xlink="http://www.w3.org/1999/xlink" width="1080" zoomAndPan="magnify" viewBox="0 0 810 809.999993" height="1080" preserveAspectRatio="xMidYMid meet" version="1.0"><defs><g/></defs><g fill="#000000" fill-opacity="1"><g transform="translate(20.334733, 468.749996)"><g><path d="M 169.84375 -167.203125 L 169.84375 -77 L 128.484375 -77 L 128.484375 -104.71875 L 103.1875 -104.71875 L 103.1875 -120.125 C 99.070312 -108.382812 92.976562 -99.359375 84.90625 -93.046875 C 76.84375 -86.742188 67.238281 -82.492188 56.09375 -80.296875 C 44.945312 -78.097656 31.382812 -77 15.40625 -77 L 11 -110 C 46.488281 -110 64.234375 -117.476562 64.234375 -132.4375 L 15.40625 -132.4375 L 15.40625 -165 L 109.34375 -165 C 109.34375 -154.875 108.679688 -145.851562 107.359375 -137.9375 L 128.484375 -137.9375 L 128.484375 -167.203125 Z M 19.796875 0 L 19.796875 -68.859375 L 169.84375 -68.859375 L 169.84375 0 Z M 61.15625 -39.15625 L 61.15625 -29.703125 L 128.484375 -29.703125 L 128.484375 -39.15625 Z M 61.15625 -39.15625 "/></g></g></g><g fill="#000000" fill-opacity="1"><g transform="translate(192.372334, 468.749996)"><g><path d="M 50.375 -83.15625 C 42.019531 -70.988281 31.09375 -63.800781 17.59375 -61.59375 L 8.796875 -90.203125 C 15.398438 -92.398438 20.3125 -96.140625 23.53125 -101.421875 C 26.757812 -106.703125 28.960938 -114.328125 30.140625 -124.296875 C 31.316406 -134.273438 31.90625 -148.578125 31.90625 -167.203125 L 68.640625 -167.203125 C 68.640625 -148.578125 69.222656 -134.273438 70.390625 -124.296875 C 71.566406 -114.328125 73.769531 -106.703125 77 -101.421875 C 80.226562 -96.140625 85.140625 -92.398438 91.734375 -90.203125 L 82.9375 -61.59375 C 69.445312 -63.800781 58.59375 -70.988281 50.375 -83.15625 Z M 137.28125 -167.203125 L 174.234375 -167.203125 L 174.234375 -61.59375 L 137.28125 -61.59375 L 137.28125 -97.90625 L 130.6875 -97.90625 L 130.6875 -61.59375 L 93.71875 -61.59375 L 93.71875 -167.203125 L 130.6875 -167.203125 L 130.6875 -130.90625 L 137.28125 -130.90625 Z M 24.640625 -20.90625 L 24.640625 -53.90625 L 174.234375 -53.90625 L 174.234375 0 L 132.875 0 L 132.875 -20.90625 Z M 24.640625 -20.90625 "/></g></g></g><g fill="#000000" fill-opacity="1"><g transform="translate(368.80987, 468.749996)"><g/></g></g><g fill="#000000" fill-opacity="1"><g transform="translate(423.809028, 468.749996)"><g><path d="M 107.359375 -140.140625 C 104.722656 -125.472656 99.441406 -114.691406 91.515625 -107.796875 C 83.597656 -100.898438 73.914062 -96.609375 62.46875 -94.921875 C 51.03125 -93.242188 35.34375 -92.40625 15.40625 -92.40625 L 11 -118.796875 C 26.539062 -118.796875 39.296875 -120.257812 49.265625 -123.1875 C 59.242188 -126.125 64.234375 -130.675781 64.234375 -136.84375 L 15.40625 -136.84375 L 15.40625 -165 L 109.34375 -165 C 109.34375 -161.332031 109.269531 -158.617188 109.125 -156.859375 L 128.265625 -156.859375 L 128.265625 -167.203125 L 169.40625 -167.203125 L 169.40625 -92.40625 L 129.359375 -92.40625 L 129.359375 -101.203125 L 107.359375 -101.203125 L 107.359375 -124.734375 L 128.265625 -124.734375 L 128.265625 -133.3125 L 107.359375 -133.3125 Z M 61.15625 -24.203125 L 171.59375 -24.203125 L 171.59375 0 L 19.796875 0 L 19.796875 -55 L 128.265625 -55 L 128.265625 -61.59375 L 19.796875 -61.59375 L 19.796875 -85.796875 L 169.40625 -85.796875 L 169.40625 -30.796875 L 61.15625 -30.796875 Z M 61.15625 -24.203125 "/></g></g></g><g fill="#000000" fill-opacity="1"><g transform="translate(597.606594, 468.749996)"><g><path d="M 167.203125 -167.203125 L 125.84375 -167.203125 L 125.84375 0 L 167.203125 0 L 167.203125 -68.421875 L 183.703125 -68.421875 L 183.703125 -101.421875 L 167.203125 -101.421875 Z M 73.484375 -131.78125 L 73.484375 -68.421875 L 110.4375 -68.421875 L 112.640625 -165 L 17.59375 -165 L 17.59375 -131.78125 Z M 63.578125 -101.203125 L 24.421875 -101.203125 L 24.421875 -39.59375 L 13.203125 -39.59375 L 13.203125 -6.59375 L 119.234375 -6.59375 L 119.234375 -39.59375 L 63.578125 -39.59375 Z M 63.578125 -101.203125 "/></g></g></g></svg>