<svg xmlns="http://www.w3.org/2000/svg" xmlns:xlink="http://www.w3.org/1999/xlink" width="1080" zoomAndPan="magnify" viewBox="0 0 810 809.999993" height="1080" preserveAspectRatio="xMidYMid meet" version="1.0"><defs><g/></defs><g fill="#000000" fill-opacity="1"><g transform="translate(53.622404, 468.749996)"><g><path d="M 169.84375 -167.203125 L 169.84375 -77 L 128.484375 -77 L 128.484375 -104.71875 L 103.1875 -104.71875 L 103.1875 -120.125 C 99.070312 -108.382812 92.976562 -99.359375 84.90625 -93.046875 C 76.84375 -86.742188 67.238281 -82.492188 56.09375 -80.296875 C 44.945312 -78.097656 31.382812 -77 15.40625 -77 L 11 -110 C 46.488281 -110 64.234375 -117.476562 64.234375 -132.4375 L 15.40625 -132.4375 L 15.40625 -165 L 109.34375 -165 C 109.34375 -154.875 108.679688 -145.851562 107.359375 -137.9375 L 128.484375 -137.9375 L 128.484375 -167.203125 Z M 19.796875 0 L 19.796875 -68.859375 L 169.84375 -68.859375 L 169.84375 0 Z M 61.15625 -39.15625 L 61.15625 -29.703125 L 128.484375 -29.703125 L 128.484375 -39.15625 Z M 61.15625 -39.15625 "/></g></g></g><g fill="#000000" fill-opacity="1"><g transform="translate(225.660005, 468.749996)"><g><path d="M 50.375 -83.15625 C 42.019531 -70.988281 31.09375 -63.800781 17.59375 -61.59375 L 8.796875 -90.203125 C 15.398438 -92.398438 20.3125 -96.140625 23.53125 -101.421875 C 26.757812 -106.703125 28.960938 -114.328125 30.140625 -124.296875 C 31.316406 -134.273438 31.90625 -148.578125 31.90625 -167.203125 L 68.640625 -167.203125 C 68.640625 -148.578125 69.222656 -134.273438 70.390625 -124.296875 C 71.566406 -114.328125 73.769531 -106.703125 77 -101.421875 C 80.226562 -96.140625 85.140625 -92.398438 91.734375 -90.203125 L 82.9375 -61.59375 C 69.445312 -63.800781 58.59375 -70.988281 50.375 -83.15625 Z M 137.28125 -167.203125 L 174.234375 -167.203125 L 174.234375 -61.59375 L 137.28125 -61.59375 L 137.28125 -97.90625 L 130.6875 -97.90625 L 130.6875 -61.59375 L 93.71875 -61.59375 L 93.71875 -167.203125 L 130.6875 -167.203125 L 130.6875 -130.90625 L 137.28125 -130.90625 Z M 24.640625 -20.90625 L 24.640625 -53.90625 L 174.234375 -53.90625 L 174.234375 0 L 132.875 0 L 132.875 -20.90625 Z M 24.640625 -20.90625 "/></g></g></g><g fill="#000000" fill-opacity="1"><g transform="translate(402.097541, 468.749996)"><g><path d="M 82.9375 -154 L 82.9375 -171.59375 L 41.578125 -171.59375 L 41.578125 -154 L 13.203125 -154 L 13.203125 -120.5625 L 111.3125 -120.5625 L 111.3125 -154 Z M 167.203125 -167.203125 L 125.84375 -167.203125 L 125.84375 0 L 167.203125 0 L 167.203125 -68.421875 L 183.703125 -68.421875 L 183.703125 -101.421875 L 167.203125 -101.421875 Z M 15.40625 -67.09375 C 15.40625 -76.488281 17.382812 -84.738281 21.34375 -91.84375 C 25.300781 -98.957031 30.835938 -104.492188 37.953125 -108.453125 C 45.066406 -112.421875 53.316406 -114.40625 62.703125 -114.40625 C 72.085938 -114.40625 80.335938 -112.421875 87.453125 -108.453125 C 94.566406 -104.492188 100.101562 -98.957031 104.0625 -91.84375 C 108.019531 -84.738281 110 -76.488281 110 -67.09375 L 110 -51.703125 C 110 -42.316406 108.019531 -34.066406 104.0625 -26.953125 C 100.101562 -19.835938 94.566406 -14.300781 87.453125 -10.34375 C 80.335938 -6.382812 72.085938 -4.40625 62.703125 -4.40625 C 53.316406 -4.40625 45.066406 -6.382812 37.953125 -10.34375 C 30.835938 -14.300781 25.300781 -19.835938 21.34375 -26.953125 C 17.382812 -34.066406 15.40625 -42.316406 15.40625 -51.703125 Z M 55 -45.09375 C 55 -42.75 55.695312 -40.878906 57.09375 -39.484375 C 58.488281 -38.097656 60.359375 -37.40625 62.703125 -37.40625 C 65.046875 -37.40625 66.914062 -38.097656 68.3125 -39.484375 C 69.707031 -40.878906 70.40625 -42.75 70.40625 -45.09375 L 70.40625 -73.703125 C 70.40625 -76.046875 69.707031 -77.914062 68.3125 -79.3125 C 66.914062 -80.707031 65.046875 -81.40625 62.703125 -81.40625 C 60.359375 -81.40625 58.488281 -80.707031 57.09375 -79.3125 C 55.695312 -77.914062 55 -76.046875 55 -73.703125 Z M 55 -45.09375 "/></g></g></g><g fill="#000000" fill-opacity="1"><g transform="translate(574.79515, 468.749996)"><g><path d="M 125.84375 -167.203125 L 125.84375 0 L 167.203125 0 L 167.203125 -167.203125 Z M 15.40625 -6.59375 C 33.4375 -6.59375 49.382812 -11.726562 63.25 -22 C 77.113281 -32.269531 87.894531 -46.898438 95.59375 -65.890625 C 103.289062 -84.878906 107.140625 -107.0625 107.140625 -132.4375 L 107.140625 -165.4375 L 13.203125 -165.4375 L 13.203125 -132.4375 L 65.78125 -132.4375 C 65.78125 -109.707031 62.847656 -91.410156 56.984375 -77.546875 C 51.117188 -63.691406 44.003906 -53.898438 35.640625 -48.171875 C 27.273438 -42.453125 19.0625 -39.59375 11 -39.59375 Z M 15.40625 -6.59375 "/></g></g></g></svg>