<svg xmlns="http://www.w3.org/2000/svg" xmlns:xlink="http://www.w3.org/1999/xlink" width="1080" zoomAndPan="magnify" viewBox="0 0 810 809.999993" height="1080" preserveAspectRatio="xMidYMid meet" version="1.0"><defs><clipPath id="9ff8180195"><path d="M 18.109375 18.109375 L 792.109375 18.109375 L 792.109375 792.109375 L 18.109375 792.109375 Z M 18.109375 18.109375 " clip-rule="nonzero"/></clipPath></defs><g clip-path="url(#9ff8180195)"><path fill="#000000" d="M 629.820312 467.527344 C 579.941406 467.527344 535.292969 490.1875 505.496094 525.703125 L 338.417969 442.355469 C 341.246094 430.296875 342.691406 417.859375 342.691406 405.109375 C 342.691406 392.351562 341.246094 379.902344 338.425781 367.863281 L 505.496094 284.515625 C 535.292969 320.03125 579.941406 342.691406 629.820312 342.691406 C 719.304688 342.691406 792.109375 269.882812 792.109375 180.398438 C 792.109375 90.917969 719.304688 18.109375 629.820312 18.109375 C 540.335938 18.109375 467.527344 90.917969 467.527344 180.398438 C 467.527344 193.199219 469.175781 205.597656 471.988281 217.550781 L 304.601562 301.054688 C 274.242188 264.613281 229.410156 242.820312 180.398438 242.820312 C 90.917969 242.820312 18.109375 315.625 18.109375 405.109375 C 18.109375 494.59375 90.917969 567.398438 180.398438 567.398438 C 229.453125 567.398438 274.320312 545.566406 304.625 509.175781 L 471.988281 592.667969 C 469.175781 604.621094 467.527344 617.019531 467.527344 629.820312 C 467.527344 719.304688 540.335938 792.109375 629.820312 792.109375 C 719.304688 792.109375 792.109375 719.304688 792.109375 629.820312 C 792.109375 540.335938 719.304688 467.527344 629.820312 467.527344 Z M 629.820312 93.011719 C 678 93.011719 717.207031 132.21875 717.207031 180.398438 C 717.207031 228.578125 678 267.789062 629.820312 267.789062 C 581.640625 267.789062 542.433594 228.582031 542.433594 180.398438 C 542.433594 132.21875 581.640625 93.011719 629.820312 93.011719 Z M 180.398438 492.496094 C 132.21875 492.496094 93.011719 453.289062 93.011719 405.109375 C 93.011719 356.929688 132.21875 317.722656 180.398438 317.722656 C 213.707031 317.722656 243.636719 336.203125 258.605469 366.144531 C 264.703125 378.117188 267.789062 391.234375 267.789062 405.109375 C 267.789062 418.984375 264.703125 432.101562 258.496094 444.292969 C 243.636719 474.015625 213.707031 492.496094 180.398438 492.496094 Z M 629.820312 717.207031 C 581.640625 717.207031 542.433594 678 542.433594 629.820312 C 542.433594 581.640625 581.640625 542.433594 629.820312 542.433594 C 678 542.433594 717.207031 581.640625 717.207031 629.820312 C 717.207031 678 678 717.207031 629.820312 717.207031 Z M 629.820312 717.207031 " fill-opacity="1" fill-rule="nonzero"/></g></svg>