<svg xmlns="http://www.w3.org/2000/svg" xmlns:xlink="http://www.w3.org/1999/xlink" width="1080" zoomAndPan="magnify" viewBox="0 0 810 809.999993" height="1080" preserveAspectRatio="xMidYMid meet" version="1.0"><defs><g/></defs><g fill="#ffffff" fill-opacity="1"><g transform="translate(352.319283, 414.285929)"><g><path d="M 14.234375 -15.171875 L 14.234375 -24.53125 L 19.625 -24.53125 L 19.625 -0.328125 L 14.234375 -0.328125 L 14.234375 -10.328125 L 11.65625 -10.328125 L 11.65625 -15.171875 Z M 20.59375 -24.53125 L 26.015625 -24.53125 L 26.015625 0 L 20.59375 0 Z M 10.234375 -18.4375 C 10.234375 -15.488281 10.332031 -13.171875 10.53125 -11.484375 C 10.738281 -9.804688 11.117188 -8.492188 11.671875 -7.546875 C 12.222656 -6.609375 13.035156 -5.921875 14.109375 -5.484375 L 12.5 -0.96875 C 11.59375 -1.113281 10.726562 -1.515625 9.90625 -2.171875 C 9.09375 -2.828125 8.363281 -3.738281 7.71875 -4.90625 C 7.070312 -3.738281 6.332031 -2.828125 5.5 -2.171875 C 4.675781 -1.515625 3.8125 -1.113281 2.90625 -0.96875 L 1.296875 -5.484375 C 2.367188 -5.921875 3.175781 -6.609375 3.71875 -7.546875 C 4.269531 -8.492188 4.648438 -9.804688 4.859375 -11.484375 C 5.066406 -13.171875 5.171875 -15.488281 5.171875 -18.4375 L 5.171875 -19.34375 L 2.125 -19.34375 L 2.125 -24.203125 L 13.265625 -24.203125 L 13.265625 -19.34375 L 10.234375 -19.34375 Z M 10.234375 -18.4375 "/></g></g></g><g fill="#ffffff" fill-opacity="1"><g transform="translate(378.656988, 414.285929)"><g><path d="M 10.484375 -24.59375 L 8 -24.59375 L 8 -24.5625 C 6.082031 -24.5625 4.59375 -24.078125 3.53125 -23.109375 C 2.46875 -22.140625 1.9375 -20.796875 1.9375 -19.078125 C 1.9375 -17.359375 2.46875 -16.015625 3.53125 -15.046875 C 4.59375 -14.078125 6.082031 -13.59375 8 -13.59375 L 10.484375 -13.59375 C 12.398438 -13.59375 13.890625 -14.078125 14.953125 -15.046875 C 16.023438 -16.015625 16.5625 -17.359375 16.5625 -19.078125 C 16.5625 -20.796875 16.023438 -22.140625 14.953125 -23.109375 C 13.890625 -24.078125 12.398438 -24.5625 10.484375 -24.5625 Z M 24.53125 -24.53125 L 18.5 -24.53125 L 18.5 -13.5 L 24.53125 -13.5 Z M 8.75 -17.984375 C 8.40625 -17.984375 8.128906 -18.082031 7.921875 -18.28125 C 7.722656 -18.488281 7.625 -18.765625 7.625 -19.109375 C 7.625 -19.472656 7.722656 -19.75 7.921875 -19.9375 C 8.128906 -20.132812 8.40625 -20.234375 8.75 -20.234375 L 9.75 -20.234375 C 10.113281 -20.234375 10.390625 -20.132812 10.578125 -19.9375 C 10.773438 -19.75 10.875 -19.472656 10.875 -19.109375 C 10.875 -18.765625 10.773438 -18.488281 10.578125 -18.28125 C 10.390625 -18.082031 10.113281 -17.984375 9.75 -17.984375 Z M 24.53125 -4.515625 L 24.53125 -12.59375 L 2.578125 -12.59375 L 2.578125 -9.03125 L 18.5 -9.03125 L 18.5 -8.0625 L 2.578125 -8.0625 L 2.578125 0 L 24.859375 0 L 24.859375 -3.546875 L 8.65625 -3.546875 L 8.65625 -4.515625 Z M 24.53125 -4.515625 "/></g></g></g><g fill="#ffffff" fill-opacity="1"><g transform="translate(403.83273, 414.285929)"><g><path d="M 24.53125 -24.59375 L 24.53125 0 L 18.46875 0 L 18.46875 -5.171875 L 16.203125 -5.171875 C 15.453125 -1.941406 13.117188 -0.328125 9.203125 -0.328125 C 6.804688 -0.328125 4.992188 -0.9375 3.765625 -2.15625 C 2.546875 -3.382812 1.9375 -5.195312 1.9375 -7.59375 L 1.9375 -17.265625 C 1.9375 -19.660156 2.546875 -21.46875 3.765625 -22.6875 C 4.992188 -23.914062 6.804688 -24.53125 9.203125 -24.53125 C 13.097656 -24.53125 15.429688 -22.9375 16.203125 -19.75 L 18.46875 -19.75 L 18.46875 -24.59375 Z M 10.328125 -18.5625 C 10.328125 -19.3125 9.953125 -19.6875 9.203125 -19.6875 C 8.441406 -19.6875 8.0625 -19.3125 8.0625 -18.5625 L 8.0625 -6.296875 C 8.0625 -5.546875 8.441406 -5.171875 9.203125 -5.171875 C 9.953125 -5.171875 10.328125 -5.546875 10.328125 -6.296875 Z M 18.46875 -10.046875 L 18.46875 -14.875 L 16.46875 -14.875 L 16.46875 -10.046875 Z M 18.46875 -10.046875 "/></g></g></g><g fill="#ffffff" fill-opacity="1"><g transform="translate(428.685705, 414.285929)"><g><path d="M 13.203125 -23.5625 L 13.203125 -19.625 L 1.9375 -19.625 L 1.9375 -23.5625 L 4.9375 -23.5625 L 4.9375 -24.859375 L 10.359375 -24.859375 L 10.359375 -23.5625 Z M 19.4375 -15.328125 L 19.4375 -10.8125 L 14.015625 -10.8125 L 14.015625 -24.53125 L 19.4375 -24.53125 L 19.4375 -20.171875 L 20.40625 -20.171875 L 20.40625 -24.53125 L 25.828125 -24.53125 L 25.828125 -10.8125 L 20.40625 -10.8125 L 20.40625 -15.328125 Z M 13.046875 -14.8125 C 13.046875 -13.4375 12.582031 -12.351562 11.65625 -11.5625 C 10.726562 -10.78125 9.394531 -10.390625 7.65625 -10.390625 C 5.90625 -10.390625 4.566406 -10.78125 3.640625 -11.5625 C 2.722656 -12.351562 2.265625 -13.4375 2.265625 -14.8125 C 2.265625 -16.164062 2.726562 -17.25 3.65625 -18.0625 C 4.59375 -18.882812 5.925781 -19.296875 7.65625 -19.296875 C 9.375 -19.296875 10.703125 -18.882812 11.640625 -18.0625 C 12.578125 -17.25 13.046875 -16.164062 13.046875 -14.8125 Z M 6.84375 -14.8125 C 6.84375 -14.582031 6.914062 -14.390625 7.0625 -14.234375 C 7.21875 -14.085938 7.414062 -14.015625 7.65625 -14.015625 C 7.882812 -14.015625 8.070312 -14.085938 8.21875 -14.234375 C 8.375 -14.390625 8.453125 -14.582031 8.453125 -14.8125 C 8.453125 -15.050781 8.375 -15.242188 8.21875 -15.390625 C 8.070312 -15.546875 7.882812 -15.625 7.65625 -15.625 C 7.414062 -15.625 7.21875 -15.546875 7.0625 -15.390625 C 6.914062 -15.242188 6.84375 -15.050781 6.84375 -14.8125 Z M 20.828125 -9.75 C 22.347656 -9.75 23.570312 -9.300781 24.5 -8.40625 C 25.425781 -7.507812 25.890625 -6.332031 25.890625 -4.875 C 25.890625 -3.40625 25.425781 -2.222656 24.5 -1.328125 C 23.570312 -0.441406 22.347656 0 20.828125 0 L 9 0 C 7.476562 0 6.253906 -0.441406 5.328125 -1.328125 C 4.398438 -2.222656 3.9375 -3.40625 3.9375 -4.875 C 3.9375 -6.332031 4.398438 -7.507812 5.328125 -8.40625 C 6.253906 -9.300781 7.476562 -9.75 9 -9.75 Z M 19.203125 -4.265625 C 19.378906 -4.265625 19.523438 -4.320312 19.640625 -4.4375 C 19.765625 -4.550781 19.828125 -4.695312 19.828125 -4.875 C 19.828125 -5.039062 19.765625 -5.179688 19.640625 -5.296875 C 19.523438 -5.421875 19.378906 -5.484375 19.203125 -5.484375 L 10.625 -5.484375 C 10.445312 -5.484375 10.296875 -5.421875 10.171875 -5.296875 C 10.054688 -5.179688 10 -5.039062 10 -4.875 C 10 -4.695312 10.054688 -4.550781 10.171875 -4.4375 C 10.296875 -4.320312 10.445312 -4.265625 10.625 -4.265625 Z M 19.203125 -4.265625 "/></g></g></g></svg>