<svg xmlns="http://www.w3.org/2000/svg" xmlns:xlink="http://www.w3.org/1999/xlink" width="1080" zoomAndPan="magnify" viewBox="0 0 810 809.999993" height="1080" preserveAspectRatio="xMidYMid meet" version="1.0"><defs><g/></defs><g fill="#ffffff" fill-opacity="1"><g transform="translate(200.279513, 413.576147)"><g><path d="M 55.9375 -59.609375 L 55.9375 -96.40625 L 77.125 -96.40625 L 77.125 -1.265625 L 55.9375 -1.265625 L 55.9375 -40.59375 L 45.796875 -40.59375 L 45.796875 -59.609375 Z M 80.921875 -96.40625 L 102.234375 -96.40625 L 102.234375 0 L 80.921875 0 Z M 40.203125 -72.421875 C 40.203125 -60.835938 40.601562 -51.75 41.40625 -45.15625 C 42.21875 -38.5625 43.703125 -33.398438 45.859375 -29.671875 C 48.015625 -25.953125 51.207031 -23.25 55.4375 -21.5625 L 49.09375 -3.8125 C 45.539062 -4.394531 42.15625 -5.976562 38.9375 -8.5625 C 35.726562 -11.144531 32.851562 -14.71875 30.3125 -19.28125 C 27.78125 -14.71875 24.882812 -11.144531 21.625 -8.5625 C 18.375 -5.976562 14.972656 -4.394531 11.421875 -3.8125 L 5.078125 -21.5625 C 9.304688 -23.25 12.5 -25.953125 14.65625 -29.671875 C 16.8125 -33.398438 18.289062 -38.5625 19.09375 -45.15625 C 19.894531 -51.75 20.296875 -60.835938 20.296875 -72.421875 L 20.296875 -75.984375 L 8.375 -75.984375 L 8.375 -95.125 L 52.125 -95.125 L 52.125 -75.984375 L 40.203125 -75.984375 Z M 40.203125 -72.421875 "/></g></g></g><g fill="#ffffff" fill-opacity="1"><g transform="translate(303.777541, 413.576147)"><g><path d="M 41.21875 -96.65625 L 31.453125 -96.65625 L 31.453125 -96.53125 C 23.929688 -96.53125 18.078125 -94.625 13.890625 -90.8125 C 9.703125 -87.007812 7.609375 -81.726562 7.609375 -74.96875 C 7.609375 -68.195312 9.703125 -62.910156 13.890625 -59.109375 C 18.078125 -55.304688 23.929688 -53.40625 31.453125 -53.40625 L 41.21875 -53.40625 C 48.75 -53.40625 54.609375 -55.304688 58.796875 -59.109375 C 62.984375 -62.910156 65.078125 -68.195312 65.078125 -74.96875 C 65.078125 -81.726562 62.984375 -87.007812 58.796875 -90.8125 C 54.609375 -94.625 48.75 -96.53125 41.21875 -96.53125 Z M 96.40625 -96.40625 L 72.6875 -96.40625 L 72.6875 -53.015625 L 96.40625 -53.015625 Z M 34.375 -70.65625 C 33.019531 -70.65625 31.941406 -71.054688 31.140625 -71.859375 C 30.335938 -72.660156 29.9375 -73.738281 29.9375 -75.09375 C 29.9375 -76.53125 30.335938 -77.628906 31.140625 -78.390625 C 31.941406 -79.148438 33.019531 -79.53125 34.375 -79.53125 L 38.3125 -79.53125 C 39.75 -79.53125 40.847656 -79.148438 41.609375 -78.390625 C 42.367188 -77.628906 42.75 -76.53125 42.75 -75.09375 C 42.75 -73.738281 42.367188 -72.660156 41.609375 -71.859375 C 40.847656 -71.054688 39.75 -70.65625 38.3125 -70.65625 Z M 96.40625 -17.765625 L 96.40625 -49.46875 L 10.140625 -49.46875 L 10.140625 -35.515625 L 72.6875 -35.515625 L 72.6875 -31.703125 L 10.140625 -31.703125 L 10.140625 0 L 97.671875 0 L 97.671875 -13.953125 L 34 -13.953125 L 34 -17.765625 Z M 96.40625 -17.765625 "/></g></g></g><g fill="#ffffff" fill-opacity="1"><g transform="translate(402.709454, 413.576147)"><g><path d="M 96.40625 -96.65625 L 96.40625 0 L 72.546875 0 L 72.546875 -20.296875 L 63.671875 -20.296875 C 60.710938 -7.609375 51.539062 -1.265625 36.15625 -1.265625 C 26.769531 -1.265625 19.664062 -3.675781 14.84375 -8.5 C 10.019531 -13.320312 7.609375 -20.425781 7.609375 -29.8125 L 7.609375 -67.859375 C 7.609375 -77.242188 10.019531 -84.347656 14.84375 -89.171875 C 19.664062 -93.992188 26.769531 -96.40625 36.15625 -96.40625 C 51.457031 -96.40625 60.628906 -90.144531 63.671875 -77.625 L 72.546875 -77.625 L 72.546875 -96.65625 Z M 40.59375 -72.9375 C 40.59375 -75.894531 39.113281 -77.375 36.15625 -77.375 C 33.1875 -77.375 31.703125 -75.894531 31.703125 -72.9375 L 31.703125 -24.734375 C 31.703125 -21.773438 33.1875 -20.296875 36.15625 -20.296875 C 39.113281 -20.296875 40.59375 -21.773438 40.59375 -24.734375 Z M 72.546875 -39.453125 L 72.546875 -58.46875 L 64.6875 -58.46875 L 64.6875 -39.453125 Z M 72.546875 -39.453125 "/></g></g></g><g fill="#ffffff" fill-opacity="1"><g transform="translate(500.373006, 413.576147)"><g><path d="M 51.875 -92.59375 L 51.875 -77.125 L 7.609375 -77.125 L 7.609375 -92.59375 L 19.40625 -92.59375 L 19.40625 -97.671875 L 40.71875 -97.671875 L 40.71875 -92.59375 Z M 76.359375 -60.25 L 76.359375 -42.5 L 55.046875 -42.5 L 55.046875 -96.40625 L 76.359375 -96.40625 L 76.359375 -79.28125 L 80.171875 -79.28125 L 80.171875 -96.40625 L 101.46875 -96.40625 L 101.46875 -42.5 L 80.171875 -42.5 L 80.171875 -60.25 Z M 51.25 -58.21875 C 51.25 -52.8125 49.429688 -48.5625 45.796875 -45.46875 C 42.160156 -42.382812 36.914062 -40.84375 30.0625 -40.84375 C 23.207031 -40.84375 17.960938 -42.382812 14.328125 -45.46875 C 10.691406 -48.5625 8.875 -52.8125 8.875 -58.21875 C 8.875 -63.550781 10.710938 -67.820312 14.390625 -71.03125 C 18.078125 -74.25 23.300781 -75.859375 30.0625 -75.859375 C 36.820312 -75.859375 42.039062 -74.25 45.71875 -71.03125 C 49.40625 -67.820312 51.25 -63.550781 51.25 -58.21875 Z M 26.890625 -58.21875 C 26.890625 -57.289062 27.1875 -56.53125 27.78125 -55.9375 C 28.375 -55.34375 29.132812 -55.046875 30.0625 -55.046875 C 30.988281 -55.046875 31.75 -55.34375 32.34375 -55.9375 C 32.9375 -56.53125 33.234375 -57.289062 33.234375 -58.21875 C 33.234375 -59.144531 32.9375 -59.90625 32.34375 -60.5 C 31.75 -61.09375 30.988281 -61.390625 30.0625 -61.390625 C 29.132812 -61.390625 28.375 -61.09375 27.78125 -60.5 C 27.1875 -59.90625 26.890625 -59.144531 26.890625 -58.21875 Z M 81.8125 -38.3125 C 87.8125 -38.3125 92.628906 -36.554688 96.265625 -33.046875 C 99.910156 -29.535156 101.734375 -24.90625 101.734375 -19.15625 C 101.734375 -13.40625 99.910156 -8.773438 96.265625 -5.265625 C 92.628906 -1.753906 87.8125 0 81.8125 0 L 35.390625 0 C 29.390625 0 24.566406 -1.753906 20.921875 -5.265625 C 17.285156 -8.773438 15.46875 -13.40625 15.46875 -19.15625 C 15.46875 -24.90625 17.285156 -29.535156 20.921875 -33.046875 C 24.566406 -36.554688 29.390625 -38.3125 35.390625 -38.3125 Z M 75.46875 -16.75 C 76.144531 -16.75 76.710938 -16.976562 77.171875 -17.4375 C 77.640625 -17.90625 77.875 -18.476562 77.875 -19.15625 C 77.875 -19.832031 77.640625 -20.398438 77.171875 -20.859375 C 76.710938 -21.328125 76.144531 -21.5625 75.46875 -21.5625 L 41.734375 -21.5625 C 41.054688 -21.5625 40.484375 -21.328125 40.015625 -20.859375 C 39.554688 -20.398438 39.328125 -19.832031 39.328125 -19.15625 C 39.328125 -18.476562 39.554688 -17.90625 40.015625 -17.4375 C 40.484375 -16.976562 41.054688 -16.75 41.734375 -16.75 Z M 75.46875 -16.75 "/></g></g></g><g fill="#ffffff" fill-opacity="1"><g transform="translate(236.174099, 498.169675)"><g><path d="M 5.046875 1 C 5.046875 1.3125 4.882812 1.46875 4.5625 1.46875 L 3.015625 1.46875 C 2.691406 1.46875 2.53125 1.3125 2.53125 1 L 2.53125 -20.90625 C 2.53125 -21.414062 2.570312 -21.707031 2.65625 -21.78125 C 2.738281 -21.863281 3.03125 -21.90625 3.53125 -21.90625 L 14.09375 -21.90625 C 14.40625 -21.90625 14.5625 -21.742188 14.5625 -21.421875 L 14.5625 -20.265625 C 14.5625 -19.941406 14.40625 -19.78125 14.09375 -19.78125 L 5.046875 -19.78125 L 5.046875 -11.625 L 13.609375 -11.625 C 13.929688 -11.625 14.09375 -11.460938 14.09375 -11.140625 L 14.09375 -9.90625 C 14.09375 -9.582031 13.929688 -9.421875 13.609375 -9.421875 L 5.046875 -9.421875 Z M 5.046875 1 "/></g></g></g><g fill="#ffffff" fill-opacity="1"><g transform="translate(255.026964, 498.169675)"><g><path d="M 15.796875 -10.1875 C 15.847656 -2.050781 13.441406 2.015625 8.578125 2.015625 C 3.703125 2.015625 1.265625 -2.050781 1.265625 -10.1875 C 1.265625 -18.320312 3.703125 -22.390625 8.578125 -22.390625 C 13.441406 -22.390625 15.847656 -18.320312 15.796875 -10.1875 Z M 8.53125 -0.140625 C 11.800781 -0.140625 13.425781 -3.488281 13.40625 -10.1875 C 13.425781 -16.875 11.800781 -20.21875 8.53125 -20.21875 C 5.269531 -20.21875 3.648438 -16.875 3.671875 -10.1875 C 3.648438 -3.488281 5.269531 -0.140625 8.53125 -0.140625 Z M 8.53125 -0.140625 "/></g></g></g><g fill="#ffffff" fill-opacity="1"><g transform="translate(273.879828, 498.169675)"><g><path d="M 12.578125 -15.21875 C 12.578125 -16.113281 12.46875 -16.8125 12.25 -17.3125 C 12.039062 -17.8125 11.6875 -18.253906 11.1875 -18.640625 C 10.695312 -19.035156 10.109375 -19.320312 9.421875 -19.5 C 8.742188 -19.6875 7.71875 -19.78125 6.34375 -19.78125 L 4.421875 -19.78125 L 4.421875 -10.53125 L 6.40625 -10.53125 C 7.34375 -10.53125 8.171875 -10.617188 8.890625 -10.796875 C 9.609375 -10.984375 10.253906 -11.269531 10.828125 -11.65625 C 11.398438 -12.039062 11.832031 -12.539062 12.125 -13.15625 C 12.425781 -13.78125 12.578125 -14.46875 12.578125 -15.21875 Z M 16.65625 1 C 16.707031 1.113281 16.707031 1.21875 16.65625 1.3125 C 16.613281 1.414062 16.523438 1.46875 16.390625 1.46875 L 14.609375 1.46875 C 14.265625 1.46875 14.007812 1.3125 13.84375 1 C 12.726562 -1.039062 11.910156 -2.519531 11.390625 -3.4375 C 10.878906 -4.363281 10.328125 -5.378906 9.734375 -6.484375 C 9.367188 -7.140625 8.992188 -7.847656 8.609375 -8.609375 C 8.054688 -8.515625 7.515625 -8.445312 6.984375 -8.40625 C 6.460938 -8.375 5.941406 -8.359375 5.421875 -8.359375 L 4.421875 -8.359375 L 4.421875 1 C 4.421875 1.3125 4.257812 1.46875 3.9375 1.46875 L 2.40625 1.46875 C 2.082031 1.46875 1.921875 1.3125 1.921875 1 L 1.921875 -20.875 C 1.921875 -21.125 1.925781 -21.316406 1.9375 -21.453125 C 1.945312 -21.597656 1.984375 -21.703125 2.046875 -21.765625 C 2.117188 -21.835938 2.222656 -21.878906 2.359375 -21.890625 C 2.503906 -21.898438 2.703125 -21.90625 2.953125 -21.90625 L 7.546875 -21.90625 C 8.847656 -21.90625 9.972656 -21.726562 10.921875 -21.375 C 11.867188 -21.019531 12.65625 -20.539062 13.28125 -19.9375 C 13.914062 -19.332031 14.382812 -18.648438 14.6875 -17.890625 C 15 -17.140625 15.15625 -16.25 15.15625 -15.21875 C 15.15625 -14.53125 15.078125 -13.894531 14.921875 -13.3125 C 14.773438 -12.726562 14.488281 -12.148438 14.0625 -11.578125 C 13.644531 -11.015625 13.164062 -10.539062 12.625 -10.15625 C 12.09375 -9.78125 11.460938 -9.492188 10.734375 -9.296875 Z M 16.65625 1 "/></g></g></g><g fill="#ffffff" fill-opacity="1"><g transform="translate(292.732693, 498.169675)"><g/></g></g><g fill="#ffffff" fill-opacity="1"><g transform="translate(311.585557, 498.169675)"><g><path d="M 9.84375 1 C 9.84375 1.3125 9.679688 1.46875 9.359375 1.46875 L 7.78125 1.46875 C 7.457031 1.46875 7.296875 1.3125 7.296875 1 L 7.296875 -8.1875 L 1.265625 -21.421875 C 1.222656 -21.535156 1.222656 -21.644531 1.265625 -21.75 C 1.316406 -21.851562 1.410156 -21.90625 1.546875 -21.90625 L 3.1875 -21.90625 C 3.457031 -21.90625 3.6875 -21.742188 3.875 -21.421875 L 8.578125 -10.796875 L 13.234375 -21.421875 C 13.390625 -21.742188 13.617188 -21.90625 13.921875 -21.90625 L 15.5625 -21.90625 C 15.695312 -21.90625 15.789062 -21.851562 15.84375 -21.75 C 15.90625 -21.644531 15.90625 -21.535156 15.84375 -21.421875 L 9.84375 -8.1875 Z M 9.84375 1 "/></g></g></g><g fill="#ffffff" fill-opacity="1"><g transform="translate(330.438422, 498.169675)"><g><path d="M 15.796875 -10.1875 C 15.847656 -2.050781 13.441406 2.015625 8.578125 2.015625 C 3.703125 2.015625 1.265625 -2.050781 1.265625 -10.1875 C 1.265625 -18.320312 3.703125 -22.390625 8.578125 -22.390625 C 13.441406 -22.390625 15.847656 -18.320312 15.796875 -10.1875 Z M 8.53125 -0.140625 C 11.800781 -0.140625 13.425781 -3.488281 13.40625 -10.1875 C 13.425781 -16.875 11.800781 -20.21875 8.53125 -20.21875 C 5.269531 -20.21875 3.648438 -16.875 3.671875 -10.1875 C 3.648438 -3.488281 5.269531 -0.140625 8.53125 -0.140625 Z M 8.53125 -0.140625 "/></g></g></g><g fill="#ffffff" fill-opacity="1"><g transform="translate(349.291286, 498.169675)"><g><path d="M 4.21875 -5.59375 C 4.21875 -3.894531 4.601562 -2.59375 5.375 -1.6875 C 6.289062 -0.695312 7.359375 -0.203125 8.578125 -0.203125 C 9.785156 -0.203125 10.847656 -0.695312 11.765625 -1.6875 C 12.171875 -2.132812 12.460938 -2.671875 12.640625 -3.296875 C 12.828125 -3.929688 12.921875 -4.695312 12.921875 -5.59375 L 12.921875 -21.421875 C 12.921875 -21.742188 13.09375 -21.90625 13.4375 -21.90625 L 14.984375 -21.90625 C 15.273438 -21.90625 15.421875 -21.742188 15.421875 -21.421875 L 15.421875 -5.59375 C 15.421875 -4.238281 15.207031 -3.046875 14.78125 -2.015625 C 14.363281 -0.992188 13.753906 -0.148438 12.953125 0.515625 C 11.648438 1.515625 10.191406 2.015625 8.578125 2.015625 C 6.953125 2.015625 5.488281 1.515625 4.1875 0.515625 C 2.539062 -0.765625 1.71875 -2.800781 1.71875 -5.59375 L 1.71875 -21.421875 C 1.71875 -21.742188 1.875 -21.90625 2.1875 -21.90625 L 3.84375 -21.90625 C 4.09375 -21.90625 4.21875 -21.742188 4.21875 -21.421875 Z M 4.21875 -5.59375 "/></g></g></g><g fill="#ffffff" fill-opacity="1"><g transform="translate(368.144156, 498.169675)"><g><path d="M 12.578125 -15.21875 C 12.578125 -16.113281 12.46875 -16.8125 12.25 -17.3125 C 12.039062 -17.8125 11.6875 -18.253906 11.1875 -18.640625 C 10.695312 -19.035156 10.109375 -19.320312 9.421875 -19.5 C 8.742188 -19.6875 7.71875 -19.78125 6.34375 -19.78125 L 4.421875 -19.78125 L 4.421875 -10.53125 L 6.40625 -10.53125 C 7.34375 -10.53125 8.171875 -10.617188 8.890625 -10.796875 C 9.609375 -10.984375 10.253906 -11.269531 10.828125 -11.65625 C 11.398438 -12.039062 11.832031 -12.539062 12.125 -13.15625 C 12.425781 -13.78125 12.578125 -14.46875 12.578125 -15.21875 Z M 16.65625 1 C 16.707031 1.113281 16.707031 1.21875 16.65625 1.3125 C 16.613281 1.414062 16.523438 1.46875 16.390625 1.46875 L 14.609375 1.46875 C 14.265625 1.46875 14.007812 1.3125 13.84375 1 C 12.726562 -1.039062 11.910156 -2.519531 11.390625 -3.4375 C 10.878906 -4.363281 10.328125 -5.378906 9.734375 -6.484375 C 9.367188 -7.140625 8.992188 -7.847656 8.609375 -8.609375 C 8.054688 -8.515625 7.515625 -8.445312 6.984375 -8.40625 C 6.460938 -8.375 5.941406 -8.359375 5.421875 -8.359375 L 4.421875 -8.359375 L 4.421875 1 C 4.421875 1.3125 4.257812 1.46875 3.9375 1.46875 L 2.40625 1.46875 C 2.082031 1.46875 1.921875 1.3125 1.921875 1 L 1.921875 -20.875 C 1.921875 -21.125 1.925781 -21.316406 1.9375 -21.453125 C 1.945312 -21.597656 1.984375 -21.703125 2.046875 -21.765625 C 2.117188 -21.835938 2.222656 -21.878906 2.359375 -21.890625 C 2.503906 -21.898438 2.703125 -21.90625 2.953125 -21.90625 L 7.546875 -21.90625 C 8.847656 -21.90625 9.972656 -21.726562 10.921875 -21.375 C 11.867188 -21.019531 12.65625 -20.539062 13.28125 -19.9375 C 13.914062 -19.332031 14.382812 -18.648438 14.6875 -17.890625 C 15 -17.140625 15.15625 -16.25 15.15625 -15.21875 C 15.15625 -14.53125 15.078125 -13.894531 14.921875 -13.3125 C 14.773438 -12.726562 14.488281 -12.148438 14.0625 -11.578125 C 13.644531 -11.015625 13.164062 -10.539062 12.625 -10.15625 C 12.09375 -9.78125 11.460938 -9.492188 10.734375 -9.296875 Z M 16.65625 1 "/></g></g></g><g fill="#ffffff" fill-opacity="1"><g transform="translate(386.997015, 498.169675)"><g/></g></g><g fill="#ffffff" fill-opacity="1"><g transform="translate(405.849873, 498.169675)"><g><path d="M 12.203125 -16.25 C 12.203125 -18.582031 10.453125 -19.757812 6.953125 -19.78125 L 4.734375 -19.78125 L 4.734375 -12.140625 L 6.65625 -12.140625 C 8.269531 -12.140625 9.597656 -12.503906 10.640625 -13.234375 C 11.679688 -13.960938 12.203125 -14.96875 12.203125 -16.25 Z M 13 -5.59375 C 13 -6.914062 12.378906 -7.96875 11.140625 -8.75 C 9.910156 -9.539062 8.1875 -9.9375 5.96875 -9.9375 L 4.734375 -9.9375 L 4.734375 -0.71875 L 6.375 -0.71875 C 10.789062 -0.71875 13 -2.34375 13 -5.59375 Z M 15.53125 -5.71875 C 15.53125 -0.925781 12.457031 1.46875 6.3125 1.46875 L 3.21875 1.46875 C 2.738281 1.46875 2.457031 1.425781 2.375 1.34375 C 2.300781 1.269531 2.265625 0.992188 2.265625 0.515625 L 2.265625 -21.046875 C 2.265625 -21.484375 2.300781 -21.734375 2.375 -21.796875 C 2.457031 -21.867188 2.738281 -21.90625 3.21875 -21.90625 L 6.953125 -21.90625 C 12.140625 -21.90625 14.734375 -20.039062 14.734375 -16.3125 C 14.734375 -13.476562 13.226562 -11.765625 10.21875 -11.171875 C 11.957031 -10.710938 13.273438 -9.976562 14.171875 -8.96875 C 15.078125 -7.96875 15.53125 -6.882812 15.53125 -5.71875 Z M 15.53125 -5.71875 "/></g></g></g><g fill="#ffffff" fill-opacity="1"><g transform="translate(424.702732, 498.169675)"><g><path d="M 3.5625 1.515625 C 3.082031 1.515625 2.800781 1.472656 2.71875 1.390625 C 2.644531 1.304688 2.609375 1.023438 2.609375 0.546875 L 2.609375 -21.015625 C 2.609375 -21.453125 2.644531 -21.707031 2.71875 -21.78125 C 2.800781 -21.863281 3.0625 -21.90625 3.5 -21.90625 L 14.15625 -21.90625 C 14.476562 -21.90625 14.640625 -21.742188 14.640625 -21.421875 L 14.640625 -20.21875 C 14.640625 -19.90625 14.476562 -19.75 14.15625 -19.75 L 5.109375 -19.75 L 5.109375 -11.71875 L 13.640625 -11.71875 C 13.960938 -11.71875 14.125 -11.5625 14.125 -11.25 L 14.125 -10.015625 C 14.125 -9.691406 13.960938 -9.53125 13.640625 -9.53125 L 5.109375 -9.53125 L 5.109375 -0.6875 L 14.5625 -0.6875 C 14.882812 -0.6875 15.046875 -0.523438 15.046875 -0.203125 L 15.046875 1.03125 C 15.046875 1.351562 14.882812 1.515625 14.5625 1.515625 Z M 3.5625 1.515625 "/></g></g></g><g fill="#ffffff" fill-opacity="1"><g transform="translate(443.55559, 498.169675)"><g><path d="M 2.75 1.125 C 2.40625 1.007812 2.265625 0.816406 2.328125 0.546875 L 2.46875 -1.03125 C 2.507812 -1.1875 2.578125 -1.296875 2.671875 -1.359375 C 2.765625 -1.429688 2.878906 -1.425781 3.015625 -1.34375 C 3.742188 -0.925781 4.441406 -0.625 5.109375 -0.4375 C 5.773438 -0.257812 6.585938 -0.171875 7.546875 -0.171875 C 9.003906 -0.171875 10.195312 -0.578125 11.125 -1.390625 C 12.050781 -2.203125 12.515625 -3.234375 12.515625 -4.484375 C 12.515625 -5.222656 12.265625 -5.898438 11.765625 -6.515625 C 11.273438 -7.128906 10.609375 -7.710938 9.765625 -8.265625 C 9.015625 -8.765625 8.226562 -9.253906 7.40625 -9.734375 C 6.582031 -10.210938 5.789062 -10.734375 5.03125 -11.296875 C 4.28125 -11.859375 3.625 -12.535156 3.0625 -13.328125 C 2.507812 -14.128906 2.234375 -15.054688 2.234375 -16.109375 C 2.234375 -17.140625 2.421875 -18.046875 2.796875 -18.828125 C 3.171875 -19.617188 3.679688 -20.28125 4.328125 -20.8125 C 4.984375 -21.351562 5.769531 -21.742188 6.6875 -21.984375 C 7.601562 -22.222656 8.539062 -22.34375 9.5 -22.34375 C 10.1875 -22.34375 10.816406 -22.296875 11.390625 -22.203125 C 11.972656 -22.117188 12.65625 -21.925781 13.4375 -21.625 C 13.757812 -21.539062 13.894531 -21.359375 13.84375 -21.078125 L 13.578125 -19.71875 C 13.503906 -19.34375 13.320312 -19.238281 13.03125 -19.40625 C 12.4375 -19.675781 11.851562 -19.867188 11.28125 -19.984375 C 10.707031 -20.097656 10.101562 -20.15625 9.46875 -20.15625 C 8.757812 -20.15625 8.09375 -20.066406 7.46875 -19.890625 C 6.851562 -19.722656 6.359375 -19.476562 5.984375 -19.15625 C 5.609375 -18.84375 5.285156 -18.445312 5.015625 -17.96875 C 4.753906 -17.488281 4.625 -16.90625 4.625 -16.21875 C 4.625 -15.664062 4.757812 -15.148438 5.03125 -14.671875 C 5.3125 -14.191406 5.71875 -13.734375 6.25 -13.296875 C 6.789062 -12.867188 7.304688 -12.503906 7.796875 -12.203125 C 8.285156 -11.910156 8.804688 -11.59375 9.359375 -11.25 C 10.085938 -10.789062 10.773438 -10.34375 11.421875 -9.90625 C 12.078125 -9.46875 12.671875 -8.992188 13.203125 -8.484375 C 13.742188 -7.972656 14.160156 -7.390625 14.453125 -6.734375 C 14.753906 -6.085938 14.90625 -5.351562 14.90625 -4.53125 C 14.90625 -3.476562 14.691406 -2.546875 14.265625 -1.734375 C 13.847656 -0.921875 13.328125 -0.25 12.703125 0.28125 C 12.078125 0.820312 11.285156 1.242188 10.328125 1.546875 C 9.378906 1.859375 8.40625 2.015625 7.40625 2.015625 C 6.46875 2.015625 5.648438 1.945312 4.953125 1.8125 C 4.253906 1.675781 3.519531 1.445312 2.75 1.125 Z M 2.75 1.125 "/></g></g></g><g fill="#ffffff" fill-opacity="1"><g transform="translate(462.408449, 498.169675)"><g><path d="M 9.796875 -19.78125 L 9.796875 1 C 9.796875 1.3125 9.640625 1.46875 9.328125 1.46875 L 7.75 1.46875 C 7.425781 1.46875 7.265625 1.3125 7.265625 1 L 7.265625 -19.78125 L 1.0625 -19.78125 C 0.738281 -19.78125 0.578125 -19.941406 0.578125 -20.265625 L 0.578125 -21.421875 C 0.578125 -21.742188 0.738281 -21.90625 1.0625 -21.90625 L 16.078125 -21.90625 C 16.398438 -21.90625 16.5625 -21.742188 16.5625 -21.421875 L 16.5625 -20.265625 C 16.5625 -19.941406 16.398438 -19.78125 16.078125 -19.78125 Z M 9.796875 -19.78125 "/></g></g></g><g fill="#ffffff" fill-opacity="1"><g transform="translate(481.261307, 498.169675)"><g/></g></g><g fill="#ffffff" fill-opacity="1"><g transform="translate(500.114166, 498.169675)"><g><path d="M 9.796875 -19.78125 L 9.796875 1 C 9.796875 1.3125 9.640625 1.46875 9.328125 1.46875 L 7.75 1.46875 C 7.425781 1.46875 7.265625 1.3125 7.265625 1 L 7.265625 -19.78125 L 1.0625 -19.78125 C 0.738281 -19.78125 0.578125 -19.941406 0.578125 -20.265625 L 0.578125 -21.421875 C 0.578125 -21.742188 0.738281 -21.90625 1.0625 -21.90625 L 16.078125 -21.90625 C 16.398438 -21.90625 16.5625 -21.742188 16.5625 -21.421875 L 16.5625 -20.265625 C 16.5625 -19.941406 16.398438 -19.78125 16.078125 -19.78125 Z M 9.796875 -19.78125 "/></g></g></g><g fill="#ffffff" fill-opacity="1"><g transform="translate(518.967024, 498.169675)"><g><path d="M 12.578125 -15.21875 C 12.578125 -16.113281 12.46875 -16.8125 12.25 -17.3125 C 12.039062 -17.8125 11.6875 -18.253906 11.1875 -18.640625 C 10.695312 -19.035156 10.109375 -19.320312 9.421875 -19.5 C 8.742188 -19.6875 7.71875 -19.78125 6.34375 -19.78125 L 4.421875 -19.78125 L 4.421875 -10.53125 L 6.40625 -10.53125 C 7.34375 -10.53125 8.171875 -10.617188 8.890625 -10.796875 C 9.609375 -10.984375 10.253906 -11.269531 10.828125 -11.65625 C 11.398438 -12.039062 11.832031 -12.539062 12.125 -13.15625 C 12.425781 -13.78125 12.578125 -14.46875 12.578125 -15.21875 Z M 16.65625 1 C 16.707031 1.113281 16.707031 1.21875 16.65625 1.3125 C 16.613281 1.414062 16.523438 1.46875 16.390625 1.46875 L 14.609375 1.46875 C 14.265625 1.46875 14.007812 1.3125 13.84375 1 C 12.726562 -1.039062 11.910156 -2.519531 11.390625 -3.4375 C 10.878906 -4.363281 10.328125 -5.378906 9.734375 -6.484375 C 9.367188 -7.140625 8.992188 -7.847656 8.609375 -8.609375 C 8.054688 -8.515625 7.515625 -8.445312 6.984375 -8.40625 C 6.460938 -8.375 5.941406 -8.359375 5.421875 -8.359375 L 4.421875 -8.359375 L 4.421875 1 C 4.421875 1.3125 4.257812 1.46875 3.9375 1.46875 L 2.40625 1.46875 C 2.082031 1.46875 1.921875 1.3125 1.921875 1 L 1.921875 -20.875 C 1.921875 -21.125 1.925781 -21.316406 1.9375 -21.453125 C 1.945312 -21.597656 1.984375 -21.703125 2.046875 -21.765625 C 2.117188 -21.835938 2.222656 -21.878906 2.359375 -21.890625 C 2.503906 -21.898438 2.703125 -21.90625 2.953125 -21.90625 L 7.546875 -21.90625 C 8.847656 -21.90625 9.972656 -21.726562 10.921875 -21.375 C 11.867188 -21.019531 12.65625 -20.539062 13.28125 -19.9375 C 13.914062 -19.332031 14.382812 -18.648438 14.6875 -17.890625 C 15 -17.140625 15.15625 -16.25 15.15625 -15.21875 C 15.15625 -14.53125 15.078125 -13.894531 14.921875 -13.3125 C 14.773438 -12.726562 14.488281 -12.148438 14.0625 -11.578125 C 13.644531 -11.015625 13.164062 -10.539062 12.625 -10.15625 C 12.09375 -9.78125 11.460938 -9.492188 10.734375 -9.296875 Z M 16.65625 1 "/></g></g></g><g fill="#ffffff" fill-opacity="1"><g transform="translate(537.819883, 498.169675)"><g><path d="M 3.390625 1 L 3.390625 -0.171875 C 3.390625 -0.492188 3.550781 -0.65625 3.875 -0.65625 L 7.265625 -0.65625 L 7.265625 -19.78125 L 4.21875 -19.78125 C 3.894531 -19.78125 3.734375 -19.941406 3.734375 -20.265625 L 3.734375 -21.421875 C 3.734375 -21.742188 3.894531 -21.90625 4.21875 -21.90625 L 12.921875 -21.90625 C 13.242188 -21.90625 13.40625 -21.742188 13.40625 -21.421875 L 13.40625 -20.265625 C 13.40625 -19.941406 13.242188 -19.78125 12.921875 -19.78125 L 9.875 -19.78125 L 9.875 -0.65625 L 13.265625 -0.65625 C 13.585938 -0.65625 13.75 -0.492188 13.75 -0.171875 L 13.75 1 C 13.75 1.3125 13.585938 1.46875 13.265625 1.46875 L 3.875 1.46875 C 3.550781 1.46875 3.390625 1.3125 3.390625 1 Z M 3.390625 1 "/></g></g></g><g fill="#ffffff" fill-opacity="1"><g transform="translate(556.672742, 498.169675)"><g><path d="M 13.640625 -15.1875 C 13.640625 -16.46875 13.210938 -17.546875 12.359375 -18.421875 C 11.503906 -19.304688 10.265625 -19.75 8.640625 -19.75 L 4.53125 -19.75 L 4.53125 -10.53125 L 6.28125 -10.53125 C 7.601562 -10.53125 8.644531 -10.582031 9.40625 -10.6875 C 10.175781 -10.800781 10.875 -11.03125 11.5 -11.375 C 12.125 -11.71875 12.617188 -12.148438 12.984375 -12.671875 C 13.359375 -13.203125 13.578125 -14.039062 13.640625 -15.1875 Z M 4.53125 1 C 4.53125 1.3125 4.367188 1.46875 4.046875 1.46875 L 2.53125 1.46875 C 2.21875 1.46875 2.0625 1.3125 2.0625 1 L 2.0625 -20.875 C 2.0625 -21.375 2.109375 -21.671875 2.203125 -21.765625 C 2.304688 -21.859375 2.597656 -21.90625 3.078125 -21.90625 L 8.125 -21.90625 C 10.632812 -21.90625 12.597656 -21.300781 14.015625 -20.09375 C 15.484375 -18.832031 16.21875 -17.195312 16.21875 -15.1875 C 16.21875 -14 16.003906 -13.015625 15.578125 -12.234375 C 15.160156 -11.460938 14.566406 -10.769531 13.796875 -10.15625 C 13.035156 -9.550781 12.140625 -9.097656 11.109375 -8.796875 C 10.078125 -8.503906 8.988281 -8.359375 7.84375 -8.359375 L 4.53125 -8.359375 Z M 4.53125 1 "/></g></g></g></svg>