<svg xmlns="http://www.w3.org/2000/svg" xmlns:xlink="http://www.w3.org/1999/xlink" width="1080" zoomAndPan="magnify" viewBox="0 0 810 809.999993" height="1080" preserveAspectRatio="xMidYMid meet" version="1.0"><defs><clipPath id="83fdf16efe"><path d="M 102 18 L 713.417969 18 L 713.417969 386 L 102 386 Z M 102 18 " clip-rule="nonzero"/></clipPath><clipPath id="509af2e847"><path d="M 102 431 L 713.417969 431 L 713.417969 799 L 102 799 Z M 102 431 " clip-rule="nonzero"/></clipPath></defs><g clip-path="url(#83fdf16efe)"><path fill="#000000" d="M 164.761719 385.261719 C 180.644531 385.261719 196.527344 379.210938 208.644531 367.105469 L 407.859375 168.046875 L 607.078125 367.105469 C 631.308594 391.316406 670.613281 391.316406 694.84375 367.105469 C 706.554688 355.402344 713.015625 339.800781 713.015625 323.257812 C 713.015625 306.714844 706.554688 291.113281 694.84375 279.410156 L 451.742188 36.371094 C 427.511719 12.164062 388.207031 12.164062 363.980469 36.371094 L 120.746094 279.410156 C 96.515625 303.621094 96.515625 343.03125 120.746094 367.105469 C 132.859375 379.210938 148.742188 385.261719 164.761719 385.261719 Z M 164.761719 385.261719 " fill-opacity="1" fill-rule="nonzero"/></g><g clip-path="url(#509af2e847)"><path fill="#000000" d="M 607.078125 449.417969 L 407.859375 648.476562 L 208.644531 449.417969 C 184.414062 425.207031 144.972656 425.207031 120.878906 449.417969 C 96.648438 473.628906 96.648438 513.035156 120.878906 537.113281 L 363.980469 780.015625 C 376.09375 792.253906 391.976562 798.308594 407.859375 798.308594 C 423.746094 798.308594 439.628906 792.253906 451.742188 780.152344 L 694.84375 537.246094 C 706.554688 525.542969 713.015625 509.941406 713.015625 493.398438 C 713.015625 476.855469 706.554688 461.253906 694.84375 449.554688 C 670.75 425.207031 631.308594 425.207031 607.078125 449.417969 Z M 607.078125 449.417969 " fill-opacity="1" fill-rule="nonzero"/></g></svg>