<svg xmlns="http://www.w3.org/2000/svg" xmlns:xlink="http://www.w3.org/1999/xlink" width="1080" zoomAndPan="magnify" viewBox="0 0 810 809.999993" height="1080" preserveAspectRatio="xMidYMid meet" version="1.0"><defs><g/></defs><g fill="#000000" fill-opacity="1"><g transform="translate(20.334733, 446.999998)"><g><path d="M 111.71875 -112.015625 L 111.71875 0 L 84.078125 0 L 84.078125 -23.515625 L 73.796875 -23.515625 C 70.367188 -8.816406 59.734375 -1.46875 41.890625 -1.46875 C 31.015625 -1.46875 22.78125 -4.257812 17.1875 -9.84375 C 11.601562 -15.4375 8.8125 -23.671875 8.8125 -34.546875 L 8.8125 -78.640625 C 8.8125 -89.523438 11.601562 -97.757812 17.1875 -103.34375 C 22.78125 -108.925781 31.015625 -111.71875 41.890625 -111.71875 C 59.628906 -111.71875 70.265625 -104.46875 73.796875 -89.96875 L 84.078125 -89.96875 L 84.078125 -112.015625 Z M 47.046875 -84.53125 C 47.046875 -87.957031 45.328125 -89.671875 41.890625 -89.671875 C 38.460938 -89.671875 36.75 -87.957031 36.75 -84.53125 L 36.75 -28.671875 C 36.75 -25.234375 38.460938 -23.515625 41.890625 -23.515625 C 45.328125 -23.515625 47.046875 -25.234375 47.046875 -28.671875 Z M 84.078125 -45.71875 L 84.078125 -67.765625 L 74.96875 -67.765625 L 74.96875 -45.71875 Z M 84.078125 -45.71875 "/></g></g></g><g fill="#000000" fill-opacity="1"><g transform="translate(133.515307, 446.999998)"><g><path d="M 60.125 -107.3125 L 60.125 -89.375 L 8.8125 -89.375 L 8.8125 -107.3125 L 22.484375 -107.3125 L 22.484375 -113.1875 L 47.1875 -113.1875 L 47.1875 -107.3125 Z M 88.5 -69.828125 L 88.5 -49.25 L 63.796875 -49.25 L 63.796875 -111.71875 L 88.5 -111.71875 L 88.5 -91.875 L 92.90625 -91.875 L 92.90625 -111.71875 L 117.59375 -111.71875 L 117.59375 -49.25 L 92.90625 -49.25 L 92.90625 -69.828125 Z M 59.390625 -67.46875 C 59.390625 -61.195312 57.28125 -56.269531 53.0625 -52.6875 C 48.851562 -49.113281 42.78125 -47.328125 34.84375 -47.328125 C 26.90625 -47.328125 20.828125 -49.113281 16.609375 -52.6875 C 12.398438 -56.269531 10.296875 -61.195312 10.296875 -67.46875 C 10.296875 -73.644531 12.425781 -78.59375 16.6875 -82.3125 C 20.945312 -86.039062 27 -87.90625 34.84375 -87.90625 C 42.675781 -87.90625 48.722656 -86.039062 52.984375 -82.3125 C 57.253906 -78.59375 59.390625 -73.644531 59.390625 -67.46875 Z M 31.15625 -67.46875 C 31.15625 -66.394531 31.5 -65.515625 32.1875 -64.828125 C 32.875 -64.140625 33.757812 -63.796875 34.84375 -63.796875 C 35.914062 -63.796875 36.796875 -64.140625 37.484375 -64.828125 C 38.171875 -65.515625 38.515625 -66.394531 38.515625 -67.46875 C 38.515625 -68.550781 38.171875 -69.429688 37.484375 -70.109375 C 36.796875 -70.796875 35.914062 -71.140625 34.84375 -71.140625 C 33.757812 -71.140625 32.875 -70.796875 32.1875 -70.109375 C 31.5 -69.429688 31.15625 -68.550781 31.15625 -67.46875 Z M 94.8125 -44.390625 C 101.769531 -44.390625 107.351562 -42.351562 111.5625 -38.28125 C 115.78125 -34.21875 117.890625 -28.859375 117.890625 -22.203125 C 117.890625 -15.535156 115.78125 -10.164062 111.5625 -6.09375 C 107.351562 -2.03125 101.769531 0 94.8125 0 L 41.015625 0 C 34.054688 0 28.46875 -2.03125 24.25 -6.09375 C 20.039062 -10.164062 17.9375 -15.535156 17.9375 -22.203125 C 17.9375 -28.859375 20.039062 -34.21875 24.25 -38.28125 C 28.46875 -42.351562 34.054688 -44.390625 41.015625 -44.390625 Z M 87.46875 -19.40625 C 88.25 -19.40625 88.910156 -19.671875 89.453125 -20.203125 C 89.992188 -20.742188 90.265625 -21.410156 90.265625 -22.203125 C 90.265625 -22.984375 89.992188 -23.640625 89.453125 -24.171875 C 88.910156 -24.710938 88.25 -24.984375 87.46875 -24.984375 L 48.359375 -24.984375 C 47.578125 -24.984375 46.914062 -24.710938 46.375 -24.171875 C 45.832031 -23.640625 45.5625 -22.984375 45.5625 -22.203125 C 45.5625 -21.410156 45.832031 -20.742188 46.375 -20.203125 C 46.914062 -19.671875 47.578125 -19.40625 48.359375 -19.40625 Z M 87.46875 -19.40625 "/></g></g></g><g fill="#000000" fill-opacity="1"><g transform="translate(289.616029, 446.999998)"><g><path d="M 113.1875 -111.71875 L 85.703125 -111.71875 L 85.703125 -61.734375 L 113.1875 -61.734375 L 113.1875 -77.609375 L 124.21875 -77.609375 L 124.21875 -97.75 L 113.1875 -97.75 Z M 10.296875 -61.734375 C 25.679688 -61.734375 37.515625 -62.59375 45.796875 -64.3125 C 54.078125 -66.03125 60.691406 -70.367188 65.640625 -77.328125 C 70.585938 -84.285156 73.0625 -95.257812 73.0625 -110.25 L 10.296875 -110.25 L 10.296875 -91.4375 L 42.921875 -91.4375 C 42.921875 -87.320312 39.585938 -84.28125 32.921875 -82.3125 C 26.265625 -80.351562 17.738281 -79.375 7.34375 -79.375 Z M 13.234375 -57.921875 L 13.234375 0 L 113.1875 0 L 113.1875 -15.875 L 40.859375 -15.875 L 40.859375 -21.3125 L 111.71875 -21.3125 L 111.71875 -36.453125 L 40.859375 -36.453125 L 40.859375 -42.046875 L 113.1875 -42.046875 L 113.1875 -57.921875 Z M 13.234375 -57.921875 "/></g></g></g><g fill="#000000" fill-opacity="1"><g transform="translate(406.471279, 446.999998)"><g><path d="M 84.375 -111.71875 L 84.375 0 L 112.015625 0 L 112.015625 -111.71875 Z M 41.75 -110.546875 C 30.96875 -110.546875 22.78125 -107.703125 17.1875 -102.015625 C 11.601562 -96.328125 8.8125 -88 8.8125 -77.03125 L 8.8125 -37.921875 C 8.8125 -26.953125 11.601562 -18.625 17.1875 -12.9375 C 22.78125 -7.25 30.96875 -4.40625 41.75 -4.40625 C 52.53125 -4.40625 60.710938 -7.25 66.296875 -12.9375 C 71.878906 -18.625 74.671875 -26.953125 74.671875 -37.921875 L 74.671875 -77.03125 C 74.671875 -88 71.878906 -96.328125 66.296875 -102.015625 C 60.710938 -107.703125 52.53125 -110.546875 41.75 -110.546875 Z M 41.75 -88.5 C 45.375 -88.5 47.1875 -86.632812 47.1875 -82.90625 L 47.1875 -32.046875 C 47.1875 -28.316406 45.375 -26.453125 41.75 -26.453125 C 38.125 -26.453125 36.3125 -28.316406 36.3125 -32.046875 L 36.3125 -82.90625 C 36.3125 -86.632812 38.125 -88.5 41.75 -88.5 Z M 41.75 -88.5 "/></g></g></g><g fill="#000000" fill-opacity="1"><g transform="translate(556.692508, 446.999998)"><g><path d="M 111.71875 -69.234375 L 122.75 -69.234375 L 122.75 -47.1875 L 111.71875 -47.1875 L 111.71875 0 L 84.078125 0 L 84.078125 -111.71875 L 111.71875 -111.71875 Z M 69.390625 -88.203125 C 69.484375 -72.023438 69.820312 -59.722656 70.40625 -51.296875 C 71 -42.867188 72.273438 -35.984375 74.234375 -30.640625 C 76.191406 -25.304688 79.226562 -20.972656 83.34375 -17.640625 L 70.125 -1.46875 C 65.019531 -5.582031 60.898438 -10.238281 57.765625 -15.4375 C 54.140625 -10.238281 49.632812 -5.582031 44.25 -1.46875 L 31.453125 -14.84375 C 28.117188 -10.820312 23.515625 -6.363281 17.640625 -1.46875 L 4.40625 -16.171875 C 8.519531 -19.890625 11.554688 -24.515625 13.515625 -30.046875 C 15.484375 -35.585938 16.757812 -42.617188 17.34375 -51.140625 C 17.9375 -59.671875 18.28125 -72.023438 18.375 -88.203125 L 8.8125 -88.203125 L 8.8125 -110.25 L 78.9375 -110.25 L 78.9375 -88.203125 Z M 35.28125 -20.875 C 38.707031 -24.5 41.253906 -28.710938 42.921875 -33.515625 C 44.585938 -38.316406 45.691406 -44.097656 46.234375 -50.859375 C 46.773438 -57.617188 47.046875 -66.6875 47.046875 -78.0625 L 47.046875 -88.203125 L 40.859375 -88.203125 L 41.015625 -64.6875 C 41.015625 -52.53125 40.644531 -43.289062 39.90625 -36.96875 C 39.175781 -30.644531 37.632812 -25.28125 35.28125 -20.875 Z M 35.28125 -20.875 "/></g></g></g><g fill="#000000" fill-opacity="1"><g transform="translate(672.077924, 446.999998)"><g><path d="M 84.078125 -111.71875 L 84.078125 0 L 111.71875 0 L 111.71875 -111.71875 Z M 10.296875 -4.40625 C 22.347656 -4.40625 33.003906 -7.832031 42.265625 -14.6875 C 51.523438 -21.550781 58.726562 -31.328125 63.875 -44.015625 C 69.019531 -56.710938 71.59375 -71.539062 71.59375 -88.5 L 71.59375 -110.546875 L 8.8125 -110.546875 L 8.8125 -88.5 L 43.953125 -88.5 C 43.953125 -73.300781 41.988281 -61.070312 38.0625 -51.8125 C 34.144531 -42.550781 29.394531 -36.007812 23.8125 -32.1875 C 18.226562 -28.363281 12.738281 -26.453125 7.34375 -26.453125 Z M 10.296875 -4.40625 "/></g></g></g></svg>